<?xml version="1.0" encoding="utf-8"?>
<!-- Generator: Adobe Illustrator 27.5.0, SVG Export Plug-In . SVG Version: 6.00 Build 0)  -->
<svg version="1.1" xmlns="http://www.w3.org/2000/svg" xmlns:xlink="http://www.w3.org/1999/xlink" x="0px" y="0px"
	 viewBox="0 0 500 500" style="enable-background:new 0 0 500 500;" xml:space="preserve">
<g id="Background_Simple">
	<g>
		<path style="fill:#92E3A9;" d="M489.115,217.2c-0.569-42.604-16.152-83.732-39.888-115.48
			c-13.886-18.573-30.595-34.844-48.836-47.513c-18.932-13.149-39.513-27.875-62.356-30.135c-5.637-0.558-11.418-0.291-16.982,1.491
			c-21.302,6.821,20.851,31.129,26.36,34.684C288.495,33.181,227.511,5.681,163.107,8.274c-12.418,0.5-25.3,2.295-36.218,9.698
			c-10.918,7.403-19.367,21.68-17.741,35.832c1.344,11.699,8.699,24.768,1.801,33.912c-1.973,2.615-4.77,4.16-7.515,5.502
			c-14.089,6.886-29.298,10.497-42.644,19.257c-20.668,13.566-34.773,38.49-41.31,64.715s-6.224,53.782-3.657,80.458
			c4.829,50.206,17.962,100.014,44.539,139.058c37.962,55.77,100.199,84.177,162.54,88.858
			c75.434,5.664,157.221-24.006,207.102-92.677c7.398-10.185,14.182-21.469,16.872-34.242c2.691-12.773,0.559-27.328-7.722-35.716
			c-2.232-2.26-5.104-4.657-4.862-8.165c0.328-4.747,5.637-6.352,9.684-7.349c26.552-6.538,41.738-41.134,44.477-72.247
			C488.98,229.165,489.195,223.168,489.115,217.2z"/>
		<path style="opacity:0.7;fill:#FFFFFF;" d="M489.115,217.2c-0.569-42.604-16.152-83.732-39.888-115.48
			c-13.886-18.573-30.595-34.844-48.836-47.513c-18.932-13.149-39.513-27.875-62.356-30.135c-5.637-0.558-11.418-0.291-16.982,1.491
			c-21.302,6.821,20.851,31.129,26.36,34.684C288.495,33.181,227.511,5.681,163.107,8.274c-12.418,0.5-25.3,2.295-36.218,9.698
			c-10.918,7.403-19.367,21.68-17.741,35.832c1.344,11.699,8.699,24.768,1.801,33.912c-1.973,2.615-4.77,4.16-7.515,5.502
			c-14.089,6.886-29.298,10.497-42.644,19.257c-20.668,13.566-34.773,38.49-41.31,64.715s-6.224,53.782-3.657,80.458
			c4.829,50.206,17.962,100.014,44.539,139.058c37.962,55.77,100.199,84.177,162.54,88.858
			c75.434,5.664,157.221-24.006,207.102-92.677c7.398-10.185,14.182-21.469,16.872-34.242c2.691-12.773,0.559-27.328-7.722-35.716
			c-2.232-2.26-5.104-4.657-4.862-8.165c0.328-4.747,5.637-6.352,9.684-7.349c26.552-6.538,41.738-41.134,44.477-72.247
			C488.98,229.165,489.195,223.168,489.115,217.2z"/>
	</g>
</g>
<g id="Symbol">
	<g style="opacity:0.3;">
		<circle style="fill:none;stroke:#263238;stroke-miterlimit:10;" cx="368.878" cy="133.553" r="105.748"/>
		
			<ellipse transform="matrix(0.7071 -0.7071 0.7071 0.7071 13.6057 299.9531)" style="fill:none;stroke:#263238;stroke-miterlimit:10;" cx="368.878" cy="133.553" rx="94.014" ry="94.014"/>
		<g>
			<g>
				<g>
					<g>
						<path d="M336.484,201.07c-0.038,0-0.077-0.008-0.114-0.025c-22.519-10.394-39.247-33.059-42.616-57.741
							c-1.744-12.474-0.417-25.2,3.836-36.803c4.254-11.697,11.445-22.282,20.796-30.608c0.112-0.099,0.283-0.09,0.383,0.022
							c0.1,0.112,0.09,0.284-0.022,0.383c-9.284,8.266-16.424,18.774-20.647,30.388c-4.223,11.52-5.539,24.156-3.808,36.543
							c3.345,24.505,19.95,47.005,42.306,57.323c0.136,0.063,0.196,0.224,0.133,0.36C336.685,201.011,336.586,201.07,336.484,201.07
							z"/>
					</g>
					<g>
						<g>
							<path d="M301.071,115.455c-0.92-0.232-1.85,0.122-2.736,0.82c-0.887,0.695-1.751,1.727-2.37,2.832
								c-0.652,1.098-1.192,2.241-1.568,3.108c-0.191,0.433-0.289,0.805-0.379,1.062c-0.081,0.261-0.126,0.407-0.126,0.407
								l-0.388,3.184c0.489-1.282,2.437-3.156,5.446-4.238c1.531-0.551,2.931-2.155,3.491-3.682
								C303.104,117.441,302.908,115.93,301.071,115.455z"/>
						</g>
						<g>
							<path d="M290.038,112.684c-1.838-0.474-2.772,1.137-2.938,3.144c-0.064,2.028,0.692,4.383,1.951,5.414
								c2.565,2.094,4.196,4.297,4.395,5.623l0.251-3.202c0,0-0.065-0.607-0.168-1.565c-0.073-0.94-0.209-2.207-0.456-3.518
								c-0.28-1.317-0.538-2.654-1.002-3.742C291.607,113.751,290.958,112.916,290.038,112.684z"/>
						</g>
					</g>
					<g>
						<g>
							<path d="M299.26,126.17c-0.945-0.087-1.823,0.407-2.612,1.232c-0.76,0.825-1.356,1.985-1.864,3.17
								c-0.251,0.593-0.472,1.192-0.663,1.757c-0.179,0.565-0.28,1.097-0.383,1.554c-0.193,0.915-0.282,1.53-0.282,1.53
								c0.027,1.068,0.014,2.139,0.074,3.206c0.251-1.34,1.998-3.494,4.759-5.026C301.011,131.986,302.958,126.534,299.26,126.17z"
								/>
						</g>
						<g>
							<path d="M287.931,125.147c-3.877-0.382-2.602,6.995,0.364,8.595c2.902,1.673,4.742,3.605,5.178,4.882
								c-0.106-1.064-0.139-2.135-0.212-3.204c0,0-0.135-0.605-0.397-1.522c-0.136-0.451-0.296-0.985-0.473-1.574
								c-0.153-0.579-0.333-1.201-0.544-1.829c-0.413-1.255-0.974-2.541-1.608-3.543
								C289.632,125.955,288.876,125.234,287.931,125.147z"/>
						</g>
					</g>
					<g>
						<g>
							<path d="M299.11,137.049c-0.474,0.03-0.911,0.2-1.313,0.481c-0.409,0.281-0.77,0.671-1.059,1.135
								c-0.599,0.93-1.041,2.169-1.363,3.419c-0.16,0.624-0.293,1.251-0.397,1.839c-0.063,0.582-0.104,1.126-0.13,1.593
								c-0.053,0.934-0.048,1.556-0.048,1.556l0.268,1.581c0.085,0.528,0.172,1.056,0.316,1.571c-0.03-0.667,0.368-1.62,1.027-2.631
								c0.667-1.014,1.638-2.093,2.89-3.066c0.645-0.491,1.087-1.217,1.516-2.04c0.406-0.82,0.661-1.713,0.715-2.533
								c0.054-0.82-0.095-1.567-0.495-2.102C300.67,137.317,300.06,136.989,299.11,137.049z"/>
						</g>
						<g>
							<path d="M287.758,137.774c-0.944,0.059-1.544,0.535-1.834,1.249c-0.257,0.711-0.213,1.657,0.046,2.63
								c0.258,0.974,0.73,1.973,1.323,2.798c0.57,0.829,1.399,1.462,2.157,1.765c1.555,0.602,2.868,1.314,3.864,2.019
								c1.004,0.704,1.649,1.415,2.015,2.003c-0.166-0.51-0.276-1.034-0.384-1.558l-0.336-1.571c0,0-0.225-0.578-0.622-1.443
								c-0.199-0.433-0.441-0.939-0.719-1.481c-0.239-0.549-0.506-1.137-0.807-1.725c-0.599-1.178-1.319-2.366-2.126-3.257
								c-0.414-0.444-0.817-0.816-1.233-1.07C288.68,137.879,288.232,137.743,287.758,137.774z"/>
						</g>
					</g>
					<g>
						<g>
							<path d="M300.631,147.812c-1.915,0.411-2.642,2.966-2.906,5.552c-0.168,1.297-0.051,2.533,0.03,3.468
								c0.087,0.933,0.185,1.548,0.185,1.548l0.5,1.524c0.159,0.511,0.395,0.993,0.588,1.491c-0.268-1.315,0.811-3.932,2.972-6.235
								c0.547-0.581,0.928-1.387,1.156-2.243c0.278-0.873,0.397-1.797,0.327-2.615C303.339,148.673,302.45,147.419,300.631,147.812z
								"/>
						</g>
						<g>
							<path d="M289.529,150.289c-1.892,0.41-1.967,2.259-1.153,4.112c0.402,0.924,1.018,1.84,1.728,2.564
								c0.761,0.709,1.62,1.224,2.43,1.401c3.273,0.705,5.541,2.007,6.442,3.051c-0.215-0.49-0.472-0.963-0.653-1.467l-0.566-1.503
								c0,0-0.308-0.537-0.829-1.332c-0.515-0.798-1.291-1.841-2.022-2.925C293.376,152.056,291.325,149.906,289.529,150.289z"/>
						</g>
					</g>
					<g>
						<g>
							<path d="M303.806,158.202c-1.771,0.682-2.132,3.338-2.003,5.94c0.068,1.292,0.381,2.493,0.589,3.413
								c0.224,0.912,0.411,1.508,0.411,1.508c0.45,0.972,1.021,1.876,1.565,2.797c-0.191-0.652-0.206-1.622,0.115-2.79
								c0.335-1.177,0.94-2.51,1.843-3.829C307.975,162.601,307.377,156.826,303.806,158.202z"/>
						</g>
						<g>
							<path d="M293.227,162.384c-3.533,1.359,0.824,7.434,4.248,7.499c1.652,0.1,3.108,0.379,4.259,0.75
								c1.167,0.363,2.099,0.783,2.585,1.255c-0.584-0.897-1.196-1.779-1.687-2.732c0,0-0.383-0.485-1.014-1.194
								c-0.615-0.717-1.549-1.625-2.472-2.566C297.317,163.524,294.997,161.702,293.227,162.384z"/>
						</g>
					</g>
					<g>
						<g>
							<path d="M308.6,167.955c-1.636,0.945-1.623,3.654-1.082,6.198c0.65,2.455,1.741,4.715,1.741,4.715
								c0.637,0.857,1.334,1.668,1.999,2.506c-0.292-0.613-0.423-1.596-0.316-2.777c0.096-1.173,0.538-2.624,1.22-4.063
								c0.347-0.725,0.478-1.622,0.438-2.513c-0.02-0.446-0.084-0.891-0.187-1.316c-0.094-0.431-0.196-0.863-0.352-1.244
								C311.458,167.932,310.241,167.001,308.6,167.955z"/>
						</g>
						<g>
							<path d="M298.802,173.734c-1.641,0.954-1.159,2.746,0.149,4.279c0.33,0.379,0.693,0.752,1.116,1.068
								c0.432,0.309,0.893,0.583,1.36,0.806c0.935,0.446,1.893,0.683,2.713,0.606c1.654-0.163,3.083-0.073,4.331,0.074
								c1.238,0.156,2.19,0.453,2.745,0.843c-0.701-0.808-1.435-1.591-2.11-2.423c0,0-1.787-1.688-4.017-3.181
								C302.981,174.246,300.451,172.78,298.802,173.734z"/>
						</g>
					</g>
					<g>
						<g>
							<path d="M314.846,176.852c-0.734,0.602-1.001,1.561-0.967,2.689c0.044,1.116,0.331,2.451,0.861,3.597
								c0.5,1.172,1.103,2.281,1.58,3.095c0.465,0.828,0.857,1.304,0.857,1.304l2.352,2.179c-0.378-0.566-0.653-1.525-0.722-2.716
								c-0.035-0.596-0.018-1.249,0.061-1.942c0.091-0.705,0.262-1.465,0.494-2.236c0.471-1.56-0.015-3.615-0.892-4.992
								C317.653,176.399,316.32,175.656,314.846,176.852z"/>
						</g>
						<g>
							<path d="M306.061,184.077c-1.474,1.196-0.735,2.903,0.778,4.229c1.572,1.272,3.941,2.04,5.517,1.642
								c0.797-0.201,1.552-0.334,2.274-0.433c0.734-0.111,1.419-0.172,2.039-0.187c1.24-0.029,2.22,0.125,2.824,0.43l-2.448-2.08
								c0,0-0.545-0.311-1.334-0.821c-0.803-0.497-1.907-1.136-3.114-1.712c-1.235-0.549-2.435-1.162-3.597-1.425
								C307.85,183.449,306.794,183.475,306.061,184.077z"/>
						</g>
					</g>
					<g>
						<g>
							<path d="M322.386,184.684c-0.632,0.708-0.753,1.702-0.553,2.819c0.104,0.553,0.268,1.159,0.52,1.727
								c0.257,0.562,0.568,1.128,0.901,1.674c0.667,1.092,1.424,2.106,2.015,2.845c0.624,0.694,1.074,1.119,1.074,1.119l2.641,1.821
								c-0.912-1.024-1.659-3.631-1.234-6.781c0.223-1.613-0.537-3.615-1.634-4.817
								C325.052,183.848,323.669,183.262,322.386,184.684z"/>
						</g>
						<g>
							<path d="M314.82,193.179c-1.26,1.396-0.315,3.026,1.42,4.058c1.768,0.993,4.191,1.433,5.688,0.796
								c3.058-1.318,5.757-1.729,7.027-1.294l-2.72-1.708c0,0-0.576-0.239-1.472-0.568c-0.863-0.375-2.044-0.848-3.317-1.242
								c-0.636-0.197-1.295-0.374-1.947-0.509c-0.647-0.141-1.252-0.28-1.842-0.325C316.487,192.288,315.452,192.471,314.82,193.179
								z"/>
						</g>
					</g>
					<g>
						<g>
							<path d="M331.037,191.266c-0.515,0.797-0.485,1.804-0.12,2.885c0.362,1.082,1.13,2.119,1.943,3.12
								c0.41,0.494,0.84,0.965,1.254,1.393c0.207,0.213,0.409,0.42,0.606,0.607c0.207,0.173,0.401,0.334,0.579,0.482
								c0.724,0.589,1.23,0.949,1.23,0.949l2.877,1.419c-1.059-0.874-2.179-3.381-2.259-6.536c-0.061-1.565-1.085-3.495-2.352-4.515
								c-0.316-0.26-0.648-0.469-0.985-0.611c-0.33-0.153-0.652-0.263-0.978-0.273C332.186,190.159,331.552,190.469,331.037,191.266
								z"/>
						</g>
						<g>
							<path d="M324.875,200.828c-0.515,0.797-0.479,1.548-0.079,2.21c0.202,0.327,0.485,0.645,0.848,0.908
								c0.369,0.252,0.803,0.471,1.274,0.652c1.9,0.71,4.326,0.84,5.737-0.084c2.828-1.798,5.408-2.577,6.729-2.34l-2.938-1.296
								c0,0-0.601-0.157-1.537-0.343c-0.234-0.044-0.489-0.092-0.762-0.144c-0.263-0.061-0.543-0.127-0.837-0.195
								c-0.586-0.13-1.222-0.256-1.878-0.358c-1.303-0.217-2.72-0.288-3.886-0.217C326.38,199.696,325.39,200.031,324.875,200.828z"
								/>
						</g>
					</g>
					<g>
						<g>
							<path d="M304.214,105.857c-1.74-0.738-3.884,0.907-5.583,2.873c-0.788,0.997-1.471,2.054-1.957,2.861
								c-0.243,0.404-0.436,0.745-0.569,0.985c-0.137,0.239-0.188,0.383-0.188,0.383l-0.805,3.104
								c0.662-1.2,2.794-2.789,6.004-3.402c0.789-0.16,1.586-0.594,2.276-1.161c0.345-0.284,0.663-0.602,0.941-0.939
								c0.287-0.334,0.568-0.676,0.776-1.03C305.96,108.127,305.964,106.594,304.214,105.857z"/>
						</g>
						<g>
							<path d="M293.702,101.511c-1.749-0.737-2.885,0.731-3.316,2.702c-0.103,0.493-0.179,1.008-0.176,1.537
								c0.012,0.532,0.069,1.064,0.171,1.571c0.204,1.014,0.589,1.922,1.143,2.53c2.158,2.425,3.52,4.857,3.533,6.2l0.672-3.142
								c0,0,0.041-0.605,0.106-1.561c0.052-0.944,0.085-2.223,0.014-3.562C295.819,105.162,295.456,102.254,293.702,101.511z"/>
						</g>
					</g>
					<g>
						<g>
							<path d="M308.759,96.834c-0.803-0.48-1.85-0.439-2.872-0.01c-1.023,0.426-2.093,1.196-3.07,2.042
								c-0.244,0.212-0.482,0.428-0.712,0.644c-0.221,0.221-0.42,0.448-0.616,0.668c-0.389,0.441-0.738,0.863-1.031,1.23
								c-0.585,0.735-0.941,1.247-0.941,1.247c-0.494,0.951-0.841,1.963-1.257,2.949c0.396-0.551,1.185-1.143,2.279-1.613
								c1.136-0.454,2.56-0.79,4.155-0.88c0.798-0.046,1.64-0.365,2.393-0.832c0.775-0.457,1.513-1.039,2.018-1.685
								c0.512-0.643,0.813-1.343,0.79-2.007C309.904,97.942,309.574,97.321,308.759,96.834z"/>
						</g>
						<g>
							<path d="M298.987,91.012c-0.815-0.487-1.567-0.426-2.219-0.006c-0.619,0.438-1.119,1.244-1.46,2.191
								c-0.336,0.951-0.534,2.031-0.488,3.058c0.067,1.039,0.327,1.998,0.792,2.682c0.931,1.37,1.599,2.694,2.009,3.833
								c0.452,1.157,0.66,2.14,0.586,2.814c0.373-1.002,0.678-2.034,1.131-3.005c0,0,0.15-0.6,0.325-1.532
								c0.088-0.466,0.181-1.017,0.267-1.618c0.039-0.299,0.081-0.611,0.124-0.935c0.054-0.314,0.104-0.636,0.148-0.963
								c0.176-1.308,0.259-2.692,0.101-3.882C300.141,92.459,299.813,91.505,298.987,91.012z"/>
						</g>
					</g>
					<g>
						<g>
							<path d="M314.556,88.555c-1.453-1.201-4.072-0.31-6.172,1.155c-1.068,0.711-2.078,1.492-2.723,2.16
								c-0.671,0.651-1.089,1.112-1.089,1.112c-0.572,0.902-1.197,1.774-1.695,2.721c0.233-0.245,0.554-0.493,0.98-0.706
								c0.436-0.208,0.957-0.392,1.545-0.539c1.177-0.293,2.621-0.427,4.201-0.294c0.395,0.033,0.81-0.001,1.226-0.088
								c0.431-0.077,0.87-0.203,1.292-0.37c0.845-0.333,1.629-0.824,2.214-1.397c0.568-0.587,1.013-1.201,1.106-1.846
								C315.534,89.821,315.292,89.154,314.556,88.555z"/>
						</g>
						<g>
							<path d="M305.723,81.386c-0.736-0.599-1.484-0.643-2.18-0.314c-0.696,0.328-1.351,1.018-1.794,1.929
								c-0.461,0.898-0.782,1.959-0.896,2.974c-0.057,0.508-0.065,1.003-0.01,1.465c0.069,0.472,0.193,0.907,0.377,1.281
								c0.734,1.497,1.218,2.912,1.472,4.107c0.127,0.598,0.196,1.141,0.209,1.615c0.022,0.48,0.009,0.902-0.074,1.232
								c0.458-0.97,1.044-1.867,1.579-2.796c0,0,0.226-0.577,0.52-1.484c0.268-0.924,0.719-2.104,1.062-3.387
								C306.62,85.418,307.196,82.602,305.723,81.386z"/>
						</g>
					</g>
					<g>
						<g>
							<path d="M321.465,81.175c-0.642-0.698-1.613-0.909-2.734-0.808c-1.108,0.111-2.419,0.479-3.54,1.067
								c-1.145,0.563-2.221,1.224-3.01,1.744c-0.404,0.252-0.686,0.512-0.903,0.677c-0.211,0.174-0.329,0.271-0.329,0.271
								l-2.074,2.447c1.114-0.802,3.769-1.301,6.884-0.55c1.586,0.384,3.616-0.212,4.946-1.162
								C322.082,83.957,322.743,82.578,321.465,81.175z"/>
						</g>
						<g>
							<path d="M313.753,72.813c-1.278-1.404-2.935-0.563-4.166,1.029c-1.186,1.637-1.824,4.041-1.34,5.589
								c0.99,3.153,1.147,5.891,0.584,7.108l1.969-2.537c0,0,0.28-0.542,0.723-1.397c0.453-0.827,1.032-1.963,1.542-3.197
								c0.484-1.258,1.023-2.497,1.216-3.675C314.484,74.567,314.395,73.512,313.753,72.813z"/>
						</g>
					</g>
					<g>
						<path d="M315.019,79.44c0,0,0.307-0.447,0.804-1.169c0.508-0.719,1.2-1.742,2.037-2.838c0.871-1.057,1.855-2.223,2.835-3.327
							c1.013-1.062,2.058-2.017,2.936-2.771c0.868-0.77,1.742-1.218,2.502-1.51c0.762-0.29,1.426-0.399,1.97-0.373
							c1.09,0.053,1.703,0.649,1.717,1.398c0.029,1.522-2.786,3.513-5.255,5c-1.299,0.656-3.642,2.033-5.762,3.208
							C316.761,78.343,315.019,79.44,315.019,79.44z"/>
						<path d="M315.02,79.621c-0.048,0-0.095-0.019-0.13-0.056c-0.06-0.062-0.068-0.157-0.019-0.228l1.183-1.711
							c0.452-0.649,1.016-1.457,1.663-2.305c1.008-1.225,1.964-2.346,2.844-3.337c0.88-0.923,1.872-1.859,2.953-2.788
							c0.748-0.663,1.584-1.168,2.555-1.542c0.749-0.285,1.437-0.414,2.044-0.384c1.13,0.054,1.872,0.673,1.889,1.575
							c0.024,1.291-1.723,2.978-5.343,5.159c-0.824,0.417-2.062,1.119-3.373,1.863c-0.786,0.446-1.606,0.911-2.395,1.348
							l-3.772,2.377C315.086,79.612,315.053,79.621,315.02,79.621z M327.936,67.629c-0.52,0-1.104,0.122-1.74,0.364
							c-0.929,0.358-1.729,0.841-2.446,1.477c-1.074,0.923-2.057,1.851-2.925,2.76c-0.872,0.984-1.825,2.101-2.826,3.317
							c-0.638,0.837-1.199,1.641-1.65,2.287l-0.684,0.985l3.038-1.914c0.797-0.442,1.616-0.906,2.401-1.352
							c1.315-0.746,2.557-1.45,3.377-1.864c4.286-2.583,5.171-4.055,5.156-4.835c-0.013-0.697-0.619-1.176-1.545-1.221
							C328.042,67.63,327.989,67.629,327.936,67.629z"/>
					</g>
				</g>
				<g>
					<g>
						<path d="M400.991,201.113c-0.102,0-0.2-0.058-0.246-0.157c-0.064-0.136-0.005-0.297,0.132-0.361l2.016-0.941
							c0.415-0.21,0.828-0.444,1.241-0.677c0.23-0.13,0.461-0.26,0.693-0.387l2.911-1.627c0.196-0.116,0.391-0.246,0.586-0.376
							l4.049-2.665l3.516-2.695c4.583-3.717,8.762-7.959,12.414-12.604c3.477-4.461,6.54-9.565,9.104-15.171l1.054-2.408
							c0.238-0.539,0.483-1.096,0.662-1.661l1.481-4.206l0.324-1.16c0.681-2.416,1.384-4.915,1.789-7.43l0.42-2.193
							c0.093-0.46,0.143-0.938,0.191-1.4c0.027-0.264,0.056-0.529,0.09-0.792c0.053-0.516,0.116-1.039,0.179-1.563
							c0.112-0.931,0.228-1.894,0.285-2.842l0.168-4.441c0.042-0.631,0.021-1.272,0.001-1.891l-0.077-2.539
							c-0.281-5.921-1.256-11.793-2.901-17.449c-3.279-11.324-9.309-21.875-17.437-30.512c-0.103-0.109-0.098-0.281,0.012-0.383
							c0.109-0.104,0.281-0.098,0.384,0.012c8.186,8.699,14.26,19.326,17.563,30.733c1.656,5.697,2.64,11.611,2.922,17.579
							l0.076,2.542c0.021,0.633,0.043,1.287-0.001,1.937l-0.168,4.439c-0.059,0.97-0.175,1.941-0.288,2.88
							c-0.062,0.52-0.125,1.041-0.178,1.562c-0.035,0.266-0.062,0.525-0.09,0.784c-0.049,0.475-0.101,0.966-0.199,1.448
							l-0.418,2.183c-0.408,2.538-1.116,5.052-1.801,7.482l-0.329,1.176l-1.484,4.215c-0.185,0.584-0.436,1.155-0.679,1.707
							l-1.056,2.411c-2.584,5.648-5.669,10.788-9.172,15.284c-3.678,4.677-7.885,8.948-12.505,12.696l-3.538,2.711l-4.062,2.674
							c-0.204,0.135-0.406,0.271-0.617,0.395l-2.919,1.632c-0.232,0.127-0.46,0.256-0.688,0.385
							c-0.421,0.237-0.841,0.475-1.272,0.692l-2.024,0.945C401.069,201.105,401.03,201.113,400.991,201.113z"/>
					</g>
					<g>
						<g>
							<path d="M448.68,117.634c-1.837,0.357-2.863,3.023-3.421,5.475c-0.694,2.481-0.938,4.824-0.938,4.824l0.023,3.072
								c0.297-1.257,2.086-3.277,4.711-5.141c0.668-0.464,1.235-1.242,1.647-2.153c0.202-0.455,0.384-0.945,0.486-1.438
								c0.097-0.493,0.148-0.993,0.15-1.474C451.339,118.868,450.569,117.272,448.68,117.634z"/>
						</g>
						<g>
							<path d="M437.495,119.708c-1.838,0.353-2.186,1.797-1.657,3.276c0.131,0.372,0.315,0.749,0.542,1.115
								c0.221,0.367,0.451,0.728,0.733,1.06c0.555,0.664,1.243,1.223,1.98,1.522c2.998,1.185,4.802,3.075,5.194,4.325l-0.161-3.061
								c0,0-0.655-2.311-1.784-4.48C441.073,121.301,439.383,119.342,437.495,119.708z"/>
						</g>
					</g>
					<g>
						<g>
							<path d="M449.965,129.647c-0.948,0.034-1.753,0.685-2.428,1.607c-0.346,0.462-0.624,0.993-0.935,1.555
								c-0.311,0.562-0.594,1.156-0.847,1.744c-0.506,1.178-0.894,2.336-1.154,3.201c-0.122,0.433-0.234,0.791-0.328,1.04
								c-0.083,0.252-0.13,0.393-0.13,0.393l-0.417,3.043c0.242-0.602,0.865-1.334,1.803-2.101c0.934-0.766,2.215-1.566,3.631-2.293
								c1.444-0.715,2.647-2.767,3.007-4.673C452.488,131.257,451.844,129.569,449.965,129.647z"/>
						</g>
						<g>
							<path d="M438.597,130.045c-1.914,0.078-2.352,1.456-2.084,3c0.229,1.543,1.287,3.323,2.673,4.14
								c1.414,0.81,2.443,1.738,3.195,2.635c0.748,0.896,1.189,1.757,1.288,2.402l0.279-3.053c0,0-0.014-0.145-0.039-0.405
								c-0.018-0.257-0.076-0.626-0.181-1.07c-0.194-0.886-0.493-2.061-0.911-3.218c-0.209-0.578-0.447-1.152-0.717-1.684
								c-0.27-0.532-0.633-1.023-0.988-1.436C440.385,130.527,439.545,130.01,438.597,130.045z"/>
						</g>
					</g>
					<g>
						<g>
							<path d="M449.481,141.709c-0.943-0.105-1.832,0.421-2.633,1.235c-0.4,0.407-0.778,0.888-1.13,1.404
								c-0.389,0.511-0.761,1.055-1.099,1.6c-0.678,1.09-1.236,2.178-1.624,2.994c-0.195,0.408-0.338,0.75-0.471,0.982
								c-0.12,0.236-0.187,0.369-0.187,0.369l-0.868,2.946c0.33-0.559,1.055-1.19,2.098-1.809c1.048-0.616,2.412-1.222,3.926-1.731
								c1.536-0.494,3.036-2.347,3.679-4.182C451.728,143.672,451.359,141.909,449.481,141.709z"/>
						</g>
						<g>
							<path d="M438.178,140.435c-1.896-0.202-2.553,1.091-2.472,2.661c-0.006,1.555,0.772,3.468,2.02,4.481
								c1.274,1.009,2.175,2.084,2.775,3.08c0.606,0.997,0.912,1.913,0.914,2.566l0.734-2.976c0,0,0.008-0.146,0.022-0.406
								c0.022-0.256-0.001-0.635-0.029-1.087c-0.058-0.904-0.177-2.11-0.416-3.315c-0.12-0.602-0.267-1.204-0.457-1.77
								c-0.228-0.572-0.49-1.106-0.79-1.569C439.878,141.175,439.121,140.54,438.178,140.435z"/>
						</g>
					</g>
					<g>
						<g>
							<path d="M447.239,153.583c-0.917-0.244-1.875,0.143-2.789,0.829c-0.457,0.343-0.903,0.763-1.328,1.221
								c-0.459,0.447-0.909,0.93-1.324,1.419c-0.833,0.976-1.546,1.969-2.051,2.718c-0.247,0.377-0.454,0.688-0.618,0.898
								c-0.154,0.216-0.24,0.337-0.24,0.337l-1.294,2.786c0.409-0.504,1.219-1.02,2.341-1.476c1.121-0.456,2.573-0.846,4.144-1.123
								c1.592-0.259,3.351-1.868,4.26-3.587C449.166,155.859,449.067,154.06,447.239,153.583z"/>
						</g>
						<g>
							<path d="M436.251,150.64c-1.845-0.482-2.689,0.697-2.842,2.26c-0.237,1.536,0.248,3.544,1.331,4.732
								c1.11,1.188,1.828,2.381,2.28,3.459c0.451,1.077,0.619,2.029,0.524,2.676l1.165-2.836c0,0,0.03-0.143,0.082-0.399
								c0.058-0.251,0.107-0.623,0.14-1.077c0.077-0.903,0.139-2.113,0.082-3.34c-0.03-0.614-0.084-1.23-0.19-1.819
								c-0.139-0.599-0.318-1.166-0.546-1.668C437.822,151.624,437.168,150.884,436.251,150.64z"/>
						</g>
					</g>
					<g>
						<g>
							<path d="M443.248,164.991c-0.87-0.379-1.875-0.138-2.879,0.404c-0.507,0.27-0.995,0.625-1.503,1.005
								c-0.524,0.372-1.036,0.785-1.519,1.206c-0.966,0.843-1.817,1.719-2.426,2.386c-0.294,0.339-0.577,0.598-0.758,0.789
								c-0.183,0.191-0.286,0.298-0.286,0.298l-1.684,2.568c0.477-0.438,1.353-0.831,2.527-1.116
								c1.159-0.294,2.684-0.445,4.273-0.488c1.611-0.019,3.585-1.35,4.736-2.915C444.826,167.537,444.978,165.733,443.248,164.991z
								"/>
						</g>
						<g>
							<path d="M432.823,160.439c-1.758-0.755-2.749,0.294-3.154,1.808c-0.46,1.487-0.275,3.548,0.62,4.885
								c0.926,1.343,1.427,2.613,1.73,3.756c0.289,1.134,0.315,2.102,0.127,2.728l1.564-2.637c0,0,0.05-0.137,0.139-0.383
								c0.083-0.247,0.218-0.589,0.312-1.036c0.208-0.883,0.448-2.072,0.571-3.295c0.062-0.612,0.095-1.232,0.082-1.828
								c-0.029-0.604-0.137-1.199-0.284-1.728C434.229,161.648,433.693,160.818,432.823,160.439z"/>
						</g>
					</g>
					<g>
						<g>
							<path d="M437.6,175.674c-1.637-1.011-4.02,0.372-6.225,1.706c-1.076,0.693-2.044,1.436-2.742,2.008
								c-0.739,0.539-1.207,0.91-1.207,0.91l-2.035,2.3c1.059-0.733,3.708-1.037,6.965-0.579c1.594,0.218,3.736-0.809,5.099-2.19
								c0.703-0.672,1.094-1.499,1.173-2.231C438.698,176.855,438.404,176.178,437.6,175.674z"/>
						</g>
						<g>
							<path d="M427.969,169.622c-0.804-0.504-1.504-0.531-2.069-0.256c-0.576,0.269-0.968,0.879-1.328,1.57
								c-0.67,1.408-0.787,3.479-0.098,4.936c1.34,2.852,1.422,5.492,0.875,6.687l1.927-2.385c0,0,0.295-0.514,0.67-1.326
								c0.334-0.844,0.743-1.987,1.043-3.182C429.654,173.306,429.562,170.603,427.969,169.622z"/>
						</g>
					</g>
					<g>
						<g>
							<path d="M430.435,185.397c-0.721-0.617-1.748-0.679-2.861-0.451c-0.279,0.057-0.562,0.134-0.85,0.222
								c-0.3,0.078-0.603,0.171-0.906,0.273c-0.606,0.206-1.213,0.454-1.794,0.719c-1.169,0.523-2.21,1.142-3.012,1.576
								c-0.815,0.419-1.327,0.723-1.327,0.723l-2.342,1.986c1.157-0.567,3.796-0.505,6.972,0.453
								c1.55,0.457,3.807-0.255,5.355-1.423c0.382-0.294,0.731-0.603,0.986-0.947c0.248-0.351,0.427-0.714,0.515-1.075
								C431.347,186.729,431.155,186.014,430.435,185.397z"/>
						</g>
						<g>
							<path d="M421.804,177.987c-0.721-0.617-1.408-0.747-2.005-0.556c-0.299,0.096-0.577,0.273-0.828,0.512
								c-0.259,0.233-0.515,0.506-0.73,0.835c-0.867,1.298-1.276,3.342-0.815,4.879c0.882,2.994,0.6,5.647-0.12,6.746l2.247-2.086
								c0,0,0.362-0.471,0.857-1.214c0.481-0.758,1.029-1.855,1.505-2.988c0.235-0.571,0.444-1.158,0.603-1.735
								c0.079-0.289,0.146-0.575,0.196-0.856c0.04-0.291,0.06-0.579,0.065-0.856C422.798,179.558,422.525,178.604,421.804,177.987z"
								/>
						</g>
					</g>
					<g>
						<g>
							<path d="M421.914,193.956c-0.622-0.717-1.626-0.927-2.758-0.863c-1.145,0.052-2.48,0.305-3.698,0.67
								c-0.612,0.179-1.203,0.378-1.743,0.575c-0.271,0.103-0.529,0.201-0.77,0.293c-0.252,0.085-0.488,0.164-0.704,0.237
								c-0.866,0.298-1.415,0.525-1.415,0.525l-2.602,1.63c1.225-0.394,3.82,0.049,6.817,1.459c1.493,0.72,3.804,0.311,5.509-0.613
								C422.278,196.973,423.15,195.365,421.914,193.956z"/>
						</g>
						<g>
							<path d="M414.471,185.354c-1.266-1.446-2.573-0.878-3.647,0.249c-1.05,1.152-1.729,3.152-1.527,4.7
								c0.434,3.097-0.232,5.686-1.103,6.672l2.523-1.743c0,0,0.426-0.415,1.023-1.08c0.148-0.167,0.311-0.346,0.474-0.546
								c0.151-0.209,0.313-0.433,0.482-0.667c0.328-0.468,0.665-0.98,0.979-1.512c0.623-1.072,1.182-2.19,1.37-3.273
								C415.224,187.056,415.093,186.07,414.471,185.354z"/>
						</g>
					</g>
					<g>
						<g>
							<path d="M412.222,201.165c-0.51-0.802-1.469-1.153-2.598-1.257c-1.161-0.153-2.501-0.068-3.762,0.108
								c-1.264,0.172-2.435,0.47-3.35,0.608c-0.899,0.169-1.475,0.314-1.475,0.314l-2.81,1.236c1.268-0.212,3.765,0.605,6.518,2.439
								C407.437,206.487,414.346,204.455,412.222,201.165z"/>
						</g>
						<g>
							<path d="M406.133,191.557c-1.027-1.598-2.426-1.268-3.648-0.303c-0.602,0.503-1.143,1.212-1.539,2.001
								c-0.198,0.394-0.359,0.808-0.47,1.225c-0.122,0.397-0.193,0.799-0.197,1.191c-0.027,3.132-1.068,5.601-2.074,6.45l2.749-1.36
								c0,0,0.482-0.349,1.17-0.921c0.704-0.541,1.542-1.441,2.322-2.399c0.777-0.964,1.477-2.018,1.844-3.026
								C406.628,193.356,406.641,192.357,406.133,191.557z"/>
						</g>
					</g>
					<g>
						<g>
							<path d="M445.842,106.758c-0.9,0.302-1.48,1.153-1.857,2.226c-0.392,1.08-0.653,2.408-0.774,3.672
								c-0.069,0.634-0.091,1.251-0.132,1.83c-0.051,0.582-0.083,1.117-0.102,1.573c-0.038,0.91-0.027,1.503-0.027,1.503
								c0.09,0.504,0.203,1.004,0.275,1.51l0.196,1.523c0.062-0.645,0.515-1.534,1.155-2.525c0.653-0.993,1.597-2.109,2.807-3.219
								C449.923,112.668,449.504,105.498,445.842,106.758z"/>
						</g>
						<g>
							<path d="M435.054,110.365c-1.814,0.618-1.814,2.05-1.163,3.465c0.346,0.704,0.906,1.399,1.578,1.972
								c0.67,0.573,1.384,1.041,2.159,1.235c1.529,0.39,2.838,0.979,3.84,1.623c1.015,0.641,1.618,1.354,1.896,1.944l-0.264-1.51
								c-0.094-0.502-0.229-0.996-0.342-1.494c0,0-0.232-0.55-0.636-1.352c-0.202-0.401-0.447-0.865-0.727-1.354
								c-0.29-0.486-0.654-0.988-1.025-1.481c-0.759-0.983-1.594-1.921-2.519-2.509
								C436.911,110.318,435.954,110.063,435.054,110.365z"/>
						</g>
					</g>
					<g>
						<g>
							<path d="M441.553,96.369c-0.849,0.424-1.318,1.353-1.559,2.476c-0.243,1.127-0.231,2.438-0.233,3.732
								c0.023,1.283,0.155,2.496,0.265,3.394c0.071,0.913,0.154,1.502,0.154,1.502c0.304,0.978,0.628,1.949,0.914,2.931
								c-0.056-1.291,1.018-3.692,3.124-6.24c1.016-1.246,1.277-3.621,0.8-5.501C444.466,96.816,443.247,95.512,441.553,96.369z"/>
						</g>
						<g>
							<path d="M431.37,101.439c-1.694,0.856-1.591,2.321-0.655,3.588c0.86,1.3,2.545,2.487,4.148,2.658
								c3.115,0.348,5.46,1.64,6.177,2.736c-0.33-0.967-0.698-1.922-1.044-2.883c0,0-0.294-0.516-0.789-1.261
								c-0.533-0.73-1.297-1.675-2.152-2.556c-0.832-0.893-1.874-1.667-2.867-2.123C433.191,101.14,432.219,101.015,431.37,101.439z
								"/>
						</g>
					</g>
					<g>
						<g>
							<path d="M435.863,86.681c-0.793,0.545-1.076,1.493-1.192,2.66c-0.1,1.159,0.048,2.485,0.284,3.729
								c0.227,1.251,0.461,2.471,0.697,3.344c0.225,0.88,0.406,1.442,0.406,1.442c0.438,0.926,0.846,1.866,1.27,2.797
								c-0.226-1.275,0.57-3.835,2.224-6.609C441.373,91.259,439.05,84.459,435.863,86.681z"/>
						</g>
						<g>
							<path d="M426.478,93.109c-0.786,0.539-1.073,1.16-1.054,1.793c0.007,0.643,0.341,1.29,0.877,1.867
								c1.106,1.126,2.88,2.102,4.476,2.058c3.212-0.127,5.647,0.859,6.5,1.85c-0.465-0.911-0.914-1.829-1.392-2.731
								c0,0-0.382-0.461-1.002-1.115c-0.631-0.648-1.454-1.515-2.45-2.253c-1.006-0.733-2.101-1.384-3.133-1.709
								C428.282,92.534,427.249,92.579,426.478,93.109z"/>
						</g>
					</g>
					<g>
						<g>
							<path d="M428.884,77.881c-1.413,1.306-0.743,3.993-0.027,6.457c0.379,1.222,0.867,2.33,1.172,3.2
								c0.327,0.853,0.574,1.392,0.574,1.392c0.574,0.848,1.164,1.684,1.669,2.577c-0.095-0.313-0.137-0.712-0.125-1.184
								c0.001-0.465,0.041-0.992,0.143-1.582c0.201-1.176,0.619-2.584,1.281-4.092c0.699-1.524,0.227-3.82-0.731-5.508
								C431.847,77.481,430.268,76.605,428.884,77.881z"/>
						</g>
						<g>
							<path d="M420.472,85.537c-1.408,1.297-0.857,2.634,0.349,3.634c1.17,1.028,3.191,1.653,4.717,1.425
								c1.551-0.258,2.979-0.245,4.15-0.058c0.584,0.095,1.11,0.227,1.54,0.397c0.42,0.177,0.757,0.383,0.997,0.602
								c-0.543-0.867-1.17-1.676-1.78-2.495c0,0-0.431-0.412-1.119-0.987c-0.666-0.592-1.688-1.269-2.758-1.878
								c-1.072-0.609-2.223-1.123-3.33-1.267C422.147,84.749,421.173,84.897,420.472,85.537z"/>
						</g>
					</g>
					<g>
						<path d="M426.902,84.285c0,0-0.101-0.081-0.283-0.227c-0.178-0.15-0.445-0.358-0.792-0.602
							c-0.676-0.5-1.609-1.191-2.642-1.955c-1.033-0.761-2.231-1.529-3.312-2.322c-0.535-0.403-1.094-0.758-1.608-1.107
							c-0.513-0.349-0.987-0.687-1.402-1.004c-0.417-0.314-0.769-0.639-1.088-0.944c-0.326-0.295-0.602-0.589-0.831-0.879
							c-0.459-0.579-0.737-1.141-0.868-1.65c-0.262-1.018,0.062-1.824,0.737-2.102c0.674-0.279,1.743,0.081,2.903,0.775
							c0.29,0.173,0.585,0.367,0.881,0.577c0.287,0.22,0.567,0.465,0.846,0.716c0.556,0.504,1.093,1.05,1.573,1.597
							c0.238,0.276,0.53,0.608,0.831,1.006c0.287,0.406,0.608,0.858,0.946,1.336c0.326,0.476,0.67,0.978,1.016,1.484l0.508,0.756
							c0.155,0.261,0.308,0.521,0.459,0.776c0.587,1.011,1.132,1.949,1.529,2.634c0.2,0.336,0.345,0.623,0.442,0.824
							C426.847,84.174,426.902,84.285,426.902,84.285z"/>
						<path d="M426.902,84.466c-0.04,0-0.08-0.013-0.113-0.04l-0.283-0.227c-0.203-0.172-0.479-0.382-0.783-0.595l-2.646-1.957
							c-0.517-0.381-1.089-0.772-1.642-1.151c-0.555-0.381-1.129-0.774-1.669-1.17c-0.389-0.293-0.79-0.56-1.178-0.818l-0.426-0.285
							c-0.537-0.366-1.012-0.705-1.41-1.01c-0.426-0.321-0.782-0.65-1.104-0.957c-0.32-0.289-0.607-0.592-0.848-0.897
							c-0.45-0.57-0.754-1.147-0.901-1.718c-0.278-1.081,0.054-1.989,0.844-2.314c0.853-0.354,2.139,0.233,3.065,0.787
							c0.284,0.17,0.585,0.366,0.893,0.584c0.31,0.239,0.609,0.502,0.862,0.729c0.552,0.5,1.101,1.057,1.589,1.613l0.084,0.097
							c0.227,0.263,0.484,0.562,0.756,0.919l2.476,3.584l0.464,0.785l1.53,2.635c0.158,0.264,0.305,0.539,0.449,0.837l0.153,0.307
							c0.038,0.076,0.018,0.169-0.048,0.222C426.983,84.453,426.943,84.466,426.902,84.466z M415.338,71.581
							c-0.172,0-0.325,0.026-0.455,0.08c-0.614,0.253-0.861,0.994-0.631,1.89c0.134,0.521,0.416,1.053,0.835,1.583
							c0.229,0.289,0.502,0.577,0.811,0.857c0.318,0.303,0.665,0.623,1.075,0.934c0.395,0.301,0.863,0.637,1.395,0.999l0.422,0.283
							c0.392,0.261,0.798,0.531,1.193,0.829c0.534,0.391,1.106,0.783,1.659,1.162c0.556,0.381,1.13,0.774,1.652,1.159l2.642,1.955
							c0.152,0.107,0.298,0.214,0.432,0.316c-0.062-0.116-0.134-0.245-0.217-0.382l-1.989-3.411l-1.517-2.229L421.7,76.27
							c-0.261-0.343-0.514-0.637-0.738-0.896l-0.083-0.096c-0.477-0.544-1.016-1.091-1.558-1.581
							c-0.247-0.222-0.539-0.48-0.834-0.707c-0.295-0.209-0.588-0.4-0.863-0.565C416.696,71.87,415.907,71.581,415.338,71.581z"/>
					</g>
				</g>
			</g>
			<path d="M423.751,152.872c-0.897,0.059-0.949-0.563-1.097-1.166c-3.861-15.678-7.731-31.353-11.587-47.032
				c-0.352-1.433-1.023-2.873-0.141-4.36c0.086-0.145,0.023-0.37,0.077-0.543c0.114-0.363,0.202-0.755,0.406-1.066
				c0.566-0.861,0.609-1.867,0.044-2.686c-0.531-0.769-1.47-1.09-2.45-0.897c-3.021,0.594-6.051,1.147-9.069,1.757
				c-4.864,0.982-9.472,0.469-13.859-2.007c-2.757-1.556-5.811-2.388-8.924-2.909c-1.698-0.284-3.42-0.421-5.159-0.613l3.251-6.316
				c0.123-0.239,0.121-0.524-0.005-0.761l-5.375-10.092c-0.307-0.577-1.133-0.58-1.445-0.006l-5.479,10.08
				c-0.134,0.247-0.133,0.546,0.004,0.791l3.525,6.324c-0.157,0.023-0.298,0.043-0.439,0.057c-1.624,0.16-3.259,0.247-4.872,0.487
				c-4.039,0.601-7.757,2.155-11.392,3.949c-2.425,1.197-5.01,1.838-7.708,1.436c-4.292-0.639-8.564-1.413-12.84-2.155
				c-0.984-0.171-1.867-0.079-2.508,0.74c-0.569,0.728-0.796,1.618-0.272,2.416c0.441,0.672,0.696,1.328,0.703,2.117
				c0.002,0.236,0.165,0.468,0.195,0.709c0.065,0.523,0.232,1.085,0.114,1.571c-2.443,10.028-4.922,20.046-7.389,30.068
				c-1.569,6.374-3.129,12.75-4.691,19.125c-0.127,0.519-0.214,1.011-0.969,0.961c-0.19-0.013-0.581,0.415-0.582,0.641
				c-0.002,0.552,0.097,1.553,0.285,1.584c1.186,0.195,0.962,1.16,1.134,1.85c0.391,1.559,0.821,1.958,2.395,1.959
				c7.063,0.001,14.127,0.002,21.19-0.001c2.336-0.001,2.479-0.121,3.009-2.432c0.048-0.21,0.063-0.445,0.171-0.62
				c0.142-0.229,0.326-0.518,0.553-0.591c1.063-0.344,0.481-1.191,0.56-1.801c0.078-0.602-0.442-0.667-0.896-0.622
				c-0.61,0.062-0.921-0.178-0.98-0.79c-0.023-0.242-0.116-0.478-0.175-0.717c-3.94-15.974-7.881-31.947-11.814-47.923
				c-0.208-0.846-0.589-1.703,0.068-2.555c0.149-0.193,0.118-0.533,0.148-0.808c0.117-1.044,0.958-1.622,1.964-1.371
				c3.018,0.752,6.02,1.581,9.063,2.215c4.229,0.881,8.44,0.916,12.567-0.673c1.144-0.44,2.364-0.698,3.567-0.956
				c0.363-0.078,0.871,0.008,1.168,0.22c0.757,0.543,1.546,1.01,2.368,1.405c0.012,4.212,2.844,7.759,6.706,8.858
				c0.006,0.076,0.016,0.146,0.033,0.207v7.109c-0.016,0.251-0.031,0.51-0.031,0.77c-0.002,10.672,0.004,21.344-0.017,32.017
				c-0.001,0.384-0.154,0.864-0.411,1.134c-1.105,1.163-1.704,2.547-2.005,4.09c-0.421,2.154-0.09,4.22,0.802,6.263
				c-0.942,0.49-1.546,1.168-1.584,2.244c-0.04,1.122,0.621,1.801,1.512,2.381c-1.595,1.624-1.934,3.675-2.194,5.724
				c-0.275,2.17-0.447,4.354-0.618,6.536c-0.065,0.824-0.341,1.222-1.241,1.107c-0.637-0.082-1.295-0.037-1.941-0.005
				c-0.993,0.05-1.751,0.636-1.746,1.562c0.002,0.397-0.072,0.64-0.215,0.79H342.28c-1.132,0-2.05,0.918-2.05,2.05
				c0,1.132,0.918,2.05,2.05,2.05h53.661c1.132,0,2.05-0.918,2.05-2.05c0-1.132-0.918-2.05-2.05-2.05h-14.9
				c-0.021-0.126-0.035-0.207-0.04-0.288c-0.09-1.458-0.703-2.057-2.138-2.074c-0.617-0.007-1.238-0.049-1.849,0.009
				c-0.687,0.065-0.924-0.219-0.977-0.871c-0.157-1.966-0.315-3.933-0.551-5.891c-0.284-2.352-0.539-4.731-2.262-6.595
				c1.992-1.331,2.023-3.354-0.095-4.685c0.125-0.331,0.272-0.665,0.38-1.012c0.98-3.148,0.866-6.179-1.27-8.839
				c-0.574-0.715-0.789-1.355-0.792-2.226c-0.029-9.13,0.021-29.132,0.018-39.339c4.111-0.937,7.179-4.612,7.179-9.006
				c0-0.091-0.004-0.18-0.007-0.27c0.611-0.325,1.206-0.693,1.784-1.108c0.27-0.194,0.745-0.261,1.077-0.182
				c1.467,0.348,2.951,0.676,4.367,1.184c3.077,1.104,6.243,1.312,9.394,0.741c3.813-0.69,7.575-1.666,11.352-2.549
				c0.545-0.127,1.035-0.273,1.359,0.315c0.251,0.454,0.544,0.92,0.641,1.416c0.158,0.806,0.615,1.492,0.363,2.465
				c-1.647,6.351-3.177,12.733-4.747,19.104c-2.448,9.934-4.905,19.866-7.332,29.804c-0.176,0.72-0.361,1.204-1.237,1.079
				c-0.209-0.03-0.556,0.16-0.669,0.35c-0.39,0.66,0.013,1.709,0.702,2.073c0.161,0.085,0.301,0.298,0.356,0.48
				c0.133,0.441,0.214,0.899,0.308,1.351c0.152,0.73,0.378,1.191,0.77,1.464h1.624v0.009h22.543v-0.049c0.004,0,0.008,0,0.012,0
				c1.019,0.071,1.294-0.484,1.438-1.289c0.06-0.333,0.123-0.668,0.209-0.995c0.128-0.484,0.13-0.984,0.873-1.117
				c0.223-0.04,0.352-0.977,0.388-1.513C424.226,153.357,423.898,152.862,423.751,152.872z M327.837,152.742H315.97
				c3.903-15.849,7.794-31.646,11.685-47.443c0.061,0.009,0.122,0.019,0.182,0.028V152.742z M327.812,99.651
				c1.032,0.071,1.084,0.282,0.389,1.539C328.05,100.591,327.944,100.173,327.812,99.651z M340.596,152.754
				c-0.395,0.023-0.665,0.053-0.934,0.053c-3.36,0.003-6.721-0.02-10.081,0.018c-0.746,0.008-0.928-0.231-0.927-0.947
				c0.018-15.291,0.013-30.583,0.014-45.874c0-0.228,0.034-0.457,0.237-0.71C332.795,121.086,336.685,136.879,340.596,152.754z
				 M327.309,97.398c0.199-0.302,0.364-0.813,0.704-0.993c0.293-0.155,0.937-0.074,1.152,0.157c0.284,0.305,0.301,0.859,0.428,1.289
				C328.753,97.684,328.131,97.561,327.309,97.398z M408.581,97.802c0.025-0.271-0.08-0.809,0.141-1.068
				c0.237-0.278,0.85-0.489,1.172-0.374c0.374,0.134,0.611,0.654,0.908,1.007C409.931,97.537,409.361,97.649,408.581,97.802z
				 M409.387,106.381c-0.001,15.074-0.002,30.147-0.003,45.221c0,1.205-0.002,1.207-1.191,1.207c-3.206,0.001-6.412,0-9.617,0
				c-0.329,0-0.658,0-1.13,0c3.923-15.93,7.811-31.716,11.699-47.501c0.081,0.009,0.161,0.017,0.242,0.026
				C409.387,105.683,409.387,106.032,409.387,106.381z M409.598,100.993c-0.066-0.389-0.173-0.779-0.167-1.167
				c0.001-0.082,0.408-0.16,0.817-0.308c-0.132,0.631-0.22,1.05-0.308,1.47L409.598,100.993z M414.782,152.811
				c-1.265,0-2.53-0.027-3.794,0.014c-0.649,0.021-0.844-0.207-0.838-0.849c0.028-3.115,0.013-6.231,0.012-9.346
				c-0.003-12.277-0.007-24.553-0.009-36.83c0-0.152,0.017-0.304,0.245-0.501c3.888,15.78,7.776,31.56,11.707,47.513
				C419.523,152.811,417.152,152.811,414.782,152.811z"/>
		</g>
	</g>
</g>
<g id="Flag">
	<g>
		<g>
			
				<rect x="43.895" y="61.92" style="fill:#263238;stroke:#263238;stroke-linecap:round;stroke-linejoin:round;stroke-miterlimit:10;" width="4.352" height="380.057"/>
			<polygon style="fill:#D6D6D6;stroke:#263238;stroke-linecap:round;stroke-linejoin:round;stroke-miterlimit:10;" points="
				81.122,441.977 45.853,71.929 15.234,437.31 20.907,441.977 			"/>
			<polygon style="fill:#FFFFFF;stroke:#263238;stroke-linecap:round;stroke-linejoin:round;stroke-miterlimit:10;" points="
				84.097,441.977 73.947,297.033 26.925,372.83 69.889,441.977 			"/>
			<polygon style="fill:#FFFFFF;stroke:#263238;stroke-linecap:round;stroke-linejoin:round;stroke-miterlimit:10;" points="
				86.975,337.584 26.925,372.83 45.853,71.929 			"/>
			<g>
				<polygon style="fill:#FFFFFF;stroke:#263238;stroke-linecap:round;stroke-linejoin:round;stroke-miterlimit:10;" points="
					45.853,71.929 86.975,337.584 54.991,316.044 				"/>
				<polygon style="fill:#D6D6D6;stroke:#263238;stroke-linecap:round;stroke-linejoin:round;stroke-miterlimit:10;" points="
					54.991,316.044 70.004,290.588 52.381,258.605 				"/>
				<polygon style="fill:#FFFFFF;stroke:#263238;stroke-linecap:round;stroke-linejoin:round;stroke-miterlimit:10;" points="
					45.853,71.929 20.398,260.563 70.004,290.588 				"/>
			</g>
			<polygon style="fill:#263238;stroke:#263238;stroke-linecap:round;stroke-linejoin:round;stroke-miterlimit:10;" points="
				43.895,61.92 38.287,52.052 46.362,36.225 54.437,52.698 48.247,61.92 			"/>
		</g>
	</g>
</g>
<g id="Speech_Bubble">
	<g>
		<path style="fill:#263238;stroke:#263238;stroke-miterlimit:10;" d="M294.522,85.497h-129.79c-7.463,0-13.513,6.05-13.513,13.514
			v51.382c0,7.463,6.05,13.514,13.513,13.514h69.169l17.324,28.411l-0.646-28.411h43.943c7.463,0,13.514-6.05,13.514-13.514V99.011
			C308.035,91.548,301.985,85.497,294.522,85.497z"/>
		<path style="fill:#FFFFFF;stroke:#263238;stroke-miterlimit:10;" d="M290.306,79.596h-129.79c-7.463,0-13.514,6.05-13.514,13.513
			v51.382c0,7.463,6.05,13.514,13.514,13.514h69.169l17.324,28.411l-0.646-28.411h43.943c7.463,0,13.514-6.05,13.514-13.514V93.11
			C303.82,85.646,297.77,79.596,290.306,79.596z"/>
	</g>
</g>
<g id="Text">
	<g>
		<path style="fill:#263238;" d="M182.09,133.201c-1.936,0-3.463-0.404-4.582-1.21c-1.118-0.806-1.913-1.941-2.385-3.405
			c-0.473-1.464-0.709-3.152-0.709-5.065v-9.404c0-1.982,0.254-3.699,0.761-5.151c0.507-1.452,1.377-2.576,2.61-3.371
			c1.233-0.795,2.91-1.193,5.031-1.193c2.074,0,3.705,0.345,4.892,1.037c1.187,0.691,2.034,1.648,2.541,2.869
			c0.507,1.222,0.76,2.651,0.76,4.287v1.798h-6.051v-2.282c0-0.599-0.04-1.152-0.121-1.66c-0.081-0.507-0.266-0.916-0.553-1.228
			c-0.289-0.311-0.755-0.467-1.4-0.467c-0.669,0-1.153,0.179-1.452,0.536c-0.3,0.358-0.49,0.801-0.57,1.331
			c-0.081,0.531-0.121,1.084-0.121,1.66v12.965c0,0.622,0.063,1.205,0.19,1.746c0.126,0.542,0.357,0.98,0.692,1.314
			c0.334,0.335,0.812,0.501,1.434,0.501c0.645,0,1.141-0.173,1.487-0.519c0.346-0.346,0.588-0.795,0.726-1.349
			c0.138-0.553,0.207-1.141,0.207-1.763v-3.285h-2.524v-3.63h8.09v14.521h-4.08l-0.345-2.317c-0.369,0.784-0.911,1.435-1.625,1.954
			C184.28,132.941,183.312,133.201,182.09,133.201z"/>
		<path style="fill:#263238;" d="M203.007,133.201c-2.143,0-3.82-0.352-5.031-1.055c-1.21-0.703-2.057-1.729-2.541-3.077
			c-0.484-1.348-0.726-3.002-0.726-4.962V104.78h6.12v20.261c0,0.576,0.046,1.153,0.138,1.729c0.092,0.576,0.294,1.049,0.605,1.418
			c0.311,0.369,0.79,0.553,1.435,0.553c0.668,0,1.152-0.184,1.452-0.553c0.299-0.369,0.49-0.841,0.57-1.418
			c0.08-0.576,0.121-1.152,0.121-1.729V104.78h6.155v19.327c0,1.959-0.248,3.613-0.744,4.962c-0.496,1.348-1.343,2.374-2.541,3.077
			C206.822,132.849,205.151,133.201,203.007,133.201z"/>
		<path style="fill:#263238;" d="M215.281,132.786V104.78h6.189v28.006H215.281z"/>
		<path style="fill:#263238;" d="M225.654,132.786V104.78h6.189v23.822h6.431v4.183H225.654z"/>
		<path style="fill:#263238;" d="M241.558,132.786v-23.407h-4.219v-4.599h14.626v4.599h-4.184v23.407H241.558z"/>
		<path style="fill:#263238;" d="M257.946,132.786v-11.444l-5.325-16.561h5.843l2.663,8.851l2.385-8.851h5.602l-5.221,16.561v11.444
			H257.946z"/>
		<path style="fill:#263238;" d="M270.704,132.786v-5.255h5.324v5.255H270.704z M272.432,125.663l-1.624-20.814h5.601l-2.04,20.814
			H272.432z"/>
	</g>
</g>
<g id="Seat">
	<g>
		<path style="fill:#263238;stroke:#263238;stroke-miterlimit:10;" d="M302.524,283.487h151.603c0,0,6.62,3.089,7.061,17.211
			c0.441,14.122-5.296,22.507-9.709,25.155c-4.413,2.648-7.061,2.648-8.385,5.296c-1.324,2.648-4.854,29.568,0,57.37
			c4.854,27.803,4.854,53.398,4.854,53.398H263.481c0,0,5.61-17.396,5.515-39.717c-0.167-39.292-5.765-94.849-3.181-104.829
			C269.867,281.722,302.524,283.487,302.524,283.487z"/>
		<path style="fill:none;stroke:#828282;stroke-linecap:round;stroke-miterlimit:10;" d="M431.92,314.353
			c-3.265,19.81-0.121,39.369,1.906,60.045c1.485,15.145,10.15,52.075,7.061,63.99"/>
		<path style="fill:none;stroke:#828282;stroke-linecap:round;stroke-miterlimit:10;" d="M443.811,289.5
			c-3.917,3.034-8.44,8.771-10.867,19.583c-0.11,0.49-0.216,0.98-0.317,1.47"/>
		<path style="fill:none;stroke:#828282;stroke-linecap:round;stroke-miterlimit:10;" d="M451.038,286.135
			c0,0-0.828,0.083-2.145,0.545"/>
		<g>
			<path style="fill:none;stroke:#828282;stroke-linecap:round;stroke-miterlimit:10;" d="M403.106,342.33
				c0,0-4.311,10.537-0.479,18.201"/>
			<path style="fill:none;stroke:#828282;stroke-linecap:round;stroke-miterlimit:10;" d="M404.543,369.631
				c0,0-2.874,4.79,0.479,12.453"/>
			<path style="fill:none;stroke:#828282;stroke-linecap:round;stroke-miterlimit:10;" d="M389.216,364.362
				c0,0,3.353,3.353,11.016,1.437"/>
			<path style="fill:none;stroke:#828282;stroke-linecap:round;stroke-miterlimit:10;" d="M407.417,365.799
				c0,0,5.269,2.395,11.974,0"/>
		</g>
		<g>
			<path style="fill:none;stroke:#828282;stroke-linecap:round;stroke-miterlimit:10;" d="M352.985,342.33
				c0,0-4.311,10.537-0.479,18.201"/>
			<path style="fill:none;stroke:#828282;stroke-linecap:round;stroke-miterlimit:10;" d="M354.422,369.631
				c0,0-2.874,4.79,0.479,12.453"/>
			<path style="fill:none;stroke:#828282;stroke-linecap:round;stroke-miterlimit:10;" d="M339.095,364.362
				c0,0,3.353,3.353,11.016,1.437"/>
			<path style="fill:none;stroke:#828282;stroke-linecap:round;stroke-miterlimit:10;" d="M357.296,365.799
				c0,0,5.269,2.395,11.974,0"/>
		</g>
		<g>
			<path style="fill:none;stroke:#828282;stroke-linecap:round;stroke-miterlimit:10;" d="M302.864,342.33
				c0,0-4.311,10.537-0.479,18.201"/>
			<path style="fill:none;stroke:#828282;stroke-linecap:round;stroke-miterlimit:10;" d="M304.301,369.631
				c0,0-2.874,4.79,0.479,12.453"/>
			<path style="fill:none;stroke:#828282;stroke-linecap:round;stroke-miterlimit:10;" d="M288.974,364.362
				c0,0,3.353,3.353,11.016,1.437"/>
			<path style="fill:none;stroke:#828282;stroke-linecap:round;stroke-miterlimit:10;" d="M307.175,365.799
				c0,0,5.269,2.395,11.974,0"/>
		</g>
		<g>
			<path style="fill:none;stroke:#828282;stroke-linecap:round;stroke-miterlimit:10;" d="M403.106,397.858
				c0,0-4.311,10.537-0.479,18.201"/>
			<path style="fill:none;stroke:#828282;stroke-linecap:round;stroke-miterlimit:10;" d="M404.543,425.159
				c0,0-2.874,4.79,0.479,12.453"/>
			<path style="fill:none;stroke:#828282;stroke-linecap:round;stroke-miterlimit:10;" d="M389.216,419.89
				c0,0,3.353,3.353,11.016,1.437"/>
			<path style="fill:none;stroke:#828282;stroke-linecap:round;stroke-miterlimit:10;" d="M407.417,421.327
				c0,0,5.269,2.395,11.974,0"/>
		</g>
		<g>
			<path style="fill:none;stroke:#828282;stroke-linecap:round;stroke-miterlimit:10;" d="M352.985,397.858
				c0,0-4.311,10.537-0.479,18.201"/>
			<path style="fill:none;stroke:#828282;stroke-linecap:round;stroke-miterlimit:10;" d="M354.422,425.159
				c0,0-2.874,4.79,0.479,12.453"/>
			<path style="fill:none;stroke:#828282;stroke-linecap:round;stroke-miterlimit:10;" d="M339.095,419.89
				c0,0,3.353,3.353,11.016,1.437"/>
			<path style="fill:none;stroke:#828282;stroke-linecap:round;stroke-miterlimit:10;" d="M357.296,421.327
				c0,0,5.269,2.395,11.974,0"/>
		</g>
		<g>
			<path style="fill:none;stroke:#828282;stroke-linecap:round;stroke-miterlimit:10;" d="M302.864,397.858
				c0,0-4.311,10.537-0.479,18.201"/>
			<path style="fill:none;stroke:#828282;stroke-linecap:round;stroke-miterlimit:10;" d="M304.301,425.159
				c0,0-2.874,4.79,0.479,12.453"/>
			<path style="fill:none;stroke:#828282;stroke-linecap:round;stroke-miterlimit:10;" d="M288.974,419.89
				c0,0,3.353,3.353,11.016,1.437"/>
			<path style="fill:none;stroke:#828282;stroke-linecap:round;stroke-miterlimit:10;" d="M307.175,421.327
				c0,0,5.269,2.395,11.974,0"/>
		</g>
	</g>
</g>
<g id="Character">
	<g>
		<g>
			<path style="fill:#92E3A9;stroke:#263238;stroke-miterlimit:10;" d="M253.899,284.407c0,0-31.844,12.079-33.491,12.079
				c-1.647,0-20.863-3.843-24.157-3.843c-3.294,0-9.882,1.098-9.882,1.098s-11.529-10.431-23.608-8.235
				c-12.079,2.196-104.864,70.275-105.962,76.314c-1.098,6.039-14.824,80.158-14.824,80.158h407.377
				c0,0-16.471-66.432-21.412-76.315c-4.941-9.882-19.765-28.549-23.059-35.687c-3.294-7.137-18.118-14.824-24.706-15.373
				c-6.588-0.549-36.236-3.294-36.236-3.294s-14.275-5.49-16.471-6.588c-2.196-1.098-14.13-10.18-14.13-10.18L253.899,284.407z"/>
			<path style="fill:#263238;stroke:#263238;stroke-linecap:round;stroke-miterlimit:10;" d="M439.277,441.7
				c0,0-11.61-45.386-27.97-57.524c-16.36-12.138-41.164,0-55.94,14.249s-20.054,42.747-20.054,42.747L439.277,441.7z"/>
			<path style="fill:#263238;stroke:#263238;stroke-linecap:round;stroke-miterlimit:10;" d="M125.799,440.645
				c0,0-3.694-75.467-14.777-89.188c-11.083-13.721-38.525,9.499-45.913,25.859c-7.388,16.36-17.415,63.857-17.415,63.857
				L125.799,440.645z"/>
			<g>
				<path style="fill:none;stroke:#263238;stroke-linecap:round;stroke-miterlimit:10;" d="M340.874,391.997
					c-5.071,5.712-11.759,13.848-18.205,23.518c-12.87,19.304-22.844,22.843-24.13,23.487"/>
				<path style="fill:none;stroke:#263238;stroke-linecap:round;stroke-miterlimit:10;" d="M349.374,383.019
					c0,0-1.435,1.368-3.811,3.868"/>
				<path style="fill:none;stroke:#263238;stroke-linecap:round;stroke-miterlimit:10;" d="M384.621,373.766
					c0,0,18.805-7.799,33.283,2.496"/>
				<path style="fill:none;stroke:#263238;stroke-linecap:round;stroke-miterlimit:10;" d="M143,401.587
					c0.687,3.8,1.282,7.509,1.747,11.032"/>
				<path style="fill:none;stroke:#263238;stroke-linecap:round;stroke-miterlimit:10;" d="M128.016,341.193
					c0,0,8.536,27.956,13.79,54.148"/>
				
					<line style="fill:none;stroke:#263238;stroke-linecap:round;stroke-miterlimit:10;" x1="181.747" y1="306.123" x2="158.26" y2="348.914"/>
				
					<line style="fill:none;stroke:#263238;stroke-linecap:round;stroke-miterlimit:10;" x1="175.976" y1="360.369" x2="174.347" y2="370.471"/>
				
					<line style="fill:none;stroke:#263238;stroke-linecap:round;stroke-miterlimit:10;" x1="183.999" y1="310.627" x2="177.083" y2="353.508"/>
				<path style="fill:none;stroke:#263238;stroke-linecap:round;stroke-miterlimit:10;" d="M229.136,390.416
					c0.222,4.884,0.527,9.43,0.933,13.443"/>
				<path style="fill:none;stroke:#263238;stroke-linecap:round;stroke-miterlimit:10;" d="M230.07,305.515
					c0,0-2.3,46.87-1.096,80.866"/>
				<path style="fill:none;stroke:#263238;stroke-linecap:round;stroke-miterlimit:10;" d="M330.866,331.488
					c0.16,1.917,0.295,3.961,0.393,6.131"/>
				<path style="fill:none;stroke:#263238;stroke-linecap:round;stroke-miterlimit:10;" d="M327.196,310.391
					c0,0,1.971,5.667,3.228,16.618"/>
			</g>
		</g>
		<path style="fill:#FFFFFF;stroke:#263238;stroke-miterlimit:10;" d="M251.635,296.657c0,0,5.505,49.868,13.277,71.564
			c7.772,21.696,12.629,29.791,13.924,29.144c1.295-0.648,22.02-35.62,27.848-52.135c5.829-16.515,10.362-42.42,10.362-42.42
			L251.635,296.657z"/>
		<path style="fill:#263238;stroke:#263238;stroke-miterlimit:10;" d="M282.074,345.554l-11.981,15.543l6.476,7.772l-6.817,12.094
			c4.954,12.177,8.083,16.902,9.083,16.402c0.584-0.292,5.119-7.567,10.456-16.975l-5.598-11.197l8.095-10.038L282.074,345.554z"/>
		<path style="fill:#FFFFFF;stroke:#263238;stroke-miterlimit:10;" d="M264.912,368.221c0.031,0.087,0.061,0.168,0.092,0.254
			l15.451-17.74l14.487,19.407c4.827-9.017,9.443-18.399,11.742-24.912c5.829-16.515,10.362-42.42,10.362-42.42l-65.411-6.153
			C251.635,296.657,257.14,346.525,264.912,368.221z"/>
		<path style="fill:#FFFFFF;stroke:#263238;stroke-miterlimit:10;" d="M253.902,306.372c0,0,19.753,52.782,29.791,50.192
			c10.038-2.59,33.353-53.754,33.353-53.754l-65.411-6.153L253.902,306.372z"/>
		<path style="fill:#263238;stroke:#263238;stroke-miterlimit:10;" d="M251.635,296.657l2.267,9.715c0,0,6.191,16.541,13.402,30.649
			c6.992,5.102,18.926,5.386,25.253,4.01c2.386-0.519,4.703-2.009,6.848-3.883c9.017-15.413,17.641-34.339,17.641-34.339
			L251.635,296.657z"/>
		<g>
			<path style="fill:#FFFFFF;stroke:#263238;stroke-miterlimit:10;" d="M257.047,199.881c0,0-10.976,10.33-14.204,18.078
				c-3.228,7.748-1.614,50.36,0.969,61.013c2.582,10.653,14.527,38.415,20.337,46.486c5.811,8.07,20.983,8.716,28.408,7.102
				s14.204-12.59,17.109-15.495c2.905-2.905,15.495-25.503,18.078-34.864c2.582-9.362,3.874-27.439,4.519-35.187
				c0.646-7.748,1.937-23.566-0.968-30.668c-2.905-7.102-8.716-12.913-10.653-13.881c-1.937-0.968-3.874-6.133-19.369-10.33
				C285.778,187.936,267.7,192.779,257.047,199.881z"/>
			<path style="fill:#263238;stroke:#263238;stroke-miterlimit:10;" d="M308.064,318.915c-0.075-4.313-0.224-9.736-0.749-12.231
				c-0.918-4.358-17.663-13.075-20.875-13.075c-3.211,0-19.498,3.9-23.857,5.505c-2.982,1.099-3.172,11.861-2.994,18.55
				c1.707,3.289,3.282,6.018,4.56,7.793c5.811,8.07,20.983,8.716,28.408,7.102C298.847,331.191,304.663,323.122,308.064,318.915z"/>
			<g>
				<path style="fill:none;stroke:#828282;stroke-linecap:round;stroke-miterlimit:10;" d="M267.054,306.088
					c0,0,23.243-3.228,34.219,3.228"/>
				<path style="fill:#828282;stroke:#828282;stroke-linecap:round;stroke-miterlimit:10;" d="M273.511,306.088
					c0,0,2.583,4.197,8.716,5.488c6.134,1.291,12.913-4.197,12.913-4.197S283.195,304.151,273.511,306.088z"/>
			</g>
			<path style="fill:#FFFFFF;stroke:#263238;stroke-miterlimit:10;" d="M275.125,284.459c0,0-2.582,6.134-1.291,8.07
				c1.291,1.937,7.748,4.519,11.299,4.842c3.551,0.323,9.039-0.969,10.653-2.905c1.614-1.937-0.968-8.716-0.968-8.716"/>
			<path style="fill:#263238;stroke:#263238;stroke-miterlimit:10;" d="M280.705,261.494c0,0-2.523,2.753-5.047,2.064
				c-2.523-0.688-13.305-5.735-15.828-6.652c-2.523-0.917-6.882,0.229-6.882,0.229s3.9-2.982,8.717-2.982
				c4.817,0,11.699,5.735,12.616,5.735C275.2,259.888,280.705,261.494,280.705,261.494z"/>
			<path style="fill:#263238;stroke:#263238;stroke-miterlimit:10;" d="M292.634,260.118c0,0,2.523,2.753,5.047,2.064
				c2.523-0.688,13.305-5.735,15.828-6.652c2.523-0.918,6.882,0.229,6.882,0.229s-3.9-2.982-8.717-2.982s-11.699,5.735-12.617,5.735
				C298.139,258.512,292.634,260.118,292.634,260.118z"/>
			<path style="fill:#263238;stroke:#263238;stroke-miterlimit:10;" d="M269.006,265.05c0,2.09-1.078,3.785-2.409,3.785
				c-1.33,0-2.409-1.695-2.409-3.785c0-2.09,1.078-3.785,2.409-3.785C267.928,261.265,269.006,262.959,269.006,265.05z"/>
			<path style="fill:#263238;stroke:#263238;stroke-miterlimit:10;" d="M310.067,266.999c0,2.09-1.078,3.785-2.409,3.785
				c-1.33,0-2.409-1.695-2.409-3.785c0-2.09,1.078-3.785,2.409-3.785C308.989,263.215,310.067,264.909,310.067,266.999z"/>
			<path style="fill:none;stroke:#263238;stroke-miterlimit:10;" d="M274.741,270.899c0,0-6.652,5.505-11.699,6.193"/>
			<path style="fill:none;stroke:#263238;stroke-miterlimit:10;" d="M298.598,272.734c0,0,6.652,5.505,11.699,6.194"/>
			<g>
				<path style="fill:#263238;stroke:#263238;stroke-miterlimit:10;" d="M331.295,216.344c-2.905-7.102-8.716-12.913-10.653-13.881
					c-1.937-0.968-3.874-6.133-19.369-10.33c-15.495-4.197-33.573,0.646-44.226,7.748c0,0-1.123,1.058-2.753,2.746
					c3.039-1.772,6.306-3.186,7.372-3.068c2.064,0.229,15.07,7.252,25.622,10.464c10.552,3.212,28.744-3.123,30.349-4.041
					c1.606-0.918,3.212-0.229,3.212-0.229s7.111,5.505,8.258,11.699c1.147,6.194-5.276,16.516-3.9,22.939
					c1.376,6.423,2.523,9.864,2.982,10.552c0.459,0.688,0.459,6.652,1.376,8.029c0.509,0.764,1.23-0.239,1.81-1.439
					c0.384-4.185,0.673-7.93,0.888-10.52C332.909,239.264,334.2,223.446,331.295,216.344z"/>
				<path style="fill:#263238;stroke:#263238;stroke-miterlimit:10;" d="M249.279,233.279c0.396-2.773-1.259-17.854-1.127-23.693
					c-2.178,2.747-4.2,5.712-5.308,8.372c-1.833,4.398-2.104,20.03-1.524,34.674l0.16-0.085c0,0,1.606-1.147,1.606-2.753
					s-0.688-4.817,0.918-6.652C245.608,241.308,248.82,236.49,249.279,233.279z"/>
			</g>
			<path style="fill:none;stroke:#263238;stroke-miterlimit:10;" d="M278.87,267.229c0,0-24.774-3.67-25.692-2.982
				c-0.918,0.688-1.147,10.323,0,12.158c1.147,1.835,22.251,4.129,23.857,3.67c1.606-0.459,2.294-0.229,2.523-1.376
				c0.229-1.147,0.459-8.029,0.688-9.176C280.476,268.376,280.017,267.458,278.87,267.229z"/>
			<path style="fill:none;stroke:#263238;stroke-miterlimit:10;" d="M294.045,268.094c0,0,24.774-3.67,25.692-2.982
				c0.918,0.688,1.147,10.323,0,12.158c-1.147,1.835-22.251,4.129-23.857,3.67c-1.606-0.459-2.294-0.229-2.523-1.376
				c-0.229-1.147-0.459-8.029-0.688-9.176S292.898,268.324,294.045,268.094z"/>
			<path style="fill:none;stroke:#263238;stroke-miterlimit:10;" d="M280.315,268.624c0,0,7.682-3.218,11.939,0.934"/>
			<line style="fill:none;stroke:#263238;stroke-miterlimit:10;" x1="240.97" y1="244.124" x2="252.285" y2="265.717"/>
			<line style="fill:none;stroke:#263238;stroke-miterlimit:10;" x1="331.91" y1="252.221" x2="320.283" y2="266.443"/>
			<path style="fill:#FFFFFF;stroke:#263238;stroke-miterlimit:10;" d="M240.885,240.66c0,0-4.873-2.144-6.042,6.237
				c-1.169,8.381,6.822,17.932,6.822,17.932L240.885,240.66z"/>
			<path style="fill:none;stroke:#263238;stroke-miterlimit:10;" d="M332.263,247.012c0,0,6.077-2.843,5.102,5.538
				c-0.975,8.381-7.406,19.491-7.406,19.491L332.263,247.012z"/>
		</g>
		<g>
			<path style="fill:#FFFFFF;stroke:#263238;stroke-miterlimit:10;" d="M95.869,304.573l-2.121,37.94l-4.487,9.357
				c-4.679,9.758-6.042,20.855-3.444,31.361c1.094,4.422,2.753,8.054,5.269,8.855c0.073,0.023,0.146,0.046,0.219,0.068
				c5.868,1.784,12.1-1.423,14.254-7.166l10.813-28.834c0,0,4.991-5.323,6.654-7.652c1.663-2.329,5.323-11.977,5.323-11.977
				s5.323-3.66,6.654-6.987c1.331-3.327,5.323-24.953,5.989-27.615c0.665-2.661,1.996-12.643,4.325-16.302
				c2.329-3.66,4.991-10.314-0.665-10.647c-5.656-0.333-10.979,7.32-11.312,8.65c-0.333,1.331-3.327,16.303-3.327,16.303
				l-5.656,17.301l-26.284-10.647L95.869,304.573z"/>
			<path style="fill:none;stroke:#263238;stroke-linecap:round;stroke-miterlimit:10;" d="M116.372,356.154
				c0,0-9.316,3.327-12.976-0.998"/>
			<path style="fill:#999999;stroke:#263238;stroke-linecap:round;stroke-miterlimit:10;" d="M131.927,217.577l-24.442,111.481
				c-0.435,1.982,0.681,3.976,2.598,4.643l0,0c2.278,0.793,4.735-0.593,5.236-2.953l23.928-112.837L131.927,217.577z"/>
			<path style="fill:#FFFFFF;stroke:#263238;stroke-linecap:round;stroke-miterlimit:10;" d="M104.727,294.271
				c0,0,2.329-24.953,2.994-25.951c0.665-0.998,15.637,0,15.637,0s9.648,7.32,10.314,9.981c0.665,2.662,0.998,7.32-2.329,8.318
				c-3.327,0.998-10.647-4.658-10.647-4.658l-4.325,2.994l-1.664,12.643L104.727,294.271z"/>
			<path style="fill:#FFFFFF;stroke:#263238;stroke-linecap:round;stroke-miterlimit:10;" d="M103.729,325.213l5.989-0.333
				l6.987,0.333c0,0,0.998,3.66,1.331,5.989c0.333,2.329,3.327,4.658,4.991,2.329c1.663-2.329,5.656-10.647,5.656-10.647
				l5.988-11.312c0,0-3.66-15.637-5.988-17.966c-2.329-2.329-28.28-7.652-28.28-7.652s-4.658,0.998-4.658,3.992
				c0,2.995-1.663,16.968-1.663,16.968l0.998,19.297"/>
			<polyline style="fill:#FFFFFF;stroke:#263238;stroke-linecap:round;stroke-miterlimit:10;" points="101.068,297.931 
				129.348,303.919 131.011,317.228 			"/>
			<path style="fill:#FFFFFF;stroke:#263238;stroke-linecap:round;stroke-miterlimit:10;" d="M101.068,309.908
				c0,0,24.287,1.331,24.287,3.327s0.998,10.979,0.998,11.977"/>
			<path style="fill:#999999;stroke:#263238;stroke-linecap:round;stroke-miterlimit:10;" d="M161.052,200.01
				c0,12.82-10.393,23.212-23.212,23.212c-12.82,0-23.212-10.392-23.212-23.212c0-12.82,10.392-23.212,23.212-23.212
				C150.66,176.798,161.052,187.191,161.052,200.01z"/>
			
				<ellipse transform="matrix(0.062 -0.9981 0.9981 0.062 -76.4933 331.6893)" style="fill:#999999;stroke:#263238;stroke-linecap:round;stroke-miterlimit:10;" cx="138.212" cy="206.539" rx="23.212" ry="23.212"/>
			<path style="fill:#999999;stroke:#263238;stroke-linecap:round;stroke-miterlimit:10;" d="M157.206,206.539
				c0,10.49-8.504,18.994-18.994,18.994c-10.49,0-18.994-8.504-18.994-18.994c0-10.49,8.504-18.994,18.994-18.994
				C148.703,187.545,157.206,196.049,157.206,206.539z"/>
		</g>
		<g>
			<path style="fill:#FFFFFF;stroke:#263238;stroke-miterlimit:10;" d="M386.529,375.232c0,0,16.07-2.48,27.153,16.371
				s3.879,29.27-2.217,34.975c-6.096,5.705-24.659,6.449-36.573,0.248c-11.914-6.201-13.854-30.758-9.975-41.424
				S386.529,375.232,386.529,375.232z"/>
			<g>
				<path style="fill:#FFFFFF;stroke:#263238;stroke-miterlimit:10;" d="M409.077,406.6c2.491,7.699-3.849,16.304-8.831,17.662
					c-4.982,1.359-13.586-1.585-15.851-2.944c-2.264-1.359-11.548-1.132-11.548-1.132s1.359,1.585,2.491,4.529
					s0.453,5.208-0.453,7.02c-0.906,1.812-5.208,0.906-8.378-0.906c-3.17-1.812-14.266-3.17-15.172-2.944
					c-0.906,0.227-3.17-3.17-3.85-5.661c-0.679-2.491-5.208-10.416-5.661-14.266c-0.453-3.849,8.831-9.51,9.51-11.548
					s2.491-12.001,2.491-12.001s-0.906-2.717-1.585-4.302c-0.679-1.585-1.359-7.473-1.359-7.473s-4.529-2.491-7.246-7.473
					c-3.832-7.025-1.585-14.266,2.944-16.304c4.529-2.038,5.435,4.982,8.605,8.152c3.17,3.17,6.34,5.435,8.152,8.378
					c1.812,2.944,3.623,6.567,3.623,6.567s9.284-5.435,12.228-4.529c2.944,0.906,4.982,4.529,5.435,6.34
					c0.453,1.812,2.038,3.17,2.717,3.17c0.679,0,5.435-1.811,7.473,1.812c2.038,3.623,2.038,3.623,2.038,3.623
					s5.435,2.717,6.114,5.888c0.679,3.17,1.585,5.208,1.585,5.208s1.132,0.906,2.038,2.491"/>
				<path style="fill:none;stroke:#263238;stroke-linecap:round;stroke-miterlimit:10;" d="M371.035,373.087
					c0,0-4.982,10.869-7.925,14.492c-2.944,3.623-2.717,8.152-1.585,10.19c1.132,2.038,3.17,15.172,4.755,18.115
					c1.585,2.944,5.435,4.529,6.567,4.302"/>
				<path style="fill:none;stroke:#263238;stroke-linecap:round;stroke-miterlimit:10;" d="M385.527,380.106
					c0,0-7.473,13.813-9.737,15.624c-2.264,1.811-1.812,6.34-0.906,8.152c0.906,1.811,2.717,8.605,2.717,11.096
					c0,2.491-0.679,4.076,2.038,5.435"/>
				<path style="fill:none;stroke:#263238;stroke-linecap:round;stroke-miterlimit:10;" d="M404.095,402.071l-7.473,5.435
					c0,0,0.906,6.114,0.453,8.605c-0.453,2.491,0.453,5.435-0.906,7.02c-1.359,1.585-7.472-0.453-7.472-0.453s0,0-1.132-1.585
					c-1.132-1.585-0.679-10.416-0.906-12.001c-0.226-1.585-0.906-4.076-0.679-6.114c0.226-2.038,9.737-15.624,9.737-15.624"/>
				<path style="fill:none;stroke:#263238;stroke-linecap:round;stroke-miterlimit:10;" d="M366.28,415.884c0,0-4.982-2.717-9.963,0
					"/>
				<path style="fill:none;stroke:#263238;stroke-linecap:round;stroke-miterlimit:10;" d="M355.863,407.506
					c0,0,3.17,0.906,5.661,6.567"/>
				<path style="fill:none;stroke:#263238;stroke-linecap:round;stroke-miterlimit:10;" d="M350.882,372.634
					c0,0,5.208,2.717,8.605-0.906"/>
				<path style="fill:none;stroke:#263238;stroke-linecap:round;stroke-miterlimit:10;" d="M355.41,384.182c0,0,3.17,3.17,7.925,0"
					/>
			</g>
		</g>
	</g>
</g>
<g id="Base">
	<g>
		<polygon style="fill:#999999;stroke:#263238;stroke-linecap:round;stroke-miterlimit:10;" points="210.84,428.817 
			140.909,428.817 137.87,438.336 213.88,438.336 		"/>
		<polygon style="fill:#999999;stroke:#263238;stroke-linecap:round;stroke-miterlimit:10;" points="213.237,432.459 
			138.512,432.459 135.265,441.977 216.484,441.977 		"/>
	</g>
</g>
<g id="Table">
	<g>
		
			<line style="fill:none;stroke:#263238;stroke-linecap:round;stroke-miterlimit:10;" x1="9.34" y1="441.977" x2="489.18" y2="441.977"/>
		
			<line style="fill:none;stroke:#263238;stroke-linecap:round;stroke-miterlimit:10;" x1="9.34" y1="469.457" x2="489.18" y2="469.457"/>
	</g>
</g>
</svg>
