<?xml version="1.0" encoding="utf-8"?>
<!-- Generator: Adobe Illustrator 27.5.0, SVG Export Plug-In . SVG Version: 6.00 Build 0)  -->
<svg version="1.1" xmlns="http://www.w3.org/2000/svg" xmlns:xlink="http://www.w3.org/1999/xlink" x="0px" y="0px"
	 viewBox="0 0 3710 3710" style="enable-background:new 0 0 3710 3710;" xml:space="preserve">
<g id="Background">
	<g>
		<g>
			<rect style="fill:#FFFFFF;" width="3710" height="3710"/>
		</g>
	</g>
</g>
<g id="Illustration">
	<g>
		<linearGradient id="SVGID_1_" gradientUnits="userSpaceOnUse" x1="3595.3247" y1="4064.2002" x2="1112.7834" y2="981.0396">
			<stop  offset="0" style="stop-color:#B37CFF"/>
			<stop  offset="1" style="stop-color:#F895E7"/>
		</linearGradient>
		<path style="opacity:0.3;fill:url(#SVGID_1_);" d="M2912.362,2848.313c-57.023,60.031-110.977,98.745-153.606,129.331
			c-501.09,359.538-1094.011,254.734-1220.024,229.14c-186.081-37.794-545.772-110.849-805.822-416.663
			c-393.434-462.67-332.171-1191.594-26.997-1672.767c55.821-88.015,350.684-576.517,949.992-654.857
			c362.695-47.411,785.48,48.211,1091.65,304.721C3390.234,1305.654,3344.482,2393.391,2912.362,2848.313z"/>
		<g>
			<g>
				
					<linearGradient id="SVGID_00000016756244534828764830000017328570766338075281_" gradientUnits="userSpaceOnUse" x1="928.847" y1="1741.0985" x2="650.7684" y2="-164.2466">
					<stop  offset="0" style="stop-color:#FDF53F"/>
					<stop  offset="1" style="stop-color:#D93C65"/>
				</linearGradient>
				<path style="fill:url(#SVGID_00000016756244534828764830000017328570766338075281_);" d="M667.946,489.317
					c-65.033,165.559-404.141,1144.469,457.294,1627.685c0,0,389.145-586.984-431.468-1631.524
					C686.593,476.34,672.194,478.501,667.946,489.317z"/>
				
					<linearGradient id="SVGID_00000181074356884559139990000006024817803233932950_" gradientUnits="userSpaceOnUse" x1="1449.3711" y1="-260.1809" x2="774.7741" y2="1681.219">
					<stop  offset="0" style="stop-color:#FDF53F"/>
					<stop  offset="1" style="stop-color:#D93C65"/>
				</linearGradient>
				<path style="fill:url(#SVGID_00000181074356884559139990000006024817803233932950_);" d="M719.246,666.035
					c-1.193,59.693,0.105,119.533,2.585,179.241c2.531,59.724,6.505,119.387,11.96,178.909
					c10.954,119.024,27.54,237.585,51.84,354.57c24.417,116.894,56.398,232.431,100.579,343.286
					c10.951,27.739,22.956,55.044,35.642,82.006c12.651,26.983,26.334,53.47,41.003,79.379
					c29.129,51.934,62.743,101.324,100.889,146.883l0.032,0.038c1.987,2.372,1.674,5.906-0.699,7.893
					c-2.373,1.986-5.907,1.674-7.893-0.698l-0.016-0.021c-38.468-46.361-72.219-96.465-101.379-149.002
					c-14.685-26.213-28.359-52.981-40.982-80.22c-12.659-27.22-24.62-54.764-35.512-82.72
					c-43.945-111.728-75.511-227.859-99.477-345.215c-23.844-117.446-39.926-236.33-50.364-355.613
					c-5.196-59.651-8.907-119.424-11.173-179.252c-2.214-59.835-3.248-119.685-1.781-179.617c0.032-1.31,1.12-2.347,2.431-2.314
					c1.31,0.032,2.347,1.121,2.314,2.431L719.246,666.035z"/>
			</g>
			<g>
				
					<linearGradient id="SVGID_00000048460853461512479940000012592465855712311973_" gradientUnits="userSpaceOnUse" x1="819.1675" y1="1902.255" x2="237.2625" y2="975.3269">
					<stop  offset="0" style="stop-color:#FDF53F"/>
					<stop  offset="1" style="stop-color:#D93C65"/>
				</linearGradient>
				<path style="fill:url(#SVGID_00000048460853461512479940000012592465855712311973_);" d="M447.491,1187.259
					c-16.388,99.877-88.025,684.999,448.97,850.848c0,0,146.322-373.067-435.061-856.07
					C456.313,1177.811,448.561,1180.734,447.491,1187.259z"/>
				
					<linearGradient id="SVGID_00000124141299019441812230000003891095923727567005_" gradientUnits="userSpaceOnUse" x1="1304.1963" y1="-148.2814" x2="444.2148" y2="2241.1289">
					<stop  offset="0" style="stop-color:#FDF53F"/>
					<stop  offset="1" style="stop-color:#D93C65"/>
				</linearGradient>
				<path style="fill:url(#SVGID_00000124141299019441812230000003891095923727567005_);" d="M497.789,1276.85
					c6.742,32.524,14.793,64.873,23.326,97.029c8.596,32.153,17.916,64.112,27.883,95.861c9.945,31.757,20.685,63.26,32.111,94.502
					c11.479,31.219,23.482,62.251,36.627,92.794c26.087,61.149,55.581,120.888,89.977,177.661
					c4.136,7.196,8.806,14.056,13.198,21.089l6.683,10.49c2.224,3.499,4.652,6.859,6.968,10.295
					c4.718,6.812,9.292,13.729,14.125,20.454l14.779,19.97c20.166,26.26,41.776,51.374,65.184,74.676l0.052,0.052
					c2.149,2.139,2.157,5.614,0.018,7.763c-2.139,2.149-5.615,2.157-7.763,0.018l-0.031-0.03
					c-23.657-23.92-45.383-49.587-65.591-76.34l-14.795-20.326c-4.833-6.841-9.401-13.864-14.113-20.785
					c-2.312-3.49-4.737-6.908-6.955-10.457l-6.663-10.64c-4.376-7.133-9.034-14.097-13.147-21.383
					c-34.234-57.528-63.408-117.843-89.127-179.471c-12.961-30.783-24.762-62.028-36.032-93.444
					c-11.216-31.438-21.738-63.119-31.459-95.04c-9.741-31.915-18.83-64.025-27.192-96.323
					c-8.302-32.323-16.102-64.737-22.629-97.529c-0.251-1.259,0.567-2.484,1.826-2.734c1.253-0.25,2.472,0.558,2.73,1.808
					L497.789,1276.85z"/>
			</g>
		</g>
		<g>
			<g>
				<g>
					<path style="fill:#EAC4F9;" d="M2352.313,1024.245c-1.501-0.567-2.618-1.95-2.742-3.622
						c-0.412-5.519-0.714-11.139-0.898-16.703c-0.075-2.286,1.747-4.169,4.071-4.209c5.635-0.126,4.11,5.496,5.224,20.431
						c0.172,2.281-1.571,4.24-3.89,4.372C2353.458,1024.548,2352.86,1024.451,2352.313,1024.245z"/>
					<path style="fill:#EAC4F9;" d="M2350.348,951.882c1.031-10.583,2.505-21.253,4.379-31.714c0.403-2.245,2.585-3.717,4.876-3.287
						c6.236,1.209,2.17,4.724-0.873,35.914c-0.222,2.273-2.277,3.909-4.592,3.657
						C2351.792,956.194,2350.128,954.126,2350.348,951.882z M2367.14,869.723c3.209-10.184,6.884-20.43,10.803-30.095
						c2.099-5.198,9.85-1.819,7.829,3.16c-3.898,9.639-7.443,19.525-10.584,29.493c-0.685,2.175-3.042,3.363-5.264,2.658
						C2367.677,874.222,2366.463,871.875,2367.14,869.723z M2400.489,792.843c5.221-9.244,10.886-18.395,16.841-27.205
						c3.073-4.539,10.09,0.135,7.036,4.652c-5.834,8.631-11.386,17.6-16.5,26.653
						C2405.175,801.708,2397.804,797.592,2400.489,792.843z M2449.69,730.344c-1.764-1.515-1.966-4.131-0.449-5.842
						c7.056-7.969,14.533-15.762,22.221-23.163c3.953-3.804,9.889,2.154,5.939,5.957c-7.532,7.251-14.859,14.887-21.775,22.694
						C2454.112,731.703,2451.45,731.861,2449.69,730.344z M2510.566,673.41c-1.419-1.832-1.074-4.425,0.769-5.793
						c8.59-6.369,17.542-12.479,26.61-18.158c4.669-2.91,9.267,4.076,4.601,7.002c-8.886,5.566-17.659,11.551-26.074,17.792
						C2514.631,675.619,2511.985,675.242,2510.566,673.41z M2584.431,632.102c-0.985-0.372-1.834-1.1-2.328-2.109
						c-1.016-2.07-0.145-4.535,1.948-5.502c9.754-4.51,19.803-8.69,29.87-12.43c2.166-0.804,4.607,0.278,5.46,2.42
						c0.849,2.141-0.216,4.526-2.379,5.331c-9.866,3.662-19.714,7.762-29.273,12.181
						C2586.655,632.488,2585.469,632.495,2584.431,632.102z M2663.919,604.764c-1.26-0.476-2.274-1.529-2.628-2.908
						c-0.57-2.225,0.797-4.455,3.05-4.982c10.493-2.453,21.225-4.528,31.897-6.164c2.291-0.357,4.47,1.191,4.86,3.453
						c0.392,2.257-1.147,4.374-3.44,4.725c-10.455,1.604-20.971,3.638-31.252,6.042
						C2665.551,605.13,2664.689,605.055,2663.919,604.764z M2744.9,590.241c-0.098-2.286,1.707-4.187,4.031-4.248
						c10.807-0.284,21.782-0.148,32.617,0.403c5.581,0.299,5.242,8.548-0.31,8.266c-10.614-0.541-21.366-0.673-31.955-0.395
						C2746.965,594.331,2744.997,592.531,2744.9,590.241z M3014.654,680.155c-25.22-19.26-30.892-18.948-27.431-24.17
						c1.259-1.905,3.862-2.412,5.819-1.152c9.104,5.899,18.092,12.229,26.715,18.814
						C3024.183,677.024,3019.096,683.54,3014.654,680.155z M2829.422,595.744c0.38-2.249,2.546-3.742,4.841-3.335
						c10.671,1.896,21.418,4.227,31.942,6.934c5.409,1.393,3.387,9.396-2.014,8.006c-10.314-2.651-20.846-4.938-31.302-6.796
						C2830.568,600.139,2829.046,597.97,2829.422,595.744z M2943.126,636.205c-28.542-13.797-34.099-12.378-31.8-18.221
						c1.458-3.705,5.947-2.32,5.441-2.298c10.138,3.978,20.226,8.387,29.981,13.099c2.1,1.015,2.99,3.498,1.989,5.546
						C2947.782,636.287,2945.36,637.249,2943.126,636.205z"/>
					<path style="fill:#EAC4F9;" d="M3065.656,726.284c-9.67-10.329-15.671-13.828-11.648-17.77c1.631-1.6,4.298-1.588,5.954,0.054
						c10.43,10.279,15.662,14.378,11.646,18.003C3070.404,727.659,3067.241,727.971,3065.656,726.284z"/>
				</g>
				<g>
					<path style="fill:#EAC4F9;" d="M3178.279,1027.948c-1.684-0.636-2.845-2.289-2.744-4.142c0.293-5.438,0.475-10.942,0.54-16.362
						c0.028-2.286,1.936-4.087,4.262-4.025c2.32,0.068,4.187,1.962,4.16,4.251c-0.069,5.532-0.255,11.147-0.552,16.698
						c-0.123,2.28-2.105,4.004-4.427,3.849C3179.083,1028.188,3178.667,1028.095,3178.279,1027.948z"/>
					<path style="fill:#EAC4F9;" d="M2610.42,1375.532c-10.833-4.432-21.607-9.365-32.022-14.664
						c-2.078-1.056-2.917-3.557-1.871-5.584c2.946-5.709,5.332-0.355,37.028,12.613c2.159,0.882,3.207,3.307,2.34,5.416
						C2614.382,1376.997,2609.914,1375.548,2610.42,1375.532z M2661.619,1388.589c1.596-6.211,5.279-1.466,38.792,4.459
						c2.301,0.395,3.848,2.56,3.471,4.807c-0.378,2.25-2.545,3.745-4.838,3.34c-11.469-2.027-23.032-4.564-34.369-7.538
						C2662.403,1393.058,2661.055,1390.783,2661.619,1388.589z M2529.295,1331.58c-9.595-6.642-19.037-13.771-28.059-21.189
						c-1.796-1.478-2.057-4.09-0.58-5.835c4.162-4.918,5.285,0.809,33.417,20.277c1.915,1.326,2.397,3.91,1.079,5.773
						C2533.832,1332.467,2531.212,1332.901,2529.295,1331.58z M2754.468,1407.077c-1.645-0.621-2.798-2.214-2.75-4.033
						c0.06-2.284,1.993-4.059,4.318-3.965c11.439,0.462,23.012,0.45,34.396-0.036c2.327-0.099,4.314,1.671,4.45,3.954
						c0.137,2.285-1.634,4.216-3.955,4.316c-11.622,0.498-23.435,0.51-35.111,0.037
						C2755.345,1407.33,2754.889,1407.235,2754.468,1407.077z M2845.185,1400.837c-1.329-0.502-2.379-1.648-2.676-3.12
						c-0.452-2.247,1.031-4.403,3.313-4.814c11.196-2.014,22.443-4.527,33.433-7.469c2.236-0.599,4.566,0.706,5.21,2.911
						c0.641,2.207-0.65,4.48-2.883,5.078c-11.215,3.004-22.696,5.567-34.124,7.624
						C2846.67,1401.188,2845.889,1401.102,2845.185,1400.837z M2932.02,1375.159c-1.032-0.39-1.913-1.171-2.393-2.246
						c-0.94-2.104,0.024-4.534,2.151-5.426c10.448-4.381,20.833-9.255,30.867-14.489c2.043-1.061,4.597-0.286,5.713,1.736
						c1.114,2.023,0.362,4.527-1.679,5.591c-10.239,5.339-20.836,10.312-31.5,14.785
						C2934.138,1375.546,2933.01,1375.533,2932.02,1375.159z M3010.814,1331.399c-0.744-0.281-1.421-0.771-1.928-1.454
						c-1.38-1.861-0.981-4.446,0.892-5.774c9.198-6.525,18.22-13.523,26.821-20.795c1.749-1.48,4.407-1.271,5.941,0.476
						c1.533,1.742,1.357,4.353-0.394,5.833c-8.776,7.423-17.984,14.564-27.371,21.225
						C3013.589,1331.75,3012.099,1331.885,3010.814,1331.399z M3076.465,1270.869c-4.94-4.287,0.875-5.145,21.015-31.991
						c3.28-4.374,10.088,0.601,6.803,4.978c-6.871,9.159-14.232,18.14-21.879,26.687
						C3080.886,1272.238,3078.23,1272.402,3076.465,1270.869z M3128.961,1198.417c-5.767-3.123-0.333-5.184,13.247-35.849
						c2.202-4.971,9.946-1.601,7.73,3.398c-4.634,10.465-9.774,20.842-15.278,30.846
						C3133.545,1198.839,3130.955,1199.517,3128.961,1198.417z M3163.453,1116.087c-2.037-0.769-3.189-2.953-2.592-5.035
						c3.093-10.821,5.751-21.86,7.896-32.809c0.44-2.238,2.646-3.674,4.931-3.21c2.289,0.479,3.779,2.657,3.341,4.896
						c-2.19,11.173-4.901,22.435-8.06,33.475c-0.625,2.192-2.948,3.442-5.189,2.792
						C3163.668,1116.164,3163.559,1116.127,3163.453,1116.087z"/>
					<path style="fill:#EAC4F9;" d="M2459.558,1271.084c-9.958-10.753-14.98-15.068-10.794-18.502
						c4.354-3.575,6.79,1.968,16.983,12.982c1.578,1.703,1.469,4.32-0.24,5.844
						C2463.798,1272.932,2461.134,1272.785,2459.558,1271.084z"/>
				</g>
				<g>
					<g>
						
							<linearGradient id="SVGID_00000077305532527947686610000009334383598634873758_" gradientUnits="userSpaceOnUse" x1="2641.0154" y1="69.8974" x2="3282.8208" y2="69.8974" gradientTransform="matrix(0.8863 0.4631 -0.4631 0.8863 174.6547 -439.9146)">
							<stop  offset="0" style="stop-color:#CE1567"/>
							<stop  offset="1" style="stop-color:#7A1DBC"/>
						</linearGradient>
						<path style="fill:url(#SVGID_00000077305532527947686610000009334383598634873758_);" d="M2505.598,1166.457l59.843-7.411
							c18.232,21.446,40.031,40.242,64.895,55.368c2.334,57.703-1.592,61.914,4.576,63.97l68.967,22.976
							c2.015,0.67,4.223,0.017,5.496-1.627l36.321-46.888c28.946,2.797,57.622,0.819,85.021-5.427l43.535,41.849
							c1.526,1.466,3.816,1.834,5.702,0.916l64.558-31.451c1.887-0.919,2.954-2.922,2.658-4.988l-8.444-58.943
							c21.544-17.599,40.336-38.745,55.352-62.959l60.385-0.224c2.119-0.007,3.977-1.336,4.63-3.306l22.332-67.453
							c0.653-1.972-0.045-4.152-1.738-5.429l-48.255-36.416c2.41-28.414-0.037-56.634-6.806-83.666
							c40.063-42.043,45.694-42.079,42.765-47.758c-33.443-62.151-31.538-67.44-38.091-66.631l-59.843,7.411
							c-18.231-21.448-40.031-40.242-64.894-55.368c-2.333-57.668,1.594-61.913-4.575-63.971
							c-68.914-21.65-70.56-26.391-74.464-21.348l-36.321,46.889c-28.945-2.8-57.622-0.821-85.022,5.425
							c-42.853-39.534-43.416-45.601-49.237-42.764c-63.334,32.246-68.127,30.072-67.216,36.439l8.444,58.942
							c-21.545,17.599-40.337,38.746-55.351,62.96c-57.641,1.397-62.98-2.629-65.016,3.532
							c-20.893,67.125-25.814,68.94-20.595,72.881l48.255,36.417c-2.409,28.412,0.038,56.633,6.806,83.665
							c-39.927,41.9-45.705,42.048-42.764,47.758C2500.95,1161.977,2499.044,1167.267,2505.598,1166.457z"/>
					</g>
					<path style="fill:#FFFFFF;" d="M2696.917,988.085c2.566-38.186,36.294-66.731,75.185-63.631
						c38.886,3.112,68.443,36.69,65.879,74.877c-2.568,38.185-36.294,66.731-75.186,63.633l0,0
						C2723.895,1059.864,2694.352,1026.263,2696.917,988.085z M2763.211,1056.775l0.039,0.015L2763.211,1056.775z M2771.271,936.832
						c-31.567-2.518-59.611,20.425-61.748,52.258c-2.109,31.363,22.161,58.959,54.104,61.497
						c31.94,2.545,59.642-20.898,61.748-52.26C2827.487,966.917,2803.155,939.367,2771.271,936.832z"/>
					<path style="fill:#FFFFFF;" d="M2705.92,1159.078L2705.92,1159.078c-9.8-3.702-19.272-8.212-28.242-13.456
						c-2.697-1.577-3.805-4.789-2.763-7.553c0.125-0.33,0.28-0.653,0.466-0.965c1.75-2.941,5.625-3.887,8.632-2.129
						c10.317,6.031,21.357,11.019,32.803,14.841l0,0c86.246,28.73,178.966-14.679,210.085-97.062
						c0.795-2.104,1.548-4.234,2.263-6.387c28.813-87.035-20.165-180.879-108.465-210.322
						c-88.179-29.376-183.567,16.655-212.347,103.449c-17.102,51.671-2.155,86.344-4.164,91.664
						c-2.171,5.748-10.677,5.076-12.082-0.927c-7.677-32.795-5.969-68.165,6.661-101.606
						c54.505-144.29,259.838-153.077,331.392-14.322c22.021,42.699,25.936,91.023,11.02,136.069
						c-0.77,2.331-1.588,4.638-2.449,6.924c-15.801,41.845-46.65,75.58-87.53,95.498c-43.112,21-92.219,24.117-138.275,8.775
						C2710.574,1160.784,2708.237,1159.953,2705.92,1159.078z"/>
				</g>
			</g>
			<g>
				<g>
					
						<linearGradient id="SVGID_00000039102520008191323160000003367816590368299649_" gradientUnits="userSpaceOnUse" x1="2789.0886" y1="-676.9041" x2="2874.7949" y2="-41.2526" gradientTransform="matrix(0.9355 0.3533 -0.3533 0.9355 -622.325 270.1349)">
						<stop  offset="0" style="stop-color:#CE1567"/>
						<stop  offset="1" style="stop-color:#7A1DBC"/>
					</linearGradient>
					<path style="fill:url(#SVGID_00000039102520008191323160000003367816590368299649_);" d="M2023.072,1124.599
						c11.711,11.978,25.418,22.176,40.777,30.005l3.249,35.701c0.359,3.962,3.643,2.187,44.011,12.878
						c3.731,0.917,3.087-2.46,22.628-31.378c17.239,0.193,34.111-2.477,50.044-7.652l27.56,22.963
						c3.064,2.547,4.122-1.03,40.227-22.016c1.077-0.651,1.621-1.913,1.356-3.141l-7.549-35.069
						c11.978-11.711,22.175-25.418,30.004-40.777c34.053-3.817,37.36-1.679,38.297-5.479c9.455-41.55,12.273-42.862,9.02-44.962
						l-30.116-19.447c0.194-17.239-2.477-34.111-7.652-50.044l22.963-27.56c2.547-3.056-1.03-4.122-22.016-40.226
						c-1.977-3.275-3.773-0.473-38.21,6.193c-11.711-11.979-25.417-22.175-40.777-30.005l-3.249-35.701
						c-0.361-3.966-3.644-2.187-44.013-12.878c-3.71-0.914-2.988,2.315-22.626,31.379c-17.239-0.194-34.113,2.477-50.045,7.652
						l-27.559-22.962c-0.966-0.805-2.337-0.908-3.413-0.258l-36.815,22.273c-1.076,0.651-1.621,1.913-1.356,3.142l7.549,35.068
						c-11.979,11.712-22.175,25.418-30.004,40.777c-34.053,3.816-37.364,1.679-38.296,5.48c-9.452,41.533-12.275,42.857-9.02,44.961
						l30.115,19.447c-0.193,17.238,2.477,34.111,7.652,50.044c-21.381,26.777-25.252,27.612-23.22,30.972l22.273,36.815
						C1986.853,1134.083,1988.81,1131.231,2023.072,1124.599z"/>
				</g>
				<g>
					<path style="fill:#FFFFFF;" d="M2090.472,1014.862c-0.146-24.814,19.812-45.017,44.631-45.164
						c24.806-0.149,45.016,19.811,45.163,44.626c0.147,24.755-19.874,45.017-44.629,45.166l0,0
						C2110.879,1059.634,2090.621,1039.621,2090.472,1014.862z M2135.595,1052.8l0.041,0.015L2135.595,1052.8z M2103.853,1014.779
						c0.108,17.381,14.334,31.432,31.701,31.33l0,0c27.905-0.17,41.886-34.248,21.967-53.933
						C2137.689,972.582,2103.686,986.694,2103.853,1014.779z"/>
					<g>
						<path style="fill:#EAC4F9;" d="M1915.324,1097.502c-2.129-5.639-4.062-11.443-5.747-17.25c-0.687-2.366,0.673-4.84,3.04-5.527
							c5.954-1.729,5.571,5.083,11.053,19.629c0.87,2.306-0.294,4.878-2.599,5.747
							C1918.776,1100.968,1916.197,1099.817,1915.324,1097.502z"/>
						<path style="fill:#EAC4F9;" d="M1900.369,1021.335c-0.338-11.839,0.202-24.228,1.789-36.699
							c0.746-5.867,9.592-4.709,8.85,1.126c-4.112,32.311,1.407,39.699-6.055,39.907
							C1902.469,1025.736,1900.438,1023.784,1900.369,1021.335z M1919.625,932.72c-2.286-0.919-3.393-3.516-2.476-5.803
							c4.559-11.337,10.055-22.413,16.343-32.92c3.033-5.059,10.687-0.486,7.657,4.582c-6.048,10.106-11.338,20.759-15.72,31.665
							C1923.813,934.257,1919.087,932.744,1919.625,932.72z M1971.87,854.476c-0.585-0.221-1.131-0.567-1.598-1.039
							c-1.73-1.755-1.71-4.578,0.043-6.31c8.711-8.591,18.161-16.56,28.088-23.685c1.999-1.434,4.793-0.976,6.224,1.021
							c1.437,2,0.98,4.789-1.021,6.224c-9.552,6.858-18.643,14.527-27.025,22.792
							C1975.299,854.742,1973.449,855.073,1971.87,854.476z M2050.864,803.436c-1.147-0.433-2.112-1.336-2.587-2.57
							c-0.887-2.298,0.258-4.88,2.557-5.765c11.407-4.399,23.258-7.925,35.223-10.479c2.412-0.512,4.78,1.023,5.294,3.433
							c0.513,2.408-1.023,4.778-3.433,5.292c-11.507,2.455-22.905,5.844-33.876,10.075
							C2052.979,803.834,2051.852,803.809,2050.864,803.436z M2140.809,783.913c0.105-2.461,2.183-4.374,4.644-4.271
							c12.257,0.515,24.531,1.994,36.487,4.396c5.77,1.132,4.045,9.91-1.758,8.747c-11.499-2.311-23.31-3.733-35.102-4.227
							C2142.559,788.443,2140.71,786.325,2140.809,783.913z"/>
						<path style="fill:#EAC4F9;" d="M2250.103,819.555c-14.097-8.311-20.087-8.848-17.441-14.256
							c1.083-2.213,3.704-3.162,5.967-2.046c5.398,2.639,10.783,5.539,16.006,8.618c2.122,1.25,2.828,3.985,1.576,6.109
							C2254.979,820.068,2252.273,820.821,2250.103,819.555z"/>
					</g>
					<g>
						<path style="fill:#EAC4F9;" d="M2357.201,969.936c-3.229-16.106-6.815-20.876-1.017-22.511c2.374-0.67,4.835,0.711,5.504,3.08
							c1.635,5.786,3.069,11.734,4.259,17.678c0.484,2.416-1.082,4.767-3.496,5.25
							C2360.043,973.917,2357.685,972.355,2357.201,969.936z"/>
						<path style="fill:#EAC4F9;" d="M2074.024,1237.013c1.823-7.181,7.6-0.327,39.68,2.722c5.859,0.545,5.045,9.44-0.845,8.882
							c-11.997-1.141-23.979-3.222-35.612-6.182C2074.898,1241.845,2073.407,1239.432,2074.024,1237.013z M2166.371,1243.198
							c-0.373-2.434,1.295-4.712,3.732-5.086c32.12-4.94,37.188-12.111,39.444-5.024c0.744,2.349-0.554,4.857-2.901,5.603
							c-11.453,3.637-23.291,6.411-35.19,8.24C2169.02,1247.302,2166.747,1245.632,2166.371,1243.198z M2253.703,1212.661
							c-3.935-6.301,4.938-5.668,29.4-26.78c4.469-3.849,10.301,2.897,5.83,6.755c-9.117,7.865-18.901,15.081-29.083,21.442
							C2257.763,1215.383,2255.008,1214.753,2253.703,1212.661z M2322.013,1150.229c-6.101-4.267,2.344-7.158,16.574-36.152
							c2.595-5.292,10.612-1.374,8.01,3.929c-5.294,10.787-11.474,21.257-18.372,31.124
							C2326.81,1151.152,2324.029,1151.635,2322.013,1150.229z M2356.887,1060.718c6.595-31.796,1.656-39.097,9.099-38.717
							c2.464,0.123,4.354,2.219,4.23,4.68c-0.612,12.05-2.157,24.111-4.594,35.851c-0.501,2.411-2.861,3.962-5.274,3.461
							C2357.941,1065.493,2356.385,1063.135,2356.887,1060.718z"/>
						<path style="fill:#EAC4F9;" d="M2022.488,1220.845c-5.296-2.906-10.541-6.051-15.588-9.35
							c-2.061-1.349-2.64-4.112-1.292-6.176c3.395-5.19,7.518,0.214,21.171,7.703c2.159,1.186,2.949,3.896,1.766,6.057
							C2027.342,1221.27,2024.606,1222.012,2022.488,1220.845z"/>
					</g>
					<path style="fill:#FFFFFF;" d="M2087.814,1113.485c-3.814-1.836-4.848-5.927-3.32-9.063c1.621-3.323,5.659-4.696,8.947-3.082
						c6.166,3.006,12.71,5.375,19.455,7.036c1.454,0.072,36.328,11.204,73.493-11.211c73.697-44.592,56.669-156.834-27.066-177.43
						c-48.175-11.854-96.962,14.639-114.068,59.943c-17.233,45.626,7.409,66.987-6.446,71.243c-3.531,1.09-7.274-0.892-8.363-4.425
						c-5.869-19.049-6.438-39.399-1.65-58.851c14.526-59.071,74.463-95.486,133.726-80.903
						c63.769,15.687,100.574,83.921,76.908,146.577c-19.082,50.535-73.865,81.802-129.733,68.051c0,0,0,0-0.002-0.001
						C2102.136,1119.508,2094.771,1116.856,2087.814,1113.485z"/>
				</g>
			</g>
		</g>
		<g>
			<g>
				
					<linearGradient id="SVGID_00000069385723032810002340000000546012121172987327_" gradientUnits="userSpaceOnUse" x1="2011.3606" y1="3255.6667" x2="1977.4526" y2="2584.2961">
					<stop  offset="0" style="stop-color:#2B3582"/>
					<stop  offset="1" style="stop-color:#150E42"/>
				</linearGradient>
				<polygon style="fill:url(#SVGID_00000069385723032810002340000000546012121172987327_);" points="1728.003,2493.484 
					1671.686,2998.563 2325.065,2998.563 2239.961,2493.484 				"/>
				
					<linearGradient id="SVGID_00000153702788459433205660000003051258869609234107_" gradientUnits="userSpaceOnUse" x1="591.0687" y1="1848.6237" x2="3274.8286" y2="1848.6237">
					<stop  offset="0" style="stop-color:#2B3582"/>
					<stop  offset="1" style="stop-color:#150E42"/>
				</linearGradient>
				<path style="fill:url(#SVGID_00000153702788459433205660000003051258869609234107_);" d="M591.069,1212.979v1190.319
					c0,97.919,78.03,177.994,175.917,180.519c434.763,11.21,1955.352,38.395,2369.217,32.294
					c71.132-1.048,128.756-57.971,130.809-129.082c7.981-276.527,20.942-941.483-27.023-1250.196
					c-10.101-65.012-64.977-113.626-130.735-115.729c-364.276-11.653-1976.2-48.657-2389.872-39.366
					C648.037,1083.339,591.069,1141.617,591.069,1212.979z"/>
				
					<linearGradient id="SVGID_00000055702769894305512480000015520176853048156545_" gradientUnits="userSpaceOnUse" x1="2180.9836" y1="1116.2469" x2="906.8845" y2="4443.3701">
					<stop  offset="0" style="stop-color:#53D8FF"/>
					<stop  offset="1" style="stop-color:#3840F7"/>
				</linearGradient>
				<path style="fill:url(#SVGID_00000055702769894305512480000015520176853048156545_);" d="M665.758,1207.184V2338.07
					c0,57.171,45.893,103.755,103.057,104.61l2307.846,28.513c56.674,0.847,103.13-44.75,103.341-101.43l3.861-1120.781
					c0.151-40.528-32.137-73.734-72.653-74.721l-2362.807-47.734C703.088,1125.423,665.758,1161.856,665.758,1207.184z"/>
				
					<linearGradient id="SVGID_00000094597928058631142210000012008554314009902260_" gradientUnits="userSpaceOnUse" x1="1927.4827" y1="277.1886" x2="1910.3148" y2="3456.3618">
					<stop  offset="0" style="stop-color:#53D8FF"/>
					<stop  offset="1" style="stop-color:#3840F7"/>
				</linearGradient>
				<path style="fill:url(#SVGID_00000094597928058631142210000012008554314009902260_);" d="M706.638,1265.12v1042.477
					c0,52.701,44.268,95.644,99.409,96.432l2226.143,26.284c54.668,0.781,99.479-41.251,99.683-93.501l3.724-1033.163
					c0.146-37.359-30.999-67.97-70.081-68.879l-2279.157-44.003C742.646,1189.75,706.638,1223.336,706.638,1265.12z"/>
				<path style="opacity:0.65;fill:#FFFFFF;" d="M3197.379,2518.049c-0.022,0-0.043,0-0.065,0l-2531.618-43.134
					c-2.048-0.037-3.681-1.726-3.645-3.773c0.033-2.048,1.703-3.662,3.771-3.647l2531.618,43.134
					c2.048,0.037,3.681,1.725,3.645,3.773C3201.052,2516.427,3199.397,2518.049,3197.379,2518.049z"/>
				
					<linearGradient id="SVGID_00000060750039819772229000000014896414739676959409_" gradientUnits="userSpaceOnUse" x1="2013.4708" y1="3002.3318" x2="1701.5203" y2="3687.2661">
					<stop  offset="0" style="stop-color:#2B3582"/>
					<stop  offset="1" style="stop-color:#150E42"/>
				</linearGradient>
				<path style="fill:url(#SVGID_00000060750039819772229000000014896414739676959409_);" d="M2465.802,3101.901h-956.264
					c-25.979,0-45.488-18.494-40.465-38.36l12.271-48.528c3.69-14.594,19.745-25.308,38.815-25.903l921.873-28.766
					c19.923-0.622,37.563,9.954,41.904,25.121l22.12,77.294C2511.802,3082.84,2492.2,3101.901,2465.802,3101.901z"/>
			</g>
			
				<linearGradient id="SVGID_00000154390105478325681840000007614897942124594073_" gradientUnits="userSpaceOnUse" x1="2195.2124" y1="299.0463" x2="1731.5916" y2="1993.1539">
				<stop  offset="0" style="stop-color:#53D8FF"/>
				<stop  offset="1" style="stop-color:#3840F7"/>
			</linearGradient>
			<path style="fill:url(#SVGID_00000154390105478325681840000007614897942124594073_);" d="M3135.437,1348.471l0.159-44.53
				c0.146-37.359-31-68.117-70.081-69.026L786.053,1190.84c-43.71-1.016-80.022,32.496-80.022,74.28v83.351H3135.437z"/>
			<circle style="fill:#FFFFFF;" cx="2962.119" cy="1298.374" r="20.284"/>
			<circle style="fill:#FFFFFF;" cx="2893.794" cy="1298.374" r="20.284"/>
			<circle style="fill:#FFFFFF;" cx="2817.246" cy="1298.374" r="20.284"/>
			<path style="opacity:0.61;fill:#FFFFFF;" d="M2412.81,2184.457l-1594.222-18.37c-24.322-0.28-43.892-20.077-43.892-44.4v-676.858
				c0-24.7,20.157-44.653,44.856-44.401l1594.222,16.26c24.345,0.248,43.95,20.054,43.95,44.401v678.968
				C2457.725,2164.78,2437.531,2184.742,2412.81,2184.457z"/>
			<path style="opacity:0.61;fill:#FFFFFF;" d="M3047.903,1704.389l-499.22-14.794c-23.184-0.687-41.621-19.679-41.621-42.873
				v-183.927c0-23.427,18.797-42.52,42.221-42.887l499.22-7.813c23.948-0.375,43.563,18.936,43.563,42.887v206.534
				C3092.066,1685.702,3072.079,1705.105,3047.903,1704.389z"/>
			<path style="opacity:0.61;fill:#FFFFFF;" d="M3009.8,2376.403l-463.719-13.742c-23.184-0.687-41.622-19.679-41.622-42.873
				l2.235-212.38c0.202-19.217,16.076-34.56,35.289-34.107l503.917,11.861c23.948-0.375,43.563,18.936,43.563,42.886v171.017
				C3089.463,2342.695,3053.41,2377.696,3009.8,2376.403z"/>
			<path style="opacity:0.61;fill:#FFFFFF;" d="M3045.301,2055.432l-499.22-15.776c-23.184-0.733-41.622-20.986-41.622-45.719
				l2.18-226.04c0.232-24.042,18.98-43.164,41.513-42.342l497.748,18.178c23.948-0.4,43.563,20.193,43.563,45.734v220.246
				C3089.463,2035.505,3069.477,2056.196,3045.301,2055.432z"/>
			<path style="opacity:0.61;fill:#FFFFFF;" d="M2432.092,2281.427l-1613.754-7.222c-14.014-0.063-25.331-8.654-25.331-19.231
				v-12.902c0-10.669,11.509-19.299,25.646-19.231l1613.754,7.824c14.009,0.068,25.318,8.658,25.318,19.231v12.3
				C2457.725,2272.862,2446.224,2281.49,2432.092,2281.427z"/>
			<path style="opacity:0.61;fill:#FFFFFF;" d="M1675.04,2369.969l-869.529-7.222c-7.551-0.063-13.649-8.654-13.649-19.231v-12.902
				c0-10.669,6.201-19.299,13.818-19.231l869.529,7.824c7.549,0.068,13.642,8.658,13.642,19.231v12.3
				C1688.852,2361.403,1682.655,2370.032,1675.04,2369.969z"/>
		</g>
		<g>
			<g>
				
					<linearGradient id="SVGID_00000121984569734310765730000011098651498856941452_" gradientUnits="userSpaceOnUse" x1="1279.4373" y1="2119.4653" x2="2214.6597" y2="2119.4653" gradientTransform="matrix(-0.9554 -0.2955 -0.2955 0.9554 5383.0181 888.7548)">
					<stop  offset="0" style="stop-color:#2B3582"/>
					<stop  offset="1" style="stop-color:#150E42"/>
				</linearGradient>
				<path style="fill:url(#SVGID_00000121984569734310765730000011098651498856941452_);" d="M2390.971,1947.186l737.225,559.218
					c30.92,23.453,35.306,68.274,9.522,97.279l-4.234,4.762c-22.815,25.662-62.159,27.846-87.672,4.867l-691.231-622.563
					L2390.971,1947.186z"/>
				
					<linearGradient id="SVGID_00000093152582860301610480000002458441082001257869_" gradientUnits="userSpaceOnUse" x1="1148.4141" y1="1394.9303" x2="1148.4141" y2="2632.0269" gradientTransform="matrix(-0.9972 0.0741 0.0741 0.9972 3091.3264 -42.6664)">
					<stop  offset="0" style="stop-color:#2B3582"/>
					<stop  offset="1" style="stop-color:#150E42"/>
				</linearGradient>
				<path style="fill:url(#SVGID_00000093152582860301610480000002458441082001257869_);" d="M1609.07,1506.148
					c-76.521,247.468,65.744,511.249,317.756,589.176c252.012,77.927,518.341-59.512,594.861-306.979
					c76.52-247.465-65.744-511.249-317.756-589.175C1951.92,1121.243,1685.59,1258.684,1609.07,1506.148z M1676.099,1526.875
					c65.28-211.114,292.487-328.364,507.48-261.884c214.992,66.478,336.359,291.513,271.079,502.627
					c-65.28,211.116-292.487,328.364-507.478,261.885C1732.186,1963.023,1610.82,1737.991,1676.099,1526.875z"/>
				<path style="fill:#FFFFFF;" d="M2470.066,1831.621c-0.864-0.392-1.246-1.411-0.854-2.277
					c4.588-10.089,8.835-20.48,12.626-30.892c0.325-0.89,1.308-1.355,2.205-1.028c0.894,0.327,1.354,1.311,1.029,2.205
					c-3.821,10.494-8.103,20.971-12.727,31.141c-0.305,0.67-0.989,1.051-1.683,1.003
					C2470.46,1831.759,2470.26,1831.712,2470.066,1831.621z M2506.18,1705.504c-0.943-0.115-1.612-0.973-1.496-1.917
					c3.698-30.063,4.174-60.617,1.416-90.811c-16.255-177.926-138.801-327.538-312.202-381.158
					c-80.867-25.006-166.415-26.85-247.409-5.334c-0.918,0.249-1.861-0.303-2.104-1.222c-0.242-0.917,0.303-1.86,1.222-2.104
					c81.614-21.681,167.826-19.82,249.305,5.372c86.638,26.79,162.196,77.937,218.507,147.912
					c54.999,68.344,88.233,150.029,96.106,236.221c2.781,30.438,2.301,61.237-1.429,91.544c-0.111,0.91-0.916,1.567-1.821,1.506
					C2506.244,1705.512,2506.212,1705.51,2506.18,1705.504z"/>
				<path style="fill:#FFFFFF;" d="M3078.866,2609.196c0.057,0.004,0.116,0.005,0.175,0.002
					c28.172-0.926,46.01-11.343,53.018-30.957c7.054-19.739,0.212-42.208-17.026-55.912l-87.716-69.736
					c-0.737-0.602-1.822-0.467-2.416,0.273c-0.591,0.744-0.468,1.827,0.277,2.416l87.716,69.736
					c16.083,12.791,22.484,33.714,15.927,52.066c-6.487,18.152-23.272,27.801-49.893,28.678c-0.95,0.03-1.694,0.824-1.663,1.776
					C3077.296,2608.426,3077.997,2609.136,3078.866,2609.196z"/>
				<path style="fill:#FFFFFF;" d="M2999.1,2434.165c0.544,0.037,1.098-0.185,1.465-0.645c0.591-0.744,0.468-1.827-0.277-2.416
					l-11.368-9.039c-0.74-0.603-1.823-0.471-2.416,0.273c-0.591,0.744-0.468,1.827,0.277,2.416l11.369,9.039
					C2998.431,2434.022,2998.765,2434.142,2999.1,2434.165z"/>
			</g>
			<g>
				
					<linearGradient id="SVGID_00000151536828340898529920000002280607465482062007_" gradientUnits="userSpaceOnUse" x1="129.5162" y1="3329.2625" x2="372.2713" y2="2704.3245" gradientTransform="matrix(-1 0 0 1 3305.3694 0)">
					<stop  offset="0" style="stop-color:#F9B776"/>
					<stop  offset="1" style="stop-color:#F47960"/>
				</linearGradient>
				<path style="fill:url(#SVGID_00000151536828340898529920000002280607465482062007_);" d="M2941.523,2651.978l85.986,21.496
					l-21.495,161.224c0,0,32.244,32.245,42.992,75.239c10.748,42.992,20.659,223.513,20.659,223.513l20.402,12.335l2.482,10.297
					l-59.359,79.813l9.844-63.524c1.563-10.084-1.144-30.535-0.292-30.963c-32.245-85.986-101.218-328.205-101.218-328.205V2651.978
					z"/>
				
					<linearGradient id="SVGID_00000100349462975788629460000008914382844553128087_" gradientUnits="userSpaceOnUse" x1="473.9893" y1="2443.4988" x2="248.36" y2="3433.0039" gradientTransform="matrix(-1 0 0 1 3305.3694 0)">
					<stop  offset="0" style="stop-color:#F9B776"/>
					<stop  offset="1" style="stop-color:#F47960"/>
				</linearGradient>
				<path style="fill:url(#SVGID_00000100349462975788629460000008914382844553128087_);" d="M2916.399,3157.186
					c0.93-0.015,1.845,0.059,2.781,0.001c-4.155-51.837-23.145-279.975-42.146-365.482
					c-21.496-96.735,32.245-290.203,32.245-290.203l96.735,96.735l-53.742,182.72c36.829,55.242-6.007,378.757-5.085,378.617
					l-0.059,0.719l14.023,19.281l-1.706,10.453l-85.663,50.55l33.706-54.736C2912.838,3177.151,2915.795,3167.301,2916.399,3157.186
					z"/>
				
					<linearGradient id="SVGID_00000163064796457876323980000008577517357457549229_" gradientUnits="userSpaceOnUse" x1="169.9074" y1="2094.6741" x2="354.7605" y2="2423.6033" gradientTransform="matrix(-1 0 0 1 3305.3694 0)">
					<stop  offset="0" style="stop-color:#F9B776"/>
					<stop  offset="1" style="stop-color:#F47960"/>
				</linearGradient>
				<path style="fill:url(#SVGID_00000163064796457876323980000008577517357457549229_);" d="M3025.203,2072.479
					c0,0,188.344,261.344,0,395.344l-19.19-17.107c0,0,93.506-110.239,0-245.188L3025.203,2072.479z"/>
				
					<linearGradient id="SVGID_00000151502572318433853900000008784075934181171349_" gradientUnits="userSpaceOnUse" x1="682.0598" y1="371.4738" x2="888.0444" y2="-323.7223" gradientTransform="matrix(1 0 0 1 3079.3228 0)">
					<stop  offset="0" style="stop-color:#2B3582"/>
					<stop  offset="1" style="stop-color:#150E42"/>
				</linearGradient>
				<path style="fill:url(#SVGID_00000151502572318433853900000008784075934181171349_);" d="M2868.14,3248.506h27.337
					c5.118,0,9.943-2.349,13.064-6.405c8.521-11.074,26.178-32.679,34.621-33.242c11.366-0.759,9.912,39.647,9.912,39.647h6.371
					l8.07-50.209c2.03-12.633-4.252-25.148-15.596-31.066l0,0c0,0-2.598,19.214-16.686,27.712
					c-14.087,8.5-57.327,38.935-57.327,38.935s-5.296-0.755-11.111,0.295C2858.17,3235.732,2859.375,3248.506,2868.14,3248.506z"/>
				
					<linearGradient id="SVGID_00000074412329326283315270000003308812820283848853_" gradientUnits="userSpaceOnUse" x1="-1744.951" y1="2724.5168" x2="-1538.9667" y2="2029.3213" gradientTransform="matrix(0.9218 -0.3878 0.3878 0.9218 3612.5071 -31.6312)">
					<stop  offset="0" style="stop-color:#2B3582"/>
					<stop  offset="1" style="stop-color:#150E42"/>
				</linearGradient>
				<path style="fill:url(#SVGID_00000074412329326283315270000003308812820283848853_);" d="M3031.065,3245.39l25.197-10.601
					c4.716-1.984,8.254-6.021,9.558-10.969c3.562-13.511,11.459-40.273,19.022-44.067c10.181-5.107,24.51,32.702,24.51,32.702
					l5.872-2.471l-12.031-49.409c-3.026-12.432-13.671-21.531-26.422-22.588l0,0c0,0,5.055,18.718-4.634,32.015
					c-9.689,13.296-37.744,58.118-37.744,58.118s-5.174,1.357-10.127,4.58C3016.922,3237.482,3022.985,3248.789,3031.065,3245.39z"
					/>
				
					<linearGradient id="SVGID_00000115492409511985570390000009115054145524270983_" gradientUnits="userSpaceOnUse" x1="2738.8796" y1="2764.9524" x2="3392.8792" y2="2162.4495">
					<stop  offset="0" style="stop-color:#CB236D"/>
					<stop  offset="1" style="stop-color:#4C246D"/>
				</linearGradient>
				<path style="fill:url(#SVGID_00000115492409511985570390000009115054145524270983_);" d="M2884.644,2338.206
					c0,0,3.162,22.947-1.47,86.03c-4.632,63.083-26.77,211.191-22.262,352.898c0,0,62.936,17.371,172.278,9.143
					c0,0,46.146-221.247,34.903-305.357c-11.241-84.111-72.222-144.451-72.222-144.451L2884.644,2338.206z"/>
				
					<linearGradient id="SVGID_00000083049382787396338080000011507711118371751615_" gradientUnits="userSpaceOnUse" x1="514.9709" y1="1852.864" x2="251.2838" y2="2100.2405" gradientTransform="matrix(-1 0 0 1 3305.3694 0)">
					<stop  offset="0" style="stop-color:#F9B776"/>
					<stop  offset="1" style="stop-color:#F47960"/>
				</linearGradient>
				<polygon style="fill:url(#SVGID_00000083049382787396338080000011507711118371751615_);" points="2931.147,1982.03 
					2923.455,2072.479 2996.536,2072.479 2978.365,1934.414 				"/>
				
					<linearGradient id="SVGID_00000012446581848974069620000000298968056019530630_" gradientUnits="userSpaceOnUse" x1="405.3703" y1="2120.9421" x2="-202.3026" y2="2970.6548" gradientTransform="matrix(-1 0 0 1 3305.3694 0)">
					<stop  offset="0" style="stop-color:#FDF53F"/>
					<stop  offset="1" style="stop-color:#D93C65"/>
				</linearGradient>
				<path style="fill:url(#SVGID_00000012446581848974069620000000298968056019530630_);" d="M3018.185,2059.972
					c-25.222-1.391-81.612-3.965-121.562-1.788c-21.032,1.146-38.652,16.236-42.955,36.857l-9.743,46.694
					c-3.63,17.392-3.087,35.397,1.583,52.538l39.136,143.662c0,0,34.809,20.918,111.227-1.467c0,0,67.111-160.036,39.64-262.411
					C3033.377,2066.108,3026.405,2060.425,3018.185,2059.972z"/>
				
					<linearGradient id="SVGID_00000071554869807986623310000006375341750179727501_" gradientUnits="userSpaceOnUse" x1="316.6031" y1="2052.7324" x2="857.5699" y2="2487.6809" gradientTransform="matrix(-1 0 0 1 3305.3694 0)">
					<stop  offset="0" style="stop-color:#F9B776"/>
					<stop  offset="1" style="stop-color:#F47960"/>
				</linearGradient>
				<path style="fill:url(#SVGID_00000071554869807986623310000006375341750179727501_);" d="M2855.578,2086.665
					c-10.764,28.357-20.487,58.091-30.932,85.938c-5.312,13.938-10.698,27.601-16.462,40.149
					c-2.915,6.249-6.117,11.991-9.056,17.198c-2.943,5.154-6.256,9.44-7.981,11.414c-0.338,0.293,0.795,0.516,1.175,0.535
					c0.229,0.029-7.277,1.231-9.58,1.617l-8.996-0.053c-12.895-0.664-27.499-2.937-42.148-5.783
					c-29.548-5.509-60.269-13.245-91.812-19.097l-0.242-0.045c-6.035-1.12-11.836,2.866-12.956,8.902
					c-0.738,3.981,0.76,7.87,3.585,10.371c12.718,11.196,26.2,20.393,40.185,29.345c7.039,4.304,14.201,8.523,21.48,12.574
					c7.424,3.784,14.868,7.598,22.6,11.125c15.567,6.783,31.649,13.031,50.174,17.045c4.869,0.814,9.674,1.669,14.683,2.34
					c5.618,0.195,10.72,0.693,16.857,0.337c3.259-0.323,6.533-0.722,9.799-1.198c1.741-0.307,3.021-0.34,5.131-0.922
					c2.238-0.671,4.472-1.424,6.673-2.25c4.6-1.651,7.574-3.65,11.311-5.729c3.103-2.046,5.933-4.185,8.676-6.378
					c10.129-8.627,16.417-17.189,21.96-25.409c5.527-8.213,9.909-16.441,13.842-24.507c7.889-16.108,14.05-32.069,19.048-48.141
					c10.13-32.207,16.993-63.861,19.89-97.483c1.387-16.104-10.544-30.284-26.649-31.672c-13.329-1.149-25.34,6.827-29.87,18.741
					L2855.578,2086.665z"/>
				
					<linearGradient id="SVGID_00000078014428897115194710000002014777374029004684_" gradientUnits="userSpaceOnUse" x1="388.3629" y1="1963.4808" x2="929.3286" y2="2398.4285" gradientTransform="matrix(-1 0 0 1 3305.3694 0)">
					<stop  offset="0" style="stop-color:#F9B776"/>
					<stop  offset="1" style="stop-color:#F47960"/>
				</linearGradient>
				<path style="fill:url(#SVGID_00000078014428897115194710000002014777374029004684_);" d="M2649.715,2233.034l-13.041-30.957
					l-68.639-17.103c0,0-5.492,11.898,23.337,17.103c0,0-10.297,11.382-4.805,24.766
					C2592.058,2240.229,2650.401,2253.638,2649.715,2233.034z"/>
				
					<linearGradient id="SVGID_00000050650436593412736240000005259722298102768013_" gradientUnits="userSpaceOnUse" x1="481.5723" y1="2078.0188" x2="339.5563" y2="1870.354" gradientTransform="matrix(-1 0 0 1 3305.3694 0)">
					<stop  offset="0" style="stop-color:#F9B776"/>
					<stop  offset="1" style="stop-color:#F47960"/>
				</linearGradient>
				<path style="fill:url(#SVGID_00000050650436593412736240000005259722298102768013_);" d="M2900.205,1877.571
					c-2.61,1.539-23.17,74.055-5.941,104.459c17.229,30.403,69.843-3.652,84.101-47.616
					C2992.623,1890.45,2969.715,1836.577,2900.205,1877.571z"/>
				
					<linearGradient id="SVGID_00000037680454116700068810000011708304307561346978_" gradientUnits="userSpaceOnUse" x1="545.1699" y1="1726.3928" x2="153.7664" y2="2200.1965" gradientTransform="matrix(-1 0 0 1 3305.3694 0)">
					<stop  offset="0" style="stop-color:#2B3582"/>
					<stop  offset="1" style="stop-color:#150E42"/>
				</linearGradient>
				<path style="fill:url(#SVGID_00000037680454116700068810000011708304307561346978_);" d="M3053.802,1907.866
					c5.355,4.532,11.004,8.782,15.068,14.461c9.02,12.606,8.605,29.807,16.045,43.405c7.858,14.361,22.128,19.522,34.545,28.624
					c12.747,9.344,22.052,23.502,25.16,39.032c3.398,16.982-5.456,33.692-3.121,49.544c1.696,11.516,14.22,17.485,14.678,29.934
					c0.461,12.511-6.694,23.659-18.48,28.083c-6.7,2.514-14.797,2.884-19.444,8.327c-5.602,6.561-3.054,16.768-6.321,24.755
					c-9.676,23.653-34.5,7.785-50.206,3.724c-18.107-4.682-36.454,6.612-55.151,7.079c-24.474,0.611-47.484-20.421-49.071-44.851
					c-0.453-6.978,0.62-14.02-0.239-20.96c-1.73-13.986-10.048-20.495-19.809-28.988c-10.135-8.818-16.07-22.268-15.752-35.698
					c0.632-26.697,19.974-47.35,29.007-71.298c4.829-12.801,8.191-23.591,1.035-35.89c-7.397-12.715-19.747-22.19-31.776-30.231
					c-9.229-6.169-18.889-12.02-26.238-20.34c-7.348-8.321-12.144-19.792-9.505-30.575c7.254-29.638,61.963-47.528,88.771-43.091
					c20.03,3.315,35.823,12.769,46.262,30.248c8.677,14.528,15.19,32.835,25.797,46.089
					C3047.617,1902.449,3050.659,1905.206,3053.802,1907.866z"/>
			</g>
		</g>
		<g>
			
				<linearGradient id="SVGID_00000129905732562975183320000000420942587242735787_" gradientUnits="userSpaceOnUse" x1="780.3251" y1="2612.2805" x2="1468.0878" y2="2612.2805">
				<stop  offset="0" style="stop-color:#2B3582"/>
				<stop  offset="1" style="stop-color:#150E42"/>
			</linearGradient>
			<path style="fill:url(#SVGID_00000129905732562975183320000000420942587242735787_);" d="M791.575,2130.707
				c-3.621,170.875-15.365,760.288-9.758,969.158c0.594,22.127,15.757,39.888,34.672,40.612
				c93.55,3.581,436.499,12.659,589.515,5.149c31.871-1.564,57.216-31.765,57.877-69.074c3.18-179.355,10.195-683.813-6.479-914.906
				c-1.999-27.688-20.575-49.737-44.209-52.504c-101.881-11.923-446.304-41.068-578.501-31.032
				C810.849,2079.92,792.167,2102.766,791.575,2130.707z"/>
			
				<linearGradient id="SVGID_00000044161762895736365650000018189791010768421303_" gradientUnits="userSpaceOnUse" x1="1181.0737" y1="1997.2687" x2="932.6579" y2="4399.8677">
				<stop  offset="0" style="stop-color:#53D8FF"/>
				<stop  offset="1" style="stop-color:#3840F7"/>
			</linearGradient>
			<path style="fill:url(#SVGID_00000044161762895736365650000018189791010768421303_);" d="M833.317,2183.133
				c-5.035,137.922-20.919,596.755-15.878,766.421c0.737,24.799,17.444,44.851,38.619,46.301
				c87.184,5.968,384.635,19.128,512.512,7.15c23.026-2.157,41.096-23.942,42.338-50.927
				c6.48-140.709,25.087-567.946,20.255-735.712c-0.771-26.763-18.492-48.62-41.291-51.014
				c-94.319-9.907-410.394-33.479-519.06-26.543C850.413,2140.11,834.188,2159.256,833.317,2183.133z"/>
			<path style="opacity:0.5;fill:#FFFFFF;" d="M1022.774,2107.968L1022.774,2107.968c0,5.243,3.493,9.567,7.968,9.841
				c22.096,1.354,84.341,5.184,112.159,7.072c5.485,0.373,9.79-5.395,8.749-11.706l-0.177-1.077
				c-0.71-4.306-3.763-7.547-7.496-7.948c-18.804-2.016-75.542-7.605-113.136-6.035
				C1026.327,2098.304,1022.774,2102.682,1022.774,2107.968z"/>
			
				<linearGradient id="SVGID_00000160869895443949312200000016127699839938537878_" gradientUnits="userSpaceOnUse" x1="1072.9651" y1="3108.6465" x2="1147.1202" y2="2011.1611">
				<stop  offset="0" style="stop-color:#53D8FF"/>
				<stop  offset="1" style="stop-color:#3840F7"/>
			</linearGradient>
			<path style="fill:url(#SVGID_00000160869895443949312200000016127699839938537878_);" d="M1431.925,2268.564
				c-0.078-18.539-0.321-36.759-0.761-52.024c-0.771-26.763-18.492-48.707-41.291-51.102
				c-94.319-9.907-410.395-33.523-519.061-26.587c-20.399,1.303-36.624,20.6-37.495,44.477c-0.781,21.395-1.342,38.254-2.527,71.624
				L1431.925,2268.564z"/>
			<path style="opacity:0.61;fill:#FFFFFF;" d="M1127.089,2562.519H881.258c-14.532,0-26.312-12.131-26.312-27.095v-215.857
				c0-13.676,10.934-24.67,24.211-24.343l248.109,6.106c13.648,0.336,24.541,11.825,24.541,25.883v209.853
				C1151.807,2551.123,1140.74,2562.519,1127.089,2562.519z"/>
			<path style="opacity:0.61;fill:#FFFFFF;" d="M1393.938,2562.519H1182.51c-4.964,0-8.989-4.024-8.989-8.989v-244.582
				c0-3.874,3.14-7.014,7.014-7.014h213.877c3.899,0,7.059,3.16,7.059,7.059v245.993
				C1401.471,2559.146,1398.098,2562.519,1393.938,2562.519z"/>
			<path style="opacity:0.61;fill:#FFFFFF;" d="M1394.234,2774.049H854.125c-4.425,0-8.011-3.587-8.011-8.011v-162.841
				c0-3.59,2.91-6.5,6.5-6.5h541.299c4.175,0,7.559,3.384,7.559,7.559v162.556
				C1401.471,2770.808,1398.231,2774.049,1394.234,2774.049z"/>
			<path style="opacity:0.61;fill:#FFFFFF;" d="M1343.913,2974.26l-472.723-6.589c-14.013-0.195-25.258-10.415-25.258-22.954
				V2830.28c0-11.038,10.001-19.986,22.337-19.986h497.306c11.796,0,21.366,8.541,21.398,19.095l0.316,106.56
				C1387.352,2957.326,1367.803,2974.593,1343.913,2974.26z"/>
			<circle style="opacity:0.74;fill:#FFFFFF;" cx="882.573" cy="2212.33" r="16.685"/>
			
				<ellipse transform="matrix(0.1602 -0.9871 0.9871 0.1602 -1397.4437 2785.3792)" style="opacity:0.74;fill:#FFFFFF;" cx="938.188" cy="2213.938" rx="16.685" ry="16.685"/>
			<circle style="opacity:0.74;fill:#FFFFFF;" cx="990.096" cy="2217.028" r="16.685"/>
		</g>
	</g>
</g>
</svg>
