<?xml version="1.0" encoding="utf-8"?>
<!-- Generator: Adobe Illustrator 27.5.0, SVG Export Plug-In . SVG Version: 6.00 Build 0)  -->
<svg version="1.1" xmlns="http://www.w3.org/2000/svg" xmlns:xlink="http://www.w3.org/1999/xlink" x="0px" y="0px"
	 viewBox="0 0 500 500" style="enable-background:new 0 0 500 500;" xml:space="preserve">
<g id="BACKGROUND">
	<linearGradient id="SVGID_1_" gradientUnits="userSpaceOnUse" x1="4.5265" y1="4.5265" x2="499.0135" y2="499.0135">
		<stop  offset="0" style="stop-color:#FED0A9"/>
		<stop  offset="0.6727" style="stop-color:#F97683"/>
		<stop  offset="1" style="stop-color:#F74F72"/>
	</linearGradient>
	<rect style="fill:url(#SVGID_1_);" width="500" height="500"/>
</g>
<g id="OBJECTS">
	<g>
		<defs>
			<rect id="SVGID_00000152252733143178993110000004376438142653708454_" width="500" height="500"/>
		</defs>
		<clipPath id="SVGID_00000173141973845340703750000006434758790173974207_">
			<use xlink:href="#SVGID_00000152252733143178993110000004376438142653708454_"  style="overflow:visible;"/>
		</clipPath>
		<g style="clip-path:url(#SVGID_00000173141973845340703750000006434758790173974207_);">
			<g>
				<g>
					
						<rect x="63.767" y="-3.576" transform="matrix(0.9798 0.1999 -0.1999 0.9798 18.7062 -27.6276)" style="fill:#F2EFE2;" width="164.777" height="164.777"/>
					<path style="fill:#8091C1;" d="M81.901-18.383l161.451,32.941l-32.941,161.451L48.959,143.068L81.901-18.383 M77.221-25.462
						l-1.2,5.879L43.081,141.868l-1.2,5.879l5.879,1.199l161.451,32.941l5.879,1.199l1.2-5.879l32.941-161.451l1.199-5.879
						l-5.879-1.2L83.1-24.262L77.221-25.462L77.221-25.462z"/>
				</g>
				<polygon style="fill:#FFD100;" points="210.411,176.009 48.959,143.068 64.779,65.533 228.095,89.332 				"/>
				<g>
					<defs>
						
							<rect id="SVGID_00000158707127016613377010000001125501073299413692_" x="63.767" y="-3.576" transform="matrix(0.9798 0.1999 -0.1999 0.9798 18.7062 -27.6276)" width="164.777" height="164.777"/>
					</defs>
					<clipPath id="SVGID_00000085227189958466414820000002156963923250257051_">
						<use xlink:href="#SVGID_00000158707127016613377010000001125501073299413692_"  style="overflow:visible;"/>
					</clipPath>
					<g style="clip-path:url(#SVGID_00000085227189958466414820000002156963923250257051_);">
						<g>
							<g>
								
									<ellipse transform="matrix(0.0501 -0.9987 0.9987 0.0501 47.5454 221.9637)" style="fill:#FFFFFF;" cx="140.464" cy="85.986" rx="27.952" ry="95.583"/>
							</g>
							<g>
								
									<ellipse transform="matrix(0.0501 -0.9987 0.9987 0.0501 50.1054 219.7626)" style="fill:#F7EDD7;" cx="140.586" cy="83.54" rx="27.952" ry="95.583"/>
							</g>
							<g>
								<path style="fill:#F0E4C9;" d="M167.738,95.681c5.054-1.035,10.111-2.083,15.144-3.218c2.962-0.668,6.301-1.495,8.384-3.877
									c2.605-2.98,2.501-7.483,2.462-11.19c-0.053-4.969-0.581-9.916-0.884-14.874c-14.635-3.484-32.064-5.957-50.856-6.9
									c-52.723-2.646-96.091,7.708-96.864,23.126c-0.605,12.054,25.005,23.634,61.404,29.378
									C126.818,103.447,147.34,99.857,167.738,95.681z"/>
							</g>
							<g>
								<path style="fill:#EDDDBB;" d="M193.727,77.396c-0.053-4.969-0.581-9.916-0.884-14.874
									c-14.635-3.484-32.064-5.957-50.856-6.9c-19.338-0.97-37.401-0.185-52.58,1.952c-0.769,0.108-2.84,4.009-3.352,4.729
									c-1.055,1.485-1.978,3.015-3.048,4.483c-2.537,3.48-4.999,7.167-7.767,10.433c-2.409,2.843-4.101,5.819-3.32,9.724
									c1.263,6.313,7.961,8.786,13.615,9.719c6.86,1.132,14.086,0.781,21.044,0.713c7.471-0.074,14.94-0.346,22.396-0.817
									c19.963-1.261,39.603-4.808,59.495-6.372c0.336-0.026,0.677-0.053,1.016-0.08c0.654-0.424,1.255-0.923,1.777-1.52
									C193.871,85.606,193.767,81.103,193.727,77.396z"/>
							</g>
						</g>
						<g>
							<g>
								<path style="fill:#F7C99C;" d="M194.711,80.976c0.052-9.439,0.181-18.865,0.165-28.344c-0.003-1.494-0.011-3.022-0.51-4.43
									c-1.193-3.364-4.114-3.422-7.141-3.684c-4.127-0.357-8.253-0.717-12.379-1.075c-17.895-1.554-35.78-3.146-53.715-4.171
									c-9.401-0.537-18.809-0.961-28.221-1.272c-4.35-0.144-4.803-0.243-4.818,4.338c-0.012,3.805-0.025,7.61-0.038,11.416
									c-0.02,6.067-0.113,12.133-0.218,18.199c-0.052,2.992-0.099,5.983-0.126,8.975c-0.012,1.345-0.027,2.693,0.019,4.037
									c0.041,1.201-0.329,2.772,0.729,3.659c0.572,0.479,1.377,0.53,2.123,0.559c5.406,0,10.826,0.468,16.232,0.566
									c4.412,0.08,8.826,0.078,13.238-0.007c17.472-0.335,34.947,0.064,52.404-0.509c3.528-0.116,7.055-0.274,10.579-0.49
									c2.567-0.157,8.325,0.506,10.497-0.849C195.544,86.637,194.699,83.09,194.711,80.976z"/>
							</g>
							<g>
								<path style="fill:#E6B78A;" d="M109.366,86.57c-7.43-5.111-11.703-16.118-5.754-23.872c2.492-3.248,5.41-4.453,9.403-3.586
									c3.356,0.728,6.473,1.934,9.982,1.708c3.639-0.234,6.261-1.977,9.558-3.239c5.587-2.139,10.406,1.794,15.692,3.002
									c4.289,0.98,6.886-1.095,10.616-2.578c2.279-0.906,4.559-0.899,6.84,0.006c3.001,1.191,5.447,3.264,8.713,3.85
									c4.099,0.736,6.965-1.572,10.794-2.125c2.734-0.394,5.289,0.823,7.818,1.686c0.609,0.208,1.211,0.392,1.811,0.564
									c0.018-3.116,0.043-6.229,0.038-9.354c-0.003-1.494-0.011-3.022-0.51-4.43c-1.193-3.363-4.114-3.421-7.141-3.684
									c-4.127-0.357-8.253-0.717-12.379-1.075c-17.895-1.554-35.78-3.146-53.715-4.171c-9.401-0.538-18.809-0.961-28.221-1.272
									c-4.35-0.144-4.803-0.243-4.818,4.338c-0.012,3.805-0.025,7.61-0.038,11.416c-0.02,6.067-0.113,12.133-0.218,18.199
									c-0.052,2.992-0.099,5.983-0.126,8.976c-0.012,1.345-0.027,2.693,0.019,4.037c0.041,1.201-0.329,2.772,0.729,3.659
									c0.572,0.479,1.377,0.53,2.123,0.559c5.406,0,10.826,0.468,16.232,0.566c2.864,0.052,5.729,0.057,8.594,0.039
									C113.266,88.897,111.218,87.844,109.366,86.57z"/>
							</g>
							<g>
								<path style="fill:#C99C71;" d="M189.87,68.888c-1.911-0.189-3.82-0.227-5.726-0.479c-2.527-0.334-4.877-0.901-7.232,0.351
									c-2.603,1.385-5.518,1.374-8.433,1.424c-3.774,0.065-7.518-0.022-11.276-0.361c-4.221-0.381-8.448-0.398-12.677-0.628
									c-4.253-0.231-8.146,0.301-12.345,0.891c-4.064,0.571-8.178,0.625-12.271,0.799c-2.216,0.094-4.47,0.413-6.683,0.19
									c-1.562-0.157-3.08-0.569-4.621-0.851c-4.045-0.739-8.029,1.105-11.966,0.013c-2.099-0.582-4.064-1.409-6.27-1.581
									c-0.83-0.065-1.663-0.014-2.497,0.068c-0.018,1.076-0.02,2.151-0.039,3.227c-0.019,1.076-0.029,2.151-0.045,3.227
									c1.702,0.242,3.385,0.697,5.115,1.16c4.656,1.247,8.57,0.861,13.229-0.179c3.407-0.761,6.582-0.706,10.014-0.145
									c2.382,0.389,4.646,0.777,7.059,0.544c1.926-0.186,3.835-0.501,5.776-0.35c4.14,0.322,7.816,2.273,12.062,1.494
									c1.608-0.295,3.181-0.76,4.821-0.879c1.9-0.137,3.746,0.396,5.634,0.379c3.656-0.033,6.693-2.495,10.485-2.356
									c3.904,0.144,7.663-0.285,11.559-0.392c3.943-0.109,7.701,0.978,11.603,1.371c3.2,0.323,6.407,0.513,9.595,0.927
									c0.018-2.417,0.037-4.834,0.056-7.251C193.162,69.276,191.522,69.051,189.87,68.888z"/>
							</g>
							<g>
								<path style="fill:#F77474;" d="M140.753,52.988c0.913,0.245,1.871,0.389,2.793,0.499c0.697,0.082,1.439,0.15,2.07-0.158
									c0.668-0.326,1.074-1.004,1.528-1.592c1.554-2.01,4.246-3.243,6.707-2.615c4.043,1.032,6.503,6.472,10.645,5.965
									c2.086-0.256,3.614-1.999,5.115-3.47c1.501-1.471,3.577-2.856,5.567-2.179c1.487,0.506,2.365,1.987,3.289,3.257
									c0.924,1.27,2.305,2.531,3.85,2.251c1.254-0.227,2.085-1.375,2.924-2.335c2.253-2.581,3.123-1.041,5.004,0.644
									c1.809,1.62,3.543,1.952,5.339,0.028c0.697-0.747,0.932-1.833,0.858-2.852c-0.128-1.766-1.09-3.391-2.342-4.643
									c-5.572-5.576-13.22-10.078-19.798-14.422c-6.829-4.51-13.859-8.716-21.062-12.6c-4.879-2.631-10.114-5.18-15.653-4.975
									c-4.666,0.172-9.012,2.284-13.197,4.353c-9.21,4.554-18.419,9.107-27.629,13.661c-5.287,2.614-13.135,6.707-11.917,13.844
									c0.318,1.866,1.746,3.688,3.635,3.8c2.143,0.127,3.853-1.856,5.967-2.225c2.417-0.422,4.614,1.305,6.567,2.789
									c1.953,1.484,4.54,2.876,6.736,1.784c0.832-0.413,1.462-1.131,2.149-1.756c1.459-1.328,3.441-2.319,5.368-1.896
									c3.436,0.753,5.149,5.515,8.665,5.613c2.306,0.065,4.044-1.944,5.747-3.5c1.703-1.556,4.486-2.756,6.161-1.17
									c0.493,0.467,0.785,1.102,1.192,1.646C137.931,51.935,139.283,52.593,140.753,52.988z"/>
							</g>
							<g>
								<path style="fill:#FF8484;" d="M170.498,30.837c-0.722-0.444-1.445-0.887-2.168-1.329
									c-5.071-3.095-10.181-6.128-15.328-9.097c-4.697-2.71-9.894-5.678-15.49-5.789c-1.975-0.039-3.901,0.37-5.779,0.995
									c-1.682,0.56-3.326,1.293-4.932,2.034c-5.791,2.67-11.498,5.518-17.204,8.366c-6.386,3.187-12.46,6.888-18.72,10.31
									c-0.429,0.234-0.918,0.572-0.892,1.059c0.034,0.628,0.842,0.843,1.47,0.886c23.683,1.64,47.442,2.666,71.067,4.879
									c0.234,0.022,0.469,0.044,0.703,0.066c3.993,0.413,7.994,0.752,11.99,1.132c2.058,0.195,4.117,0.391,6.175,0.588
									c1.265,0.121,8.345,1.862,7.525-1.316c-0.109-0.42-0.433-0.744-0.744-1.047c-2.711-2.636-6.106-4.481-9.291-6.501
									C176.098,34.309,173.304,32.563,170.498,30.837z"/>
							</g>
						</g>
					</g>
				</g>
				<path style="fill:#F76060;" d="M211.327,150.117c-0.306-0.278-0.781-0.254-1.059,0.053c-0.966,1.068-2.403,1.557-4.181,2.084
					l-1.157,0.343c0.206-0.968,0.36-1.977,0.463-3.022c0.332-3.384,0.089-6.694-0.192-9.485c-0.036-0.353-0.313-0.633-0.666-0.67
					c-0.358-0.042-0.684,0.177-0.793,0.515c-0.438,1.355-0.891,2.755-1.597,3.997c-0.521,0.919-1.427,2.151-2.78,2.807
					c-0.267,0.129-0.466,0.181-0.586,0.157c-0.168-0.034-0.359-0.12-0.508-0.494c-0.601-1.515,0.435-5.124,1.051-5.999
					c0,0,0.001-0.001,0.001-0.002c0.239-0.338,0.159-0.806-0.18-1.045c-0.338-0.24-0.806-0.159-1.045,0.18
					c-1.5,2.123-3.2,4.529-5.557,5.878c-0.432,0.247-0.749,0.338-0.941,0.273c-0.359-0.123-0.465-0.875-0.412-1.565
					c0.106-1.358,0.335-2.718,0.682-4.042c0.051-0.194,0.133-0.397,0.214-0.604c0.302-0.765,0.808-2.046-0.331-2.971
					c-0.438-0.354-0.966-0.493-1.523-0.402c-1.599,0.26-3.2,2.438-4.012,3.713c-0.458,0.717-0.93,1.423-1.404,2.128
					c0.002-0.02,0.005-0.04,0.007-0.059c0.204-1.646,0.415-3.349-0.137-5.015c-0.061-0.183-0.221-0.667-0.692-0.912
					c-0.445-0.23-0.909-0.109-1.063-0.068c-1.294,0.342-2.251,1.292-2.986,2.34c0.111-1.004,0.174-2.018,0.162-3.038
					c-0.004-0.345-0.244-0.643-0.581-0.721c-0.336-0.078-0.683,0.083-0.838,0.392c-1.299,2.565-2.642,5.218-4.721,7.205
					c-0.204,0.195-0.307,0.249-0.311,0.276c-0.05-0.076-0.128-0.324-0.115-0.748l0.105-3.362c0.03-0.958,0.064-2.044-0.243-3.089
					c-0.084-0.284-0.218-0.647-0.514-0.94c-0.847-0.838-2.143-0.439-3.052,0.33c-0.96,0.811-1.783,1.793-2.43,2.88
					c-0.044-0.56-0.112-1.12-0.216-1.678c-0.214-1.161-0.935-1.87-1.798-1.76c-0.318,0.04-0.566,0.184-0.768,0.321
					c-0.937,0.64-1.609,1.541-2.143,2.338c-0.281,0.419-0.548,0.847-0.802,1.284l0.241-3.909c0.022-0.353-0.206-0.673-0.547-0.769
					c-0.34-0.098-0.701,0.061-0.866,0.374c-1.143,2.179-2.292,4.354-3.444,6.528c-0.443,0.836-0.711,0.905-0.821,0.905
					c-0.119-0.008-0.273-0.159-0.353-0.342c-0.121-0.279-0.135-0.641-0.14-1.019c-0.035-2.559,0.155-5.047,0.564-7.398
					c0.071-0.405-0.198-0.792-0.603-0.866c-0.402-0.073-0.793,0.191-0.872,0.595c-0.446,2.295-1.422,4.497-2.825,6.37
					c-0.581,0.776-1.09,1.153-1.557,1.153c-0.005,0-0.009,0-0.014,0c-0.263-0.004-0.473-0.105-0.66-0.316
					c-0.459-0.517-0.701-1.625-0.589-2.695c0.113-1.081,0.314-2.15,0.602-3.196c0.27-0.682,0.502-1.378,0.696-2.087
					c0.105-0.384-0.109-0.784-0.487-0.91c-0.378-0.125-0.789,0.066-0.935,0.437c-0.269,0.682-0.502,1.378-0.699,2.082
					c-0.931,2.325-2.326,4.453-4.084,6.235c0.914-3.782,1.497-7.617,1.737-11.43c0.022-0.361-0.215-0.687-0.566-0.775
					c-0.352-0.087-0.714,0.087-0.865,0.415c-0.189,0.414-0.387,0.883-0.599,1.384c-1.195,2.834-2.832,6.714-5.679,6.831
					c-0.83,0.044-1.662-0.388-2.082-1.05c-0.662-1.044-0.339-2.512,0.047-3.56c0.135-0.365,0.287-0.727,0.439-1.089
					c0.428-1.02,0.871-2.074,0.973-3.245c0.026-0.294-0.123-0.575-0.38-0.72c-0.257-0.144-0.575-0.124-0.812,0.051
					c-2.396,1.769-4.404,2.402-7.139,2.244c-0.407-0.009-0.768,0.293-0.791,0.707c-0.023,0.414,0.293,0.768,0.707,0.791
					c2.452,0.138,4.436-0.296,6.487-1.467c-0.129,0.349-0.277,0.7-0.428,1.059c-0.16,0.382-0.32,0.764-0.463,1.15
					c-0.722,1.958-0.69,3.646,0.094,4.882c0.707,1.116,2.027,1.794,3.409,1.747c2.717-0.111,4.438-2.389,5.691-4.85
					c-0.393,2.882-0.982,5.759-1.763,8.598c-0.008,0.029-0.016,0.059-0.024,0.088c-0.01,0.008-0.021,0.016-0.031,0.023
					c-0.989,0.746-2.085,1.416-3.145,2.064c-1.706,1.043-3.471,2.122-4.936,3.589c-1.118,1.12-1.747,2.215-1.922,3.347
					c-0.243,1.571,0.561,3.154,1.869,3.683c1.402,0.569,3.105-0.054,4.558-1.659c1.971-2.178,3.582-5.507,4.917-10.167
					c1.575-1.259,2.951-2.749,4.083-4.406c0.044,1.001,0.314,2.137,0.985,2.893c0.467,0.526,1.075,0.811,1.759,0.821
					c0.013,0,0.025,0,0.037,0c1.444,0,2.432-1.319,2.758-1.754c0.38-0.507,0.731-1.037,1.053-1.584
					c-0.021,0.663-0.027,1.332-0.018,2.005c0.007,0.515,0.033,1.062,0.263,1.595c0.311,0.717,0.932,1.193,1.622,1.242
					c1.28,0.083,2.018-1.256,2.253-1.699c0.607-1.146,1.214-2.292,1.819-3.439l-0.264,4.272c-0.023,0.37,0.228,0.702,0.59,0.78
					c0.364,0.077,0.728-0.121,0.859-0.467c0.604-1.589,1.389-3.11,2.333-4.521c0.454-0.678,1.017-1.438,1.741-1.933
					c0.023-0.016,0.042-0.028,0.058-0.039c0.061,0.089,0.145,0.267,0.189,0.51c0.334,1.803,0.27,3.702,0.208,5.538
					c-0.014,0.396,0.284,0.734,0.678,0.772c0.391,0.039,0.751-0.237,0.813-0.629c0.367-2.311,1.603-4.501,3.39-6.01
					c0.467-0.395,0.927-0.509,1.028-0.41c0.027,0.027,0.073,0.102,0.131,0.299c0.239,0.814,0.21,1.731,0.183,2.619l-0.104,3.362
					c-0.039,1.263,0.454,2.109,1.317,2.263c0.801,0.146,1.415-0.441,1.644-0.661c1.374-1.314,2.454-2.896,3.38-4.508
					c-0.19,1.463-0.477,2.92-0.768,4.353c-0.036,0.149-0.067,0.301-0.092,0.456c-0.065,0.403,0.204,0.785,0.606,0.858
					c0.398,0.073,0.788-0.188,0.87-0.588c0.026-0.129,0.053-0.258,0.079-0.388c0.175-0.71,0.518-1.413,0.909-2.178
					c0.713-1.393,1.683-3.285,3.281-3.793c0.437,1.339,0.256,2.796,0.065,4.338c-0.123,0.989-0.249,2.012-0.211,3.04
					c0.012,0.327,0.235,0.608,0.55,0.695c0.314,0.085,0.65-0.041,0.829-0.315c0.442-0.682,0.895-1.354,1.348-2.026
					c0.552-0.819,1.104-1.638,1.635-2.472c1.085-1.704,2.285-2.925,2.988-3.039c0.137-0.02,0.233,0.002,0.337,0.087
					c0.221,0.179,0.232,0.366-0.118,1.255c-0.105,0.265-0.206,0.526-0.271,0.774c-0.369,1.41-0.613,2.858-0.726,4.305
					c-0.126,1.618,0.391,2.748,1.42,3.101c0.834,0.285,1.64-0.086,2.173-0.39c1.325-0.758,2.438-1.777,3.42-2.888
					c-0.163,1.156-0.158,2.302,0.17,3.128c0.387,0.975,1.085,1.306,1.604,1.411c0.61,0.124,1.169-0.098,1.538-0.277
					c1.346-0.652,2.532-1.833,3.431-3.416c0.195-0.343,0.371-0.692,0.532-1.046c0.101,1.851,0.113,3.82-0.081,5.802
					c-0.126,1.284-0.334,2.506-0.623,3.659l-5.868,1.741c-1.912,0.567-3.89,1.154-5.69,2.179c-1.462,0.833-3.394,2.314-4.289,4.646
					c-0.314,0.817-0.427,1.587-0.335,2.289c0.192,1.477,1.364,2.806,2.915,3.307c0.503,0.162,1.04,0.243,1.595,0.243
					c0.86,0,1.762-0.193,2.645-0.575c1.308-0.566,2.416-1.459,3.329-2.258c2.21-1.936,3.858-3.864,5.037-5.892
					c0.787-1.354,1.419-2.852,1.891-4.479l2.007-0.595c1.578-0.468,3.541-1.05,4.866-2.516
					C211.658,150.869,211.634,150.395,211.327,150.117z M137.564,150.893c-0.782,0.863-1.949,1.651-2.884,1.275
					c-0.746-0.302-1.068-1.286-0.948-2.063c0.125-0.806,0.616-1.629,1.502-2.517c1.338-1.34,2.95-2.326,4.656-3.369
					c0.561-0.343,1.132-0.692,1.696-1.058C140.441,146.636,139.117,149.178,137.564,150.893z M201.319,158.012
					c-1.096,1.886-2.642,3.69-4.728,5.518c-0.825,0.722-1.818,1.526-2.936,2.009c-1.117,0.483-2.247,0.583-3.184,0.281
					c-0.995-0.321-1.771-1.173-1.889-2.073c-0.059-0.452,0.025-0.975,0.249-1.558c0.736-1.918,2.38-3.168,3.63-3.88
					c1.65-0.939,3.543-1.501,5.374-2.044l4.935-1.464C202.377,155.954,201.893,157.025,201.319,158.012z"/>
			</g>
			<g>
				<g>
					
						<rect x="330.901" y="272.482" transform="matrix(0.9102 -0.4141 0.4141 0.9102 -109.8506 202.9958)" style="fill:#EFDBB4;" width="164.777" height="164.777"/>
					<path style="fill:#D16565;" d="M454.166,245.761l68.233,149.986L372.413,463.98L304.18,313.995L454.166,245.761
						 M457.142,237.815l-5.461,2.484l-149.986,68.233l-5.461,2.484l2.484,5.461l68.233,149.986l2.484,5.461l5.461-2.485
						l149.986-68.233l5.461-2.485l-2.484-5.461l-68.233-149.986L457.142,237.815L457.142,237.815z"/>
				</g>
				<g>
					<polygon style="fill:#E5C07F;" points="478.829,299.974 354.406,424.398 372.413,463.98 522.399,395.747 					"/>
				</g>
				<g>
					<path style="fill:#75B3A3;" d="M339.161,329.957c-0.232,0-0.46-0.107-0.606-0.307c-1.337-1.827-2.873-3.547-4.358-5.21
						c-1.246-1.396-2.535-2.839-3.713-4.35c-0.254-0.326-0.196-0.798,0.131-1.053c0.325-0.255,0.797-0.196,1.053,0.131
						c1.146,1.472,2.418,2.896,3.648,4.272c0.426,0.477,0.855,0.958,1.283,1.445c-0.581-1.66-1.093-3.448-1.403-5.279
						c-0.271-1.605,0.064-3.151,0.896-4.136c0.64-0.756,1.544-1.155,2.615-1.155c0.001,0,0.002,0,0.004,0
						c1.871,0.003,2.819,1.969,3.386,3.143c1.143,2.367,4.455,6.97,6.453,6.97c0.002,0,0.003,0,0.005,0
						c0.197,0,0.799-0.003,1.375-1.217c0.476-1.001,0.855-2.058,1.131-3.141c-2.024-1.798-3.04-4.605-2.603-7.291
						c0.034-0.215,0.127-0.792,0.604-1.14c0.244-0.179,0.675-0.359,1.329-0.189c2.122,0.541,2.784,2.998,2.695,5.116
						c-0.04,0.97-0.159,1.941-0.35,2.899c1.176,0.741,2.786,1.033,3.788,0.172c0.713-0.612,0.984-1.69,1.156-2.661
						c0.492-2.795,0.497-5.632,0.015-8.432c-0.07-0.406,0.202-0.794,0.608-0.865c0.402-0.069,0.795,0.197,0.869,0.604
						c0.46,2.532,1.928,4.838,4.026,6.326c0.502,0.354,1.162,0.651,1.516,0.416c0.27-0.18,0.379-0.682,0.443-1.1
						c0.408-2.659,0.167-5.412-0.698-7.961c-0.133-0.391,0.075-0.815,0.465-0.95c0.39-0.137,0.815,0.07,0.952,0.459
						c0.894,2.533,2.637,4.72,4.907,6.155c0.744,0.471,1.731,0.701,2.027,0.259c0.11-0.165,0.146-0.449,0.173-0.727
						c0.183-1.926,0.08-3.885-0.296-5.788c-0.009,0.002-0.018,0.005-0.026,0.008c-1.057,0.329-2.279,0.194-3.268-0.364
						c-0.84-0.475-1.417-1.207-1.625-2.063c-0.27-1.101,0.252-2.327,1.297-3.052c0.914-0.636,1.992-0.684,2.811-0.127
						c0.716,0.488,1.072,1.252,1.351,2.005c0.161,0.433,0.308,0.872,0.44,1.315c0.624-0.549,1.159-1.264,1.654-1.992
						c1.466-2.156,2.721-4.471,3.73-6.879c0.159-0.382,0.599-0.563,0.981-0.401c0.382,0.16,0.561,0.6,0.401,0.982
						c-1.048,2.5-2.351,4.903-3.873,7.143c-0.667,0.98-1.462,2.015-2.487,2.73c0.473,2.173,0.611,4.421,0.402,6.628
						c-0.044,0.448-0.115,0.962-0.418,1.415c-0.887,1.33-2.734,1.026-4.077,0.177c-1.203-0.761-2.274-1.709-3.176-2.797
						c0.095,1.353,0.04,2.714-0.166,4.055c-0.111,0.723-0.337,1.616-1.096,2.12c-0.849,0.564-2.021,0.404-3.213-0.442
						c-1.087-0.771-2.027-1.732-2.78-2.821c-0.016,1.412-0.147,2.823-0.395,4.225c-0.217,1.234-0.584,2.619-1.655,3.539
						c-1.445,1.241-3.506,1.064-5.135,0.208c-0.283,0.987-0.645,1.95-1.082,2.87c-0.811,1.71-1.93,2.071-2.726,2.074
						c-0.003,0-0.006,0-0.009,0c-3.313,0.001-7.056-6.265-7.806-7.817c-0.559-1.161-1.178-2.294-2.036-2.295
						c-0.001,0-0.002,0-0.003,0c-0.633,0-1.113,0.204-1.469,0.624c-0.534,0.632-0.755,1.776-0.563,2.916
						c0.603,3.547,2.011,6.963,3.17,9.543c0.158,0.351,0.025,0.763-0.307,0.956C339.419,329.924,339.289,329.957,339.161,329.957z
						 M349.963,312.892c-0.008,0.031-0.017,0.073-0.025,0.128c-0.301,1.849,0.281,3.829,1.48,5.27
						c0.088-0.593,0.145-1.189,0.17-1.784c0.065-1.576-0.395-3.301-1.569-3.601C349.997,312.899,349.978,312.895,349.963,312.892z
						 M370.613,300.889c-0.293,0-0.563,0.158-0.693,0.248c-0.447,0.311-0.829,0.912-0.694,1.464c0.141,0.575,0.57,0.922,0.906,1.112
						c0.625,0.353,1.424,0.444,2.082,0.238c0.043-0.014,0.084-0.027,0.126-0.042c-0.15-0.543-0.323-1.078-0.518-1.605
						c-0.193-0.521-0.422-1.036-0.79-1.287C370.895,300.924,370.751,300.889,370.613,300.889z"/>
					<path style="fill:#75B3A3;" d="M385.305,301.649c-0.335,0-0.641-0.227-0.727-0.566l-4.103-16.246
						c-0.102-0.401,0.143-0.81,0.544-0.911c0.396-0.1,0.81,0.142,0.911,0.544l4.103,16.246c0.101,0.401-0.143,0.81-0.544,0.911
						C385.428,301.643,385.366,301.649,385.305,301.649z"/>
					<path style="fill:#75B3A3;" d="M385.847,306.969c-0.189,0-0.379-0.071-0.524-0.214l-0.095-0.095
						c-0.292-0.293-0.311-0.789-0.018-1.081c0.293-0.292,0.748-0.311,1.038-0.021c0.001,0.001,0.044,0.044,0.045,0.045l0.079,0.079
						c0.296,0.289,0.302,0.765,0.012,1.061C386.236,306.894,386.041,306.969,385.847,306.969z"/>
					<path style="fill:#75B3A3;" d="M389.364,299.06c-0.374,0-0.697-0.279-0.743-0.66c-0.329-2.716-0.914-5.418-1.738-8.03
						l-0.274-0.849c-0.417-1.277-0.849-2.599-1.017-3.988c-0.05-0.411,0.243-0.784,0.654-0.834c0.402-0.052,0.784,0.243,0.834,0.654
						c0.151,1.243,0.541,2.438,0.954,3.703l0.278,0.862c0.853,2.7,1.458,5.493,1.797,8.302c0.05,0.411-0.243,0.784-0.654,0.834
						C389.425,299.059,389.395,299.06,389.364,299.06z"/>
					<path style="fill:#75B3A3;" d="M391.301,303.852c-0.414,0-0.75-0.336-0.75-0.75v-0.52c0-0.414,0.336-0.75,0.75-0.75
						c0.414,0,0.75,0.336,0.75,0.75v0.52C392.051,303.516,391.715,303.852,391.301,303.852z"/>
				</g>
				<g>
					<defs>
						
							<rect id="SVGID_00000159467807483011364360000001206860228188505228_" x="330.901" y="272.482" transform="matrix(0.9102 -0.4141 0.4141 0.9102 -109.8506 202.9958)" width="164.777" height="164.777"/>
					</defs>
					<clipPath id="SVGID_00000111182343237908543260000006569525447287930518_">
						<use xlink:href="#SVGID_00000159467807483011364360000001206860228188505228_"  style="overflow:visible;"/>
					</clipPath>
					<g style="clip-path:url(#SVGID_00000111182343237908543260000006569525447287930518_);">
						<path style="fill:#708BEA;" d="M480.716,438.24h-81.629c-2.822,0-5.11-2.288-5.11-5.11V310.576c0-2.822,2.288-5.11,5.11-5.11
							h81.629c2.822,0,5.11,2.288,5.11,5.11V433.13C485.826,435.952,483.538,438.24,480.716,438.24z"/>
						<path style="fill:#BBC6EA;" d="M478.821,441.342h-81.629c-2.822,0-5.11-2.288-5.11-5.11V313.677c0-2.822,2.288-5.11,5.11-5.11
							h81.629c2.822,0,5.11,2.288,5.11,5.11v122.554C483.931,439.054,481.643,441.342,478.821,441.342z"/>
						<path style="fill:#A6B6EA;" d="M478.051,442.269h-81.63c-2.822,0-5.11-2.288-5.11-5.11V314.605c0-2.822,2.288-5.11,5.11-5.11
							h81.63c2.822,0,5.11,2.288,5.11,5.11v122.554C483.161,439.981,480.873,442.269,478.051,442.269z"/>
						<path style="fill:#BBC6EA;" d="M477.223,443.132h-81.629c-2.822,0-5.11-2.288-5.11-5.11V315.467c0-2.822,2.288-5.11,5.11-5.11
							h81.629c2.822,0,5.11,2.288,5.11,5.11v122.554C482.334,440.844,480.046,443.132,477.223,443.132z"/>
						<path style="fill:#A6B6EA;" d="M476.431,443.732h-81.629c-2.822,0-5.11-2.288-5.11-5.11V316.068c0-2.822,2.288-5.11,5.11-5.11
							h81.629c2.822,0,5.11,2.288,5.11,5.11v122.554C481.541,441.444,479.253,443.732,476.431,443.732z"/>
						<path style="fill:#BBC6EA;" d="M475.478,444.688h-81.629c-2.822,0-5.11-2.288-5.11-5.11V317.023c0-2.822,2.288-5.11,5.11-5.11
							h81.629c2.822,0,5.11,2.288,5.11,5.11v122.554C480.589,442.4,478.301,444.688,475.478,444.688z"/>
						<path style="fill:#708BEA;" d="M390.172,317.536c-0.342,0-0.686-0.116-0.968-0.354c-0.632-0.535-0.712-1.481-0.177-2.114
							l6.79-8.033c0.534-0.632,1.479-0.713,2.114-0.177c0.632,0.535,0.712,1.482,0.177,2.114l-6.79,8.033
							C391.021,317.355,390.599,317.536,390.172,317.536z"/>
						<path style="fill:#8299EA;" d="M474.513,445.428h-81.629c-2.822,0-5.11-2.288-5.11-5.11V317.764c0-2.822,2.288-5.11,5.11-5.11
							h81.629c2.822,0,5.11,2.288,5.11,5.11v122.554C479.623,443.141,477.335,445.428,474.513,445.428z"/>
						<path style="fill:#8CA1EA;" d="M426.574,329.372c15.836,15.836,31.673,31.673,47.509,47.509l5.54,5.54v-64.656
							c0-2.822-2.288-5.11-5.11-5.11h-64.656C415.429,318.227,421.001,323.799,426.574,329.372z"/>
						<path style="fill:#758FEA;" d="M458.239,439.077c-23.489-23.489-46.977-46.977-70.466-70.466v71.707
							c0,2.822,2.288,5.11,5.11,5.11h71.707C462.473,443.311,460.356,441.194,458.239,439.077z"/>
						<path style="fill:#B9CEF8;" d="M458.391,379.953h-49.385c-1.266,0-2.292-1.026-2.292-2.292V336.79
							c0-1.266,1.026-2.292,2.292-2.292h49.385c1.266,0,2.292,1.026,2.292,2.292v40.871
							C460.683,378.927,459.656,379.953,458.391,379.953z"/>
					</g>
				</g>
			</g>
			<g>
				<g>
					
						<rect x="24.082" y="210.388" transform="matrix(0.82 -0.5724 0.5724 0.82 -148.4239 113.6601)" style="fill:#AEBDE5;" width="164.777" height="164.777"/>
					<path style="fill:#D16565;" d="M126.864,178.06l94.323,135.11l-135.11,94.323l-94.323-135.11L126.864,178.06 M128.35,169.705
						l-4.92,3.435l-135.11,94.323l-4.92,3.435l3.435,4.92l94.323,135.11l3.435,4.92l4.92-3.435l135.11-94.323l4.92-3.434
						l-3.435-4.92l-94.323-135.11L128.35,169.705L128.35,169.705z"/>
				</g>
				<g>
					<g>
						<path style="fill:#F7EDD7;" d="M90.769,242.064c-0.649,0-1.342-0.143-2.075-0.428c-3.44-1.339-5.043-5.694-4.849-9.304
							c0.021-0.4,0.262-3.955,2.02-5.487c0.576-0.501,1.271-0.733,2.001-0.673c1.57,0.132,2.433,1.735,2.716,2.262
							c0.196,0.365,0.06,0.819-0.306,1.016c-0.363,0.196-0.819,0.06-1.016-0.306c-0.511-0.951-1.008-1.434-1.519-1.477
							c-0.335-0.031-0.616,0.069-0.89,0.309c-0.977,0.851-1.437,3.119-1.507,4.437c-0.162,2.996,1.148,6.757,3.894,7.826
							c1.187,0.461,2.144,0.431,2.926-0.093c2.411-1.611,2.83-7.32,2.931-10.302c-0.492-1.63-0.963-3.258-1.426-4.862
							c-0.289-1.001-0.579-2.002-0.873-3.002l-1.953-6.639c-0.825-2.661-0.879-4.097-0.182-4.801
							c0.216-0.218,0.699-0.547,1.522-0.301c1.007,0.301,1.797,1.861,2.916,5.754l0.124,0.429c1.06,3.515,1.505,7.444,1.399,12.366
							c-0.006,0.278-0.014,0.561-0.023,0.851c0.296,0.977,0.6,1.954,0.915,2.926l0.509-5.463c0.105-1.131,0.225-2.414,0.888-3.54
							c0.504-0.855,1.243-1.35,2.026-1.357c0.007,0,0.015,0,0.023,0c1.872,0,2.608,2.256,3.32,4.439
							c0.412,1.261,0.878,2.691,1.447,3.123c0.197,0.15,0.593,0.394,0.97,0.349c0.978-0.113,1.455-1.928,1.77-3.128
							c0.077-0.294,0.149-0.565,0.219-0.793c0.718-2.307,0.386-5.375,0.119-7.84c-0.041-0.374,0.199-0.755,0.564-0.844
							c0.365-0.087,0.736,0.071,0.873,0.422c0.598,1.537,1.324,3.038,2.157,4.461c0.199,0.341,0.399,0.663,0.649,0.848
							c0.53,0.394,1.363,0.2,1.862-0.213c0.533-0.443,0.922-1.183,1.155-2.199c0.427-1.859,0.252-3.838-0.001-5.7
							c-0.023-0.171-0.047-0.341-0.071-0.51c-2.081-3.346-3.465-7.022-4.809-10.591c-0.079-0.208-0.163-0.414-0.249-0.622
							c-0.442-1.069-0.992-2.399-0.511-3.758c0.136-0.386,0.343-0.655,0.631-0.82c0.496-0.283,1.103-0.19,1.667,0.247
							c1.849,1.436,2.474,4.176,2.977,6.376c0.09,0.393,0.176,0.77,0.265,1.12c0.595,2.347,1.077,4.815,1.47,7.52
							c0.198,0.311,0.403,0.618,0.616,0.923c0.442,0.635,0.939,1.268,1.577,1.601c0.491,0.255,1.202,0.319,1.611-0.054
							c0.325-0.298,0.456-0.847,0.564-1.384c0.433-2.169,0.638-4.383,0.621-6.595c-2.503-4.071-4.047-8.674-4.495-13.456
							c-0.028-0.296-0.093-0.989,0.424-1.464c0.301-0.278,0.689-0.387,1.088-0.305c0.694,0.141,1.219,0.808,1.458,1.336
							c1.905,4.214,2.926,8.824,3.019,13.448c0.379,0.598,0.78,1.184,1.203,1.755c0.482,0.652,1.018,1.279,1.666,1.445
							c1.434,0.365,2.742-1.557,3.108-2.156c0.216-0.353,0.679-0.463,1.031-0.248c0.353,0.216,0.464,0.678,0.248,1.031
							c-1.359,2.221-3.092,3.251-4.759,2.826c-1.103-0.282-1.854-1.131-2.5-2.006c-0.014-0.019-0.028-0.038-0.042-0.057
							c-0.088,1.591-0.287,3.175-0.599,4.738c-0.148,0.746-0.363,1.593-1.021,2.196c-0.966,0.883-2.36,0.776-3.317,0.278
							c-0.443-0.231-0.82-0.534-1.153-0.875c0.091,1.351,0.06,2.732-0.252,4.094c-0.309,1.345-0.867,2.36-1.659,3.017
							c-0.954,0.793-2.536,1.138-3.714,0.264c-0.477-0.354-0.78-0.833-1.05-1.294c-0.168-0.286-0.331-0.575-0.49-0.867
							c0.031,1.512-0.079,3.018-0.495,4.357c-0.065,0.208-0.13,0.457-0.201,0.727c-0.419,1.596-1.052,4.007-3.048,4.238
							c-0.67,0.076-1.399-0.151-2.05-0.645c-0.942-0.715-1.439-2.239-1.966-3.852c-0.495-1.517-1.111-3.404-1.897-3.404
							c-0.002,0-0.003,0-0.005,0c-0.234,0.002-0.528,0.246-0.749,0.619c-0.493,0.837-0.596,1.942-0.687,2.917l-0.834,8.952
							c-0.032,0.35-0.303,0.63-0.652,0.675c-0.343,0.043-0.681-0.159-0.8-0.49c-0.321-0.89-0.629-1.787-0.927-2.688
							c-0.403,3.241-1.297,6.36-3.307,7.704C92.328,241.84,91.583,242.064,90.769,242.064z M91.71,211.661
							c-0.063,0.232-0.126,1.001,0.566,3.236l1.959,6.66c0.275,0.935,0.546,1.872,0.816,2.808c-0.168-2.806-0.583-5.253-1.264-7.51
							l-0.13-0.448c-1.089-3.791-1.677-4.598-1.931-4.742C91.721,211.664,91.715,211.662,91.71,211.661z M111.771,200.236
							c-0.189,0.805,0.171,1.676,0.551,2.597c0.092,0.223,0.183,0.443,0.264,0.658c0.84,2.23,1.653,4.391,2.611,6.461
							c-0.21-1.032-0.438-2.033-0.687-3.013c-0.092-0.361-0.181-0.749-0.273-1.154c-0.45-1.969-1.009-4.419-2.435-5.526
							C111.792,200.251,111.781,200.243,111.771,200.236z M119.437,195.141c0.342,3.455,1.285,6.81,2.772,9.916
							c-0.386-3.36-1.284-6.663-2.677-9.745C119.504,195.251,119.471,195.194,119.437,195.141z"/>
						<path style="fill:#F7EDD7;" d="M107.531,215.47c-0.315,0-0.603-0.199-0.708-0.504c-0.095-0.274-0.071-0.585,0.067-0.85
							c0.138-0.266,0.377-0.464,0.656-0.545c0.037-0.011,0.075-0.019,0.112-0.023c0.329-0.048,0.667,0.123,0.805,0.444
							c0.128,0.296,0.106,0.647-0.058,0.938c-0.164,0.29-0.453,0.49-0.772,0.534C107.599,215.468,107.565,215.47,107.531,215.47z
							 M107.963,215.012c-0.001,0-0.001,0.001-0.002,0.001C107.962,215.012,107.962,215.012,107.963,215.012z"/>
					</g>
					<g>
						<defs>
							
								<rect id="SVGID_00000041261116877350097900000012872161632293928611_" x="24.082" y="210.388" transform="matrix(0.82 -0.5724 0.5724 0.82 -148.4239 113.6601)" width="164.777" height="164.777"/>
						</defs>
						<clipPath id="SVGID_00000000913505632846149100000004792107751857311113_">
							<use xlink:href="#SVGID_00000041261116877350097900000012872161632293928611_"  style="overflow:visible;"/>
						</clipPath>
						<g style="clip-path:url(#SVGID_00000000913505632846149100000004792107751857311113_);">
							<path style="fill:#FFEE9E;" d="M191.149,298.797l-110.032,77.07c-1.583,1.109-3.765,0.724-4.873-0.858l-52.488-74.937
								c-1.109-1.583-0.724-3.764,0.858-4.873l110.032-77.07c1.583-1.109,3.764-0.724,4.873,0.859l52.488,74.937
								C193.117,295.507,192.732,297.689,191.149,298.797z"/>
							<path style="fill:#FFD100;" d="M191.412,298.613L80.854,376.052c-1.106,0.775-1.805,2.009-1.906,3.368l-2.482,33.269
								c-0.289,3.868,4.044,6.386,7.193,4.181l145.154-101.671c3.149-2.206,2.263-7.138-1.471-8.188l-32.114-9.037
								C193.917,297.604,192.518,297.839,191.412,298.613z"/>
							<path style="fill:#545454;" d="M186.046,297.976L82.089,370.79c-1.481,1.037-3.522,0.678-4.559-0.803L28.915,300.58
								c-1.037-1.481-0.677-3.522,0.803-4.559l103.957-72.814c1.481-1.037,3.522-0.677,4.559,0.803l48.615,69.407
								C187.886,294.897,187.526,296.939,186.046,297.976z"/>
							<g>
								<path style="fill:#D65F73;" d="M143.708,303.874l-43.002,30.12c-3.915,2.742-9.311,1.791-12.053-2.123l-21.12-30.153
									c-2.742-3.915-1.791-9.311,2.123-12.053l43.002-30.12c3.914-2.742,9.311-1.791,12.053,2.123l21.12,30.153
									C148.573,295.736,147.622,301.133,143.708,303.874z"/>
								<g>
									<path style="fill:#FFFFFF;" d="M91.348,293.924l12.769,18.23c1.092,1.559,3.458,1.365,4.282-0.351l9.821-20.465
										c0.84-1.75-0.558-3.744-2.489-3.553l-22.589,2.236C91.247,290.207,90.256,292.365,91.348,293.924z"/>
								</g>
							</g>
							<path style="opacity:0.1;fill:#FFFFFF;" d="M79.802,371.345l1.475-8.374c6.904-39.191,13.809-78.381,20.713-117.572
								l-38.701,27.108l-10.86,61.644l25.101,35.836C78.082,370.774,78.918,371.233,79.802,371.345z"/>
							<polygon style="opacity:0.1;fill:#FFFFFF;" points="167.061,265.166 154.963,247.893 140.522,329.862 157.795,317.763 
															"/>
						</g>
					</g>
				</g>
			</g>
			<g>
				<g>
					
						<rect x="248.687" y="66.817" transform="matrix(0.9515 0.3075 -0.3075 0.9515 61.9285 -94.5836)" style="fill:#F7EDD7;" width="164.777" height="164.777"/>
					<path style="fill:#8091C1;" d="M278.016,45.473l156.792,50.673l-50.673,156.792l-156.792-50.673L278.016,45.473
						 M274.152,37.918l-1.845,5.709L221.633,200.42l-1.845,5.709l5.709,1.845l156.792,50.673l5.709,1.845l1.845-5.709
						l50.673-156.792l1.845-5.709l-5.709-1.845L279.861,39.763L274.152,37.918L274.152,37.918z"/>
				</g>
				<g>
					<polygon style="fill:#D3C6AB;" points="347.119,240.927 235.21,204.759 350.768,68.937 433.207,95.581 413.016,158.057 					
						"/>
				</g>
				
					<linearGradient id="SVGID_00000059303795030065845920000006182945172853434519_" gradientUnits="userSpaceOnUse" x1="285.9106" y1="221.7602" x2="382.2356" y2="123.0068">
					<stop  offset="0" style="stop-color:#E6699C"/>
					<stop  offset="1" style="stop-color:#FF97C1"/>
				</linearGradient>
				<polygon style="fill:url(#SVGID_00000059303795030065845920000006182945172853434519_);" points="348.719,241.492 
					236.81,205.325 352.369,69.503 434.808,96.146 414.616,158.622 				"/>
				<path style="fill:#A65B8F;" d="M334.744,158.078c-1.965-1.363-3.927-2.732-5.891-4.096c-0.726-0.505-2.371-2.186-2.383-3.084
					c-0.005-0.402,0.193-0.776,0.386-1.129c0.628-1.149,1.256-2.299,1.883-3.448c0.586-1.073,1.191-2.267,0.932-3.461
					c-0.491-2.258-4.031-3.851-5.891-4.768c-2.137-1.052-4.077,1.331-5.112,2.895c-2.272,3.433-4.545,6.866-6.817,10.299
					c-1.651,2.494-5.313,5.702-2.807,8.62c1.107,1.288,2.214,2.161,3.592,3.11c0.663,0.457,1.376,0.906,2.178,0.981
					c1.14,0.107,2.218-0.573,3.001-1.408c0.783-0.835,1.367-1.84,2.147-2.679c0.395-0.424,0.851-0.812,1.398-1.004
					c0.593-0.208,1.244-0.17,1.861-0.053c2.082,0.396,3.892,1.631,5.634,2.836c2.977,2.06,6.016,4.069,8.851,6.29
					c1.186,0.929-2.232,5.345-2.657,6.362c-0.155,0.369-0.299,0.761-0.258,1.16c0.061,0.584,0.503,1.048,0.935,1.445
					c1.111,1.022,2.324,1.933,3.615,2.716c1.12,0.679,2.475,1.276,3.704,0.822c0.763-0.282,1.328-0.923,1.851-1.546
					c3.509-4.188,6.963-8.737,9.781-13.393c1.409-2.329,3.23-4.17,1.081-6.501c-1.937-2.101-6.069-6.012-8.673-2.791
					c-1.226,1.517-2.453,3.034-3.679,4.551c-0.424,0.524-0.935,1.094-1.608,1.114c-0.445,0.013-0.854-0.222-1.236-0.45
					C338.589,160.292,336.67,159.413,334.744,158.078z"/>
				<path style="fill:#A65B8F;" d="M397.613,152.602L397.613,152.602c-1.645-1.974-3.692-3.663-6.411-5.281
					c2.75-2.677,5.563-5.572,7.684-8.91c3.092-4.864,5.316-12.722,1.413-18.859c-1.846-2.901-4.995-5.13-8.642-6.115
					c-3.176-0.858-6.802-0.827-10.487,0.089c-4.945,1.232-9.064,3.848-11.598,7.366c-2.972,4.125-3.599,9.472-1.598,13.622
					c1.259,2.617,3.565,4.903,7.047,6.989c2.475,1.483,5.166,2.696,7.769,3.869c1.771,0.798,3.456,1.557,5.08,2.389
					c-1.054,1.018-2.199,2.133-3.279,3.256c-2.493,2.591-5.368,6.107-5.467,10.327c-0.07,3.028,1.278,5.747,2.652,8.37
					c-1.282,0.555-2.378,1.157-3.337,1.834c-2.637,1.861-4.524,4.47-6.351,6.992c-0.415,0.574-0.83,1.147-1.252,1.709
					c-1.339,1.782-3.39,4.257-6.009,5.614c-0.881-1.252-2.292-1.167-3.544-1.09c-0.226,0.014-0.449,0.028-0.669,0.033
					c-4.168,0.107-8.368,0.474-12.484,1.09c-1.035,0.155-2.036,0.34-2.891,0.892c-0.89,0.573-1.667,1.697-1.397,2.918
					c0.277,1.26,1.545,2.11,3.568,2.395c4.918,0.693,9.852-0.109,14.619-0.885c0.719-0.117,1.613-0.263,2.286-0.857
					c0.646-0.568,0.952-1.61,0.994-2.501c3.146-1.467,5.454-4.183,7.124-6.407c0.431-0.572,0.852-1.155,1.281-1.747
					c1.729-2.388,3.518-4.857,5.876-6.521c0.875-0.617,1.896-1.172,3.111-1.689c1.163,2.287,2.123,4.551,1.811,6.969
					c-0.207,1.606-1.013,3.166-1.751,4.501c-3.189,5.767-7.184,11.044-11.88,15.692c-0.378-0.461-0.81-0.791-1.25-0.95
					c-1.52-0.55-2.621,0.404-3.594,1.246c-0.171,0.147-0.341,0.295-0.512,0.433c-3.25,2.618-6.365,5.459-9.259,8.445
					c-0.729,0.752-1.411,1.506-1.757,2.464c-0.357,0.996-0.292,2.361,0.663,3.168c0.444,0.375,0.999,0.562,1.637,0.562
					c0.776,0,1.676-0.276,2.652-0.826c4.33-2.438,7.762-6.068,11.079-9.58c0.5-0.529,1.122-1.188,1.296-2.068
					c0.059-0.297,0.05-0.635-0.029-1.007c5.047-4.904,9.32-10.491,12.703-16.61c0.828-1.497,1.732-3.258,1.985-5.213
					c0.374-2.902-0.742-5.603-1.918-7.945c0.872-0.305,1.762-0.586,2.637-0.861l0.583-0.184c3.012-0.952,6.157-2.063,8.616-4.216
					c2.889-2.529,4.174-6.169,3.275-9.271C399.345,155.043,398.685,153.887,397.613,152.602z M383.649,169.98
					c-1.29-2.458-2.586-4.996-2.525-7.589c0.083-3.53,2.666-6.657,4.908-8.987c1.191-1.238,2.456-2.46,3.684-3.645
					c2.733,1.57,4.762,3.204,6.361,5.124c0.888,1.066,1.426,1.992,1.692,2.914c0.778,2.683-0.78,5.555-2.67,7.211
					c-2.168,1.898-5.093,2.925-7.901,3.813l-0.594,0.187C385.635,169.313,384.636,169.627,383.649,169.98z M371.193,123.061
					c2.259-3.135,5.974-5.477,10.461-6.593c3.335-0.831,6.643-0.868,9.48-0.1c3.17,0.855,5.895,2.772,7.477,5.258
					c3.399,5.345,1.363,12.344-1.413,16.713c-2.082,3.275-4.877,6.115-7.815,8.961c-1.893-1.004-3.862-1.892-5.771-2.752
					c-2.549-1.148-5.185-2.337-7.563-3.76c-3.136-1.878-5.188-3.887-6.273-6.141C368.09,131.146,368.646,126.598,371.193,123.061z"
					/>
				<path style="fill:#A65B8F;" d="M324.124,120.246c-2.382,0.214-4.765,0.421-7.147,0.633c-0.881,0.078-3.222-0.158-3.806-0.839
					c-0.262-0.306-0.349-0.719-0.428-1.114c-0.255-1.285-0.51-2.569-0.765-3.854c-0.238-1.199-0.539-2.503-1.504-3.253
					c-1.824-1.418-5.563-0.371-7.578,0.118c-2.315,0.563-2.275,3.636-2.067,5.499c0.457,4.091,0.914,8.183,1.371,12.274
					c0.332,2.973-0.422,7.783,3.373,8.415c1.675,0.279,3.085,0.239,4.75,0.083c0.802-0.075,1.637-0.187,2.3-0.643
					c0.943-0.649,1.335-1.862,1.401-3.005c0.066-1.143-0.13-2.289-0.07-3.432c0.031-0.579,0.133-1.169,0.429-1.667
					c0.321-0.54,0.846-0.928,1.395-1.234c1.851-1.031,4.032-1.244,6.142-1.436c3.605-0.328,7.226-0.734,10.826-0.847
					c1.506-0.047,1.714,5.533,2.04,6.586c0.118,0.383,0.259,0.776,0.546,1.055c0.421,0.409,1.058,0.482,1.644,0.51
					c1.508,0.072,3.023-0.007,4.516-0.233c1.295-0.197,2.718-0.607,3.369-1.744c0.405-0.706,0.428-1.56,0.429-2.373
					c0.008-5.464-0.258-11.169-1.08-16.549c-0.411-2.691-0.195-5.271-3.339-5.682c-2.834-0.37-8.512-0.723-8.446,3.418
					c0.032,1.95,0.063,3.901,0.095,5.851c0.011,0.674-0.016,1.439-0.52,1.886c-0.333,0.295-0.798,0.377-1.237,0.447
					C328.493,119.48,326.458,120.037,324.124,120.246z"/>
				<path style="fill:#FFD100;" d="M337.262,154.069c-1.965-1.363-3.927-2.732-5.891-4.096c-0.726-0.505-2.371-2.186-2.383-3.084
					c-0.005-0.402,0.193-0.776,0.386-1.129c0.628-1.149,1.256-2.299,1.883-3.448c0.586-1.072,1.191-2.266,0.932-3.461
					c-0.491-2.258-4.031-3.851-5.891-4.768c-2.137-1.052-4.077,1.331-5.112,2.895c-2.272,3.433-4.545,6.866-6.817,10.299
					c-1.651,2.494-5.313,5.702-2.807,8.62c1.107,1.288,2.214,2.161,3.592,3.11c0.663,0.457,1.376,0.906,2.178,0.981
					c1.14,0.107,2.218-0.573,3.001-1.408c0.783-0.835,1.367-1.84,2.147-2.679c0.395-0.424,0.851-0.812,1.398-1.004
					c0.593-0.208,1.244-0.17,1.861-0.053c2.082,0.396,3.892,1.631,5.634,2.836c2.977,2.06,6.016,4.069,8.851,6.29
					c1.186,0.929-2.232,5.345-2.657,6.362c-0.155,0.369-0.299,0.761-0.258,1.16c0.061,0.584,0.503,1.048,0.935,1.445
					c1.111,1.022,2.324,1.933,3.615,2.716c1.12,0.679,2.475,1.276,3.704,0.822c0.763-0.282,1.328-0.923,1.851-1.546
					c3.509-4.188,6.963-8.737,9.781-13.393c1.409-2.329,3.23-4.17,1.081-6.501c-1.937-2.101-6.069-6.012-8.673-2.791
					c-1.226,1.517-2.452,3.034-3.679,4.551c-0.424,0.524-0.935,1.094-1.608,1.114c-0.445,0.013-0.854-0.222-1.236-0.45
					C341.106,156.283,339.188,155.404,337.262,154.069z"/>
				<path style="fill:#E0B800;" d="M343.72,157.79c-0.221-0.087-0.435-0.208-0.639-0.33c-1.974-1.178-3.893-2.056-5.818-3.391
					c-1.965-1.363-3.927-2.732-5.891-4.096c-0.699-0.486-2.234-2.055-2.36-2.973c-1.968,2.614-3.717,5.387-5.556,8.095
					c0.135-0.077,0.275-0.145,0.423-0.197c0.593-0.208,1.244-0.17,1.861-0.053c2.082,0.396,3.892,1.631,5.634,2.836
					c2.812,1.945,5.674,3.852,8.372,5.929C341.312,161.86,342.57,159.851,343.72,157.79z"/>
				<path style="fill:#FFD100;" d="M323.09,115.192c-2.382,0.214-4.765,0.421-7.147,0.633c-0.881,0.078-3.222-0.158-3.806-0.839
					c-0.262-0.306-0.349-0.719-0.428-1.114c-0.255-1.285-0.51-2.569-0.765-3.854c-0.238-1.199-0.539-2.503-1.504-3.253
					c-1.825-1.418-5.563-0.371-7.578,0.118c-2.315,0.563-2.275,3.636-2.067,5.499c0.457,4.091,0.914,8.183,1.371,12.274
					c0.332,2.972-0.422,7.783,3.373,8.415c1.675,0.279,3.085,0.239,4.75,0.083c0.802-0.075,1.637-0.187,2.3-0.643
					c0.943-0.649,1.335-1.862,1.401-3.005c0.066-1.143-0.13-2.289-0.07-3.432c0.031-0.579,0.133-1.169,0.429-1.667
					c0.321-0.539,0.846-0.928,1.395-1.234c1.851-1.031,4.032-1.243,6.142-1.436c3.605-0.328,7.226-0.734,10.826-0.847
					c1.506-0.047,1.714,5.533,2.04,6.586c0.118,0.382,0.259,0.776,0.546,1.055c0.421,0.409,1.058,0.482,1.644,0.51
					c1.508,0.072,3.023-0.007,4.516-0.233c1.295-0.197,2.718-0.607,3.369-1.744c0.405-0.706,0.428-1.56,0.429-2.373
					c0.008-5.464-0.258-11.169-1.08-16.549c-0.411-2.691-0.195-5.271-3.339-5.682c-2.834-0.37-8.512-0.723-8.445,3.418
					c0.031,1.95,0.063,3.901,0.094,5.851c0.011,0.674-0.016,1.439-0.52,1.886c-0.333,0.295-0.798,0.377-1.237,0.447
					C327.46,114.426,325.424,114.982,323.09,115.192z"/>
				<path style="fill:#E0B800;" d="M331.81,120.911c0.291-2.434,0.004-5.128-0.717-7.461c-0.043,0.055-0.072,0.118-0.126,0.166
					c-0.333,0.295-0.798,0.377-1.237,0.447c-2.27,0.362-4.306,0.918-6.639,1.128c-2.382,0.214-4.765,0.421-7.147,0.633
					c-0.75,0.067-2.552-0.098-3.433-0.568c-0.323,3.066,0.028,6.194,0.826,9.18c0.005-0.009,0.008-0.02,0.014-0.029
					c0.321-0.54,0.846-0.928,1.395-1.234c1.851-1.031,4.032-1.243,6.142-1.436c3.605-0.328,7.226-0.734,10.826-0.847
					C331.747,120.89,331.777,120.907,331.81,120.911z"/>
				<g>
					<path style="fill:#F8F4EB;" d="M370.419,202.933c-0.136,0-0.271-0.055-0.37-0.164c-0.186-0.205-0.171-0.521,0.034-0.706
						c5.664-5.149,10.413-11.157,14.117-17.857c0.762-1.378,1.593-2.989,1.81-4.68c0.344-2.66-0.754-5.121-2.072-7.672
						c-1.283,0.519-2.518,1.131-3.635,1.919c-2.431,1.716-4.247,4.226-6.004,6.652c-0.419,0.579-0.837,1.156-1.264,1.724
						c-2.073,2.762-4.972,6.052-9.006,6.996c-0.278,0.064-0.538-0.105-0.602-0.373c-0.063-0.269,0.105-0.538,0.373-0.601
						c3.722-0.87,6.463-3.996,8.436-6.623c0.422-0.563,0.837-1.136,1.252-1.71c1.805-2.493,3.671-5.071,6.238-6.884
						c1.166-0.823,2.435-1.458,3.746-1.993c-0.016-0.028-0.03-0.057-0.045-0.085c-1.413-2.689-2.875-5.47-2.804-8.523
						c0.094-4.046,2.895-7.465,5.326-9.991c1.223-1.271,2.515-2.518,3.767-3.726c-1.823-0.966-3.752-1.835-5.723-2.723
						c-2.589-1.167-5.266-2.373-7.716-3.841c-3.396-2.034-5.638-4.251-6.854-6.777c-1.922-3.988-1.313-9.136,1.553-13.113
						c2.464-3.422,6.482-5.97,11.313-7.173c3.604-0.897,7.142-0.928,10.236-0.093c3.527,0.954,6.57,3.105,8.35,5.902
						c3.778,5.94,1.6,13.583-1.412,18.323c-2.215,3.485-5.156,6.445-8.082,9.277c2.561,1.467,4.934,3.205,6.847,5.501
						c1.025,1.23,1.655,2.329,1.981,3.456c0.846,2.918-0.381,6.355-3.124,8.757c-2.388,2.09-5.478,3.18-8.438,4.116l-0.59,0.186
						c-1.059,0.333-2.131,0.67-3.182,1.056c1.327,2.581,2.499,5.257,2.125,8.161c-0.241,1.866-1.121,3.578-1.928,5.036
						c-3.757,6.796-8.574,12.89-14.32,18.114C370.659,202.89,370.539,202.933,370.419,202.933z M390.639,149.14
						c-0.047,0.045-0.094,0.09-0.141,0.135c-1.272,1.227-2.589,2.496-3.826,3.782c-2.305,2.396-4.961,5.62-5.047,9.321
						c-0.065,2.794,1.335,5.458,2.688,8.034c0.033,0.062,0.065,0.124,0.098,0.186c1.108-0.41,2.235-0.765,3.348-1.115l0.59-0.186
						c2.858-0.905,5.838-1.952,8.08-3.915c2.009-1.76,3.661-4.831,2.821-7.727c-0.286-0.991-0.855-1.974-1.788-3.094
						C395.56,152.28,393.221,150.588,390.639,149.14z M387.785,115.314c-1.698,0-3.466,0.223-5.252,0.668
						c-4.602,1.146-8.417,3.556-10.744,6.786c-2.653,3.685-3.228,8.432-1.463,12.095c1.129,2.344,3.244,4.422,6.467,6.353
						c2.4,1.438,5.05,2.631,7.613,3.787c2.032,0.916,4.093,1.844,6.063,2.91c2.956-2.856,5.943-5.831,8.152-9.306
						c2.855-4.493,4.939-11.706,1.412-17.25c-1.647-2.589-4.478-4.585-7.768-5.473C390.859,115.504,389.352,115.314,387.785,115.314
						z"/>
					<path style="fill:#2BC1BF;" d="M357.629,209.178c-0.659,0.679-1.325,1.395-1.645,2.286c-0.321,0.89-0.208,2.005,0.514,2.616
						c1.015,0.857,2.564,0.335,3.722-0.317c4.228-2.38,7.629-5.961,10.961-9.488c0.503-0.532,1.027-1.105,1.169-1.823
						c0.22-1.109-0.789-2.879-1.886-3.275c-1.482-0.536-2.525,0.714-3.623,1.598C363.602,203.383,360.523,206.191,357.629,209.178z"
						/>
					<path style="fill:#2BC1BF;" d="M349.206,187.39c-0.936,0.14-1.9,0.305-2.695,0.817c-0.795,0.513-1.383,1.467-1.179,2.391
						c0.286,1.298,1.834,1.822,3.15,2.007c4.805,0.676,9.681-0.105,14.47-0.884c0.723-0.118,1.487-0.254,2.036-0.738
						c0.848-0.747,1.121-2.767,0.49-3.748c-0.853-1.325-2.439-0.966-3.849-0.93C357.471,186.413,353.32,186.775,349.206,187.39z"/>
				</g>
				<g>
					<path style="fill:#2BC1BF;" d="M289.775,82.31c-0.162,0-0.328-0.021-0.499-0.068c-0.988-0.272-1.502-1.308-1.5-2.191
						c0.004-0.913,0.438-1.714,0.814-2.31c1.844-2.91,4.798-4.857,7.655-6.74c0.34-0.224,0.678-0.446,1.013-0.67
						c0.073-0.212,0.145-0.425,0.214-0.639c0.196-0.611,0.374-1.23,0.552-1.85c0.131-0.457,0.263-0.917,0.403-1.377
						c-0.638,0.669-1.33,1.284-2.066,1.833c-1.285,0.957-2.476,1.171-3.35,0.603c-0.997-0.647-1.074-1.979-0.799-3.091
						c-1.078,0.809-2.256,1.509-3.457,2.145c-0.572,1.605-1.201,3.213-1.989,4.739c-1.141,2.209-4.397,7.409-9.981,8.002
						c-0.403,0.044-0.878,0.06-1.316-0.14c-1.187-0.542-1.247-2.135-0.695-3.427c1.798-4.202,6.169-6.539,10.125-8.399
						c1.02-0.479,2.048-0.962,3.045-1.476c0.194-0.555,0.384-1.109,0.572-1.659c0.064-0.185,0.127-0.371,0.19-0.558
						c-1.159,0.547-2.428,0.727-3.461,0.82c-1.007,0.09-2.429,0.089-3.228-0.941c-1.004-1.294-0.186-3.169,1.142-4.353
						c1.279-1.138,2.692-1.855,4.089-2.074c1.69-0.268,3.368,0.218,4.471,1.296c0.197,0.193,0.201,0.509,0.008,0.707
						c-0.067,0.068-0.149,0.114-0.235,0.135c0.19,1.371-0.498,2.651-1.409,3.498c-0.212,0.601-0.417,1.2-0.619,1.794
						c-0.072,0.21-0.145,0.421-0.217,0.633c1.37-0.778,2.647-1.643,3.729-2.678c0.545-1.033,1.278-1.974,2.148-2.739
						c0.182-0.161,0.454-0.167,0.643-0.015c0.189,0.153,0.242,0.42,0.124,0.632c-0.565,1.017-1.278,1.91-2.093,2.707
						c-0.229,0.451-0.417,0.92-0.562,1.4c-0.23,0.771-0.285,1.81,0.321,2.204c0.698,0.455,1.776-0.245,2.207-0.566
						c1.629-1.213,3.027-2.772,4.063-4.524c0.063-0.116,0.13-0.23,0.197-0.344c0.141-0.235,0.442-0.313,0.68-0.177
						c0.236,0.137,0.319,0.438,0.186,0.676c-0.063,0.113-0.127,0.226-0.193,0.337c-0.788,1.437-1.257,3.07-1.711,4.654
						c-0.124,0.432-0.247,0.863-0.378,1.292c2.282-1.608,4.28-3.34,5.446-5.771c0.114-0.237,0.395-0.344,0.634-0.249
						c0.244,0.096,0.373,0.364,0.295,0.614l-1.158,3.722c0.63-0.743,1.33-1.426,2.084-2.032c0.58-0.465,1.498-0.849,2.243-0.661
						c0.401,0.102,0.71,0.366,0.87,0.745c0.187,0.441,0.09,0.909,0.025,1.219l-0.35,1.694c0.194-0.256,0.386-0.5,0.564-0.726
						l0.3-0.383c1.568-2.021,2.675-1.853,3.198-1.571c1.075,0.578,1.343,2.504,0.639,4.579c-0.091,0.267-0.192,0.531-0.295,0.795
						c-0.202,0.523-0.393,1.017-0.492,1.53c-0.158,0.806-0.028,1.523,0.357,1.97c0.209,0.242,0.549,0.396,0.886,0.403
						c0.19,0.01,0.421-0.033,0.6-0.224c0.186-0.202,0.506-0.213,0.706-0.025c0.202,0.188,0.213,0.505,0.024,0.707
						c-0.334,0.359-0.817,0.553-1.349,0.541c-0.622-0.011-1.229-0.291-1.624-0.748c-0.588-0.681-0.8-1.707-0.582-2.815
						c0.116-0.599,0.332-1.157,0.541-1.698c0.097-0.251,0.194-0.502,0.28-0.756c0.608-1.791,0.288-3.133-0.165-3.378
						c-0.298-0.161-0.985,0.081-1.934,1.304l-0.306,0.39c-0.76,0.963-1.801,2.283-2.018,3.332l0,0
						c-0.056,0.272-0.326,0.443-0.591,0.389c-0.27-0.056-0.444-0.32-0.388-0.591c0-0.002,0-0.003,0-0.004l1.018-4.916
						c0.053-0.258,0.093-0.483,0.032-0.626c-0.04-0.094-0.095-0.14-0.194-0.165c-0.336-0.083-0.944,0.129-1.372,0.471
						c-1.544,1.241-2.843,2.827-3.756,4.584c-0.118,0.229-0.393,0.329-0.634,0.232c-0.239-0.099-0.364-0.364-0.287-0.611
						l1.168-3.751c-1.403,1.572-3.149,2.849-4.936,4.05c-1.315,3.646-3.356,7.068-5.941,9.948
						C291.821,81.291,290.908,82.31,289.775,82.31z M296.646,71.936c-2.723,1.794-5.514,3.661-7.21,6.34
						c-0.307,0.483-0.657,1.122-0.66,1.778c-0.001,0.497,0.285,1.091,0.766,1.224c0.5,0.141,1.131-0.204,1.862-1.02
						C293.595,77.817,295.382,74.974,296.646,71.936z M287.448,68.621c-0.699,0.344-1.396,0.672-2.078,0.992
						c-3.836,1.804-8.018,4.03-9.677,7.909c-0.303,0.707-0.443,1.834,0.191,2.124c0.218,0.1,0.511,0.085,0.795,0.055
						c3.539-0.375,6.978-3.166,9.198-7.466C286.477,71.075,286.985,69.854,287.448,68.621z M288.141,59.419
						c-0.245,0-0.492,0.019-0.739,0.058c-1.206,0.188-2.443,0.822-3.578,1.833c-0.763,0.68-1.714,2.094-1.017,2.992
						c0.38,0.49,1.12,0.668,2.35,0.559c1.166-0.104,2.653-0.326,3.813-1.122c0.089-0.061,0.175-0.125,0.256-0.191
						c0.391-1.093,0.807-2.189,1.278-3.252c0.024-0.054,0.057-0.102,0.096-0.143C289.923,59.679,289.05,59.419,288.141,59.419z"/>
					<path style="fill:#2BC1BF;" d="M299.734,85.619c-0.022,0-0.043-0.001-0.065-0.004c-0.273-0.035-0.468-0.286-0.433-0.56
						c0.348-2.72,0.846-5.459,1.481-8.141c0.063-0.269,0.329-0.438,0.602-0.371c0.269,0.063,0.435,0.333,0.371,0.601
						c-0.627,2.648-1.119,5.352-1.462,8.037C300.197,85.435,299.981,85.619,299.734,85.619z"/>
					<path style="fill:#2BC1BF;" d="M304.797,77.71c-0.021,0-0.041-0.001-0.062-0.003c-2.1-0.255-4.236-0.406-6.35-0.447
						c-0.276-0.005-0.495-0.233-0.49-0.51c0.006-0.276,0.252-0.513,0.51-0.49c2.147,0.042,4.317,0.194,6.451,0.454
						c0.275,0.034,0.469,0.283,0.436,0.557C305.262,77.524,305.046,77.71,304.797,77.71z"/>
					<path style="fill:#2BC1BF;" d="M303.764,86.298c-0.013,0-0.025,0-0.038-0.001c-0.275-0.021-0.482-0.26-0.462-0.536
						c0.132-1.761,0.417-3.522,0.848-5.233c0.068-0.268,0.336-0.43,0.607-0.363c0.268,0.067,0.431,0.339,0.363,0.607
						c-0.417,1.656-0.693,3.36-0.82,5.063C304.241,86.098,304.022,86.298,303.764,86.298z"/>
					<path style="fill:#2BC1BF;" d="M312.395,86.999c-0.208,0-0.402-0.131-0.474-0.339c-0.419-1.233-0.409-2.521-0.398-3.767
						c0.007-0.91,0.015-1.769-0.132-2.609c-0.024-0.135-0.051-0.255-0.083-0.361c-0.457,0.9-0.669,1.933-0.892,3.015
						c-0.208,1.012-0.423,2.059-0.858,3.029c-0.093,0.208-0.317,0.328-0.538,0.289c-0.224-0.037-0.395-0.22-0.416-0.446
						c-0.122-1.3-0.498-2.564-1.1-3.716l-0.695,4.374c-0.045,0.272-0.297,0.458-0.573,0.415c-0.272-0.044-0.458-0.3-0.415-0.572
						l0.909-5.714c0.032-0.201,0.183-0.362,0.381-0.409c0.202-0.042,0.405,0.033,0.522,0.2c0.716,1.017,1.254,2.149,1.593,3.339
						c0.074-0.323,0.142-0.652,0.211-0.988c0.287-1.395,0.583-2.837,1.451-4.045c0.079-0.11,0.199-0.183,0.333-0.203
						c0.135-0.019,0.27,0.016,0.378,0.098c0.528,0.406,0.696,1.065,0.776,1.525c0.162,0.93,0.154,1.875,0.147,2.79
						c-0.01,1.216-0.02,2.365,0.346,3.437c0.089,0.261-0.051,0.545-0.313,0.634C312.502,86.991,312.448,86.999,312.395,86.999z"/>
					<path style="fill:#2BC1BF;" d="M317.694,86.562c-0.002,0-0.003,0-0.005,0l-3.146-0.029c-0.075-0.001-0.15-0.019-0.218-0.052
						c-0.4-0.2-0.508-0.253-0.006-6.091c0.05-0.589,0.088-1.016,0.09-1.119c0.006-0.262,0.213-0.475,0.476-0.488
						c0.619-0.031,1.101-0.126,1.61-0.226c0.523-0.103,1.064-0.209,1.757-0.243c0.269-0.024,0.511,0.2,0.523,0.475
						c0.014,0.276-0.198,0.511-0.475,0.524c-0.62,0.031-1.103,0.126-1.612,0.226c-0.406,0.08-0.822,0.161-1.311,0.21
						c-0.017,0.196-0.037,0.444-0.062,0.727c-0.101,1.172-0.348,4.046-0.338,5.061l2.722,0.025c0.276,0.003,0.498,0.229,0.495,0.505
						C318.191,86.341,317.969,86.562,317.694,86.562z"/>
					<path style="fill:#2BC1BF;" d="M317.793,82.632c-0.047,0-0.095-0.007-0.143-0.021c-0.528-0.157-1.093-0.187-1.635-0.084
						c-0.116,0.022-0.241,0.001-0.345-0.06c-0.135-0.079-0.239-0.078-0.56-0.03c-0.265,0.037-0.527-0.146-0.568-0.42
						c-0.041-0.273,0.146-0.528,0.42-0.569c0.291-0.044,0.643-0.098,1.036,0.068c0.646-0.095,1.311-0.049,1.936,0.137
						c0.265,0.079,0.415,0.357,0.337,0.622C318.207,82.492,318.009,82.632,317.793,82.632z"/>
				</g>
			</g>
		</g>
	</g>
	<g>
		<g>
			<path style="fill:#D65F73;" d="M69.299,403.587H30.59c-1.783,0-3.228,1.445-3.228,3.228v22.337c0,1.783,1.445,3.228,3.228,3.228
				h12.814c0.497,0,0.955,0.269,1.196,0.704l5.222,9.386c0.522,0.938,1.871,0.938,2.393,0l5.222-9.386
				c0.242-0.434,0.699-0.704,1.196-0.704h10.667c1.783,0,3.228-1.445,3.228-3.228v-22.337
				C72.528,405.032,71.082,403.587,69.299,403.587z"/>
			<path style="fill:#FFFFFF;" d="M58.899,412.407c-1.08-1.637-2.637-1.933-4.381-0.841c0,0,0,0,0,0.001
				c-0.563,0.353-1.16,0.859-1.773,1.503c-0.021,0.021-1.357,1.674-1.997,2.981c-0.15-0.226-0.301-0.461-0.456-0.701
				c-0.903-1.403-1.926-2.993-3.233-3.777c-1.678-1.008-3.567-0.688-4.592,0.781c-1.249,1.791-0.574,3.699,0.251,5.33
				c1.516,2.996,3.528,5.681,5.979,7.978c0.12,0.113,0.247,0.247,0.381,0.387c0.53,0.554,1.222,1.276,2.003,1.276
				c0.166,0,0.335-0.032,0.508-0.105c0.472-0.201,0.853-0.754,1.188-1.242c0.089-0.13,0.17-0.247,0.24-0.336
				c2.293-2.903,4.481-5.756,6.063-8.764c0.033-0.063,0.064-0.124,0.09-0.19C59.766,415.164,59.665,413.565,58.899,412.407z"/>
		</g>
		<g>
			<path style="fill:#D65F73;" d="M471.946,176.669l-36.666-12.409c-1.689-0.572-3.521,0.334-4.093,2.023l-7.16,21.158
				c-0.572,1.689,0.334,3.521,2.023,4.093l12.138,4.108c0.471,0.159,0.818,0.561,0.908,1.05l1.937,10.565
				c0.194,1.056,1.472,1.488,2.267,0.767l7.955-7.217c0.368-0.334,0.888-0.442,1.359-0.283l10.104,3.419
				c1.689,0.571,3.521-0.334,4.093-2.023l7.16-21.158C474.54,179.074,473.634,177.241,471.946,176.669z"/>
			<path style="fill:#FFFFFF;" d="M459.268,181.69c-0.499-1.895-1.871-2.679-3.881-2.2c-0.646,0.154-1.373,0.441-2.162,0.855
				c-0.027,0.014-1.822,1.151-2.848,2.185c-0.069-0.262-0.138-0.534-0.207-0.811c-0.405-1.618-0.864-3.453-1.852-4.614
				c-1.268-1.493-3.158-1.793-4.6-0.732c-1.756,1.295-1.729,3.32-1.471,5.13c0.477,3.326,1.522,6.513,3.107,9.474
				c0.078,0.145,0.155,0.311,0.237,0.486c0.38,0.814,0.895,1.919,1.897,1.919c0.035,0,0.07-0.001,0.105-0.004
				c0.512-0.038,1.049-0.44,1.523-0.794c0.126-0.095,0.241-0.181,0.336-0.242c3.101-2.013,6.087-4.013,8.535-6.341
				c0.057-0.053,0.112-0.108,0.164-0.169C459.205,184.581,459.621,183.032,459.268,181.69z"/>
		</g>
		<path style="fill:#FFFFFF;" d="M59.624,165.582c-0.003-0.062-0.018-0.122-0.043-0.178c-0.001-0.002,0-0.004-0.001-0.006
			c-0.005-0.01-0.014-0.016-0.019-0.026c-0.023-0.042-0.05-0.082-0.085-0.116c-0.018-0.018-0.038-0.03-0.057-0.044
			c-0.02-0.014-0.035-0.033-0.057-0.044c-0.011-0.006-0.024-0.007-0.035-0.012c-0.023-0.01-0.046-0.017-0.071-0.023
			c-0.036-0.01-0.07-0.016-0.107-0.017c-0.024-0.001-0.046-0.001-0.07,0.001c-0.042,0.004-0.081,0.014-0.121,0.029
			c-0.014,0.005-0.028,0.004-0.041,0.01l-38.319,17.751c-0.2,0.093-0.316,0.305-0.285,0.523c0.031,0.218,0.201,0.39,0.418,0.424
			l20.03,3.121l6.552,20.041c0.067,0.206,0.259,0.345,0.475,0.345c0.004,0,0.008,0,0.012,0c0.221-0.005,0.412-0.155,0.47-0.368
			l11.339-41.252c0.009-0.032,0.007-0.064,0.01-0.097C59.619,165.623,59.625,165.603,59.624,165.582z M57.243,167.032
			l-16.301,18.959l-18.427-2.871L57.243,167.032z M47.745,205.124l-6.043-18.484l16.352-19.018L47.745,205.124z"/>
		<g>
			<path style="fill:#E6EFFF;" d="M326.783,18.704c0.542-1.512,0.851-3.296,2.193-4.179c0.274-0.18,0.586-0.313,0.913-0.332
				c1.179-0.069,1.927,1.267,2.115,2.433c0.188,1.166,0.168,2.482,0.979,3.34c1.35,1.428,3.926,0.542,5.537,1.667
				c0.624,0.436,1.021,1.123,1.345,1.812c0.85,1.804,1.341,3.776,1.437,5.767c0.06,1.251-0.061,2.585-0.805,3.593
				c-1.757,2.377-4.789,1.778-7.338,1.686c-3.4-0.122-7.079,0.071-10.422-0.628c-2.331-0.487-2.271-2.263-2.425-4.589
				c-0.098-1.476-0.128-4.257,0.767-5.526c0.815-1.156,1.992-0.67,3.158-1.512C325.414,21.385,326.297,20.062,326.783,18.704z"/>
			<path style="fill:#2E4BB7;" d="M320.926,36.21h-3.767c-1.479,0-2.678-1.199-2.678-2.678V21.163c0-1.479,1.199-2.678,2.678-2.678
				h3.767c1.479,0,2.678,1.199,2.678,2.678v12.369C323.604,35.011,322.405,36.21,320.926,36.21z"/>
		</g>
		<g>
			<path style="fill:#E6EFFF;" d="M439.513,456.807c0.084-1.604-0.132-3.402,0.899-4.633c0.21-0.251,0.471-0.468,0.779-0.58
				c1.11-0.404,2.21,0.66,2.725,1.723c0.515,1.063,0.874,2.329,1.898,2.918c1.703,0.98,3.916-0.609,5.782,0.005
				c0.723,0.238,1.3,0.783,1.809,1.349c1.332,1.484,2.37,3.231,3.034,5.111c0.417,1.18,0.685,2.494,0.261,3.672
				c-0.999,2.782-4.076,3.079-6.544,3.724c-3.292,0.86-6.76,2.102-10.163,2.394c-2.372,0.203-2.825-1.515-3.641-3.698
				c-0.518-1.386-1.346-4.041-0.854-5.513c0.448-1.341,1.716-1.214,2.59-2.356C438.973,459.768,439.438,458.247,439.513,456.807z"/>
			<path style="fill:#2E4BB7;" d="M438.934,475.258l-3.608,1.082c-1.417,0.425-2.91-0.379-3.335-1.796l-3.555-11.847
				c-0.425-1.417,0.379-2.91,1.796-3.335l3.608-1.082c1.417-0.425,2.91,0.379,3.335,1.796l3.555,11.847
				C441.155,473.34,440.351,474.833,438.934,475.258z"/>
		</g>
		<path style="fill:#FFFFFF;" d="M456.252,71.813c-0.136,0-0.269-0.056-0.364-0.158l-5.358-5.714
			c-2.291,0.247-4.649-0.046-6.831-0.848c-3.799-1.396-6.827-4.188-8.527-7.861c-1.7-3.674-1.867-7.789-0.472-11.589
			c1.397-3.8,4.189-6.828,7.862-8.528c3.674-1.7,7.79-1.867,11.59-0.471c7.843,2.882,11.88,11.607,8.999,19.451l0,0
			c-1.087,2.956-3.019,5.452-5.595,7.232l-0.807,8.036c-0.02,0.195-0.151,0.361-0.337,0.424
			C456.359,71.804,456.306,71.813,456.252,71.813z M450.722,64.915c0.138,0,0.27,0.057,0.364,0.158l4.778,5.095l0.72-7.173
			c0.015-0.149,0.095-0.283,0.219-0.366c2.498-1.67,4.368-4.049,5.408-6.879c2.691-7.326-1.079-15.476-8.405-18.167
			c-3.548-1.303-7.394-1.147-10.824,0.44c-3.432,1.588-6.039,4.417-7.343,7.965c-1.304,3.549-1.148,7.393,0.439,10.824
			c1.588,3.432,4.417,6.039,7.966,7.343c2.142,0.787,4.366,1.045,6.616,0.765C450.681,64.917,450.701,64.915,450.722,64.915z
			 M462.681,55.922h0.01H462.681z"/>
	</g>
	<g>
		<path style="fill:#3E2E4D;" d="M203.082,302.232c2.025,0.159,4.038,0.496,6.034,0.855c3.378,0.609,6.78,1.289,10.228,1.272
			c3.143-0.016,6.237,0.285,9.405,0.378c7.133,0.209,14.269,0.134,21.403,0.053c0.143-0.002,0.285-0.003,0.428-0.005
			c6.428-0.073,12.856-0.146,19.283-0.219c8.225-0.093,16.533-0.197,24.526-2.14c0.886-0.215,1.828-0.492,2.398-1.204
			c0.595-0.742,0.636-1.771,0.651-2.722c0.239-14.964,0.477-29.928,0.716-44.892c0.079-4.93,0.151-9.921-0.999-14.716
			c-2.419-10.082-10.165-18.332-19.345-23.15s-19.69-6.547-30.049-6.982c-11.661-0.489-23.964,0.776-33.619,7.334
			c-3.899,2.648-7.227,6.076-10.073,9.834c-2.532,3.344-4.706,6.975-6.278,10.864c-2.472,6.116-3.41,12.732-4.131,19.289
			c-0.858,7.798-1.439,15.626-1.75,23.465c-0.155,3.918-0.261,7.842-0.264,11.764c-0.003,4.324-1.262,8.458-1.392,12.744
			c0.676,0.31,1.466,0.085,2.173-0.147c2.691-0.884,5.101-1.727,7.972-1.768C201.296,302.127,202.19,302.162,203.082,302.232z"/>
		<g>
			<g>
				<path style="fill:#86CCBA;" d="M320.438,474.258c-0.23-2.488-0.516-4.981-0.947-7.443c-0.153-0.872-1.895-4.649-1.827-5.081
					c0.341-2.14,2.39-1.4,4.514-0.058c2.719,1.718,5.207,3.922,7.884,5.73c5.138,3.469,10.529,6.632,16.321,8.885
					c14.06,5.469,34.772,4.575,38.091-13.685c1.18-6.489-0.777-13.094-2.76-19.384c-5.418-17.186-11.193-34.26-17.319-51.206
					c-5.762-15.938-11.866-31.844-20.117-46.687c-6.951-12.505-13.744-23.369-27.806-28.795c-8.881-3.427-17.987-6.216-26.985-9.312
					c-15.01-5.165-29.452-9.469-45.058-9.551c-1.171,0.671-2.333,1.358-3.472,2.089c-0.272,0.174-0.522-0.259-0.252-0.432
					c0.89-0.572,1.793-1.12,2.703-1.653c-1.565,0.01-3.138,0.048-4.729,0.148c-17.45,1.096-34.715,5.004-50.956,11.471
					c-11.259,4.483-22.041,10.196-32.029,17.063c-9.655,6.639-14.892,15.355-19.432,26.104
					c-6.967,16.494-11.894,33.854-14.589,51.556c-1.36,8.935-2.151,17.957-2.346,26.992c-0.186,8.617-0.535,18.12,1.259,26.582
					c1.661,7.836,5.792,14.359,13.839,16.364c7.518,1.873,15.936,0.365,23.022-2.471c1.574-0.63,3.752-2.147,5.481-1.255
					c3.64,1.881,0.781,14.57,0.614,17.975c-0.198,4.044-0.498,7.988,0.109,11.798h156.813
					C321.075,491.432,321.228,482.811,320.438,474.258z"/>
			</g>
			<g>
				<path style="fill:#75B3A3;" d="M320.438,474.258c-0.23-2.488-0.516-4.981-0.947-7.443c-0.153-0.872-1.895-4.649-1.827-5.081
					c0.341-2.14,2.39-1.4,4.514-0.058c2.719,1.718,5.207,3.922,7.884,5.73c5.138,3.469,10.529,6.632,16.321,8.885
					c14.06,5.469,34.772,4.575,38.091-13.685c1.162-6.393-0.72-12.899-2.673-19.105c-0.634,2.301-1.376,4.569-2.289,6.77
					c-2.365,5.7-6.103,11.365-12.11,13.636c-3.938,1.489-8.283,1.129-12.37,0.58c-5.393-0.725-10.613-2.39-15.388-5.008
					c-9.277-5.086-16.362-13.204-23.65-20.685c-4.449-4.567-9.12-8.743-14.65-11.973c-5.159-3.014-10.754-5.179-16.502-6.776
					c-5.894-1.638-11.927-2.711-17.957-3.706c-3.437-0.567-6.829-1.006-10.315-1.103c-3.723-0.103-7.453-0.037-11.168-0.342
					c-3.111-0.256-6.224-0.722-9.111-1.953c-2.874-1.226-5.496-3.551-8.6-3.924c-3.313-0.398-6.404,0.838-9.153,2.584
					c-4.2,2.667-7.836,6.115-11.513,9.466c-8.726,7.954-17.836,15.488-27.287,22.565c-8.175,6.123-17.786,14.398-28.257,15.826
					c-3.082,0.42-6.258-0.087-8.639-2.209c-4.932-4.394-5.154-12.659-5.077-18.739c0.126-9.843,1.808-19.694,3.111-29.424
					c1.874-13.997,4.025-28.005,7.574-41.689c1.557-6.003,3.407-11.959,5.46-17.812c1.24-3.534,2.806-6.952,5.784-9.357
					c1.707-1.378,3.677-2.387,5.688-3.241c2.681-1.139,5.4-2.197,8.088-3.322c3.682-1.541,8.17-3.804,12.293-3.253
					c4.303,0.575,7.997,4.242,11.275,6.887c9.789,7.898,25.697,16.521,38.698,15.297c5.194-0.489,10.291-2.28,14.798-4.874
					c8.649-4.977,15.577-13.215,18.468-22.818c2.527-8.395,1.461-17.068-2.591-24.536c-7.186-1.629-14.448-2.659-21.982-2.699
					c-1.171,0.671-2.333,1.358-3.472,2.089c-0.272,0.174-0.522-0.259-0.252-0.432c0.89-0.572,1.793-1.12,2.703-1.653
					c-1.565,0.01-3.138,0.048-4.729,0.148c-17.45,1.096-34.715,5.004-50.956,11.471c-11.259,4.483-22.041,10.196-32.029,17.063
					c-9.655,6.639-14.892,15.355-19.432,26.104c-6.967,16.494-11.894,33.854-14.589,51.556c-1.36,8.935-2.151,17.957-2.346,26.992
					c-0.186,8.617-0.535,18.12,1.259,26.582c1.661,7.836,5.792,14.359,13.839,16.364c7.518,1.873,15.936,0.365,23.022-2.471
					c1.574-0.63,3.752-2.147,5.481-1.255c3.64,1.881,0.781,14.57,0.614,17.975c-0.198,4.044-0.498,7.988,0.109,11.798h156.813
					C321.075,491.432,321.228,482.811,320.438,474.258z"/>
			</g>
			<g>
				<path style="fill:#5B9989;" d="M181.793,477.513c0.617-3.171,1.83-6.01,3.897-8.512c2.028-2.456,4.603-4.409,7.292-6.086
					c2.763-1.724,5.685-3.186,8.602-4.629c3.612-1.786,6.973-3.946,10.069-6.53c3.036-2.534,5.733-5.394,8.419-8.287
					c1.894-2.04,3.783-4.229,6.363-5.412c3.033-1.391,6.534-1.35,9.791-1.713c4.129-0.46,8.271-0.986,12.433-0.967
					c3.535,0.016,7.213,0.441,10.466,1.899c3.008,1.349,5.493,3.533,7.736,5.909c2.457,2.602,4.672,5.442,7.333,7.846
					c2.763,2.496,5.905,4.527,9.169,6.3c6.384,3.467,13.245,5.977,19.543,9.609c3.077,1.774,5.992,3.823,8.578,6.264
					c1.053,0.994,1.961,2.059,2.514,3.412c0.519,1.27,0.758,2.636,1.182,3.938c1.112,3.411,3.254,6.266,5.772,8.836
					c0.087-5.051-0.051-10.104-0.515-15.133c-0.23-2.488-0.516-4.981-0.947-7.443c-0.153-0.872-1.895-4.649-1.827-5.081
					c0.237-1.491,1.305-1.582,2.648-1.048c-1.638-1.703-3.478-3.213-5.176-4.512c-4.174-3.191-8.003-6.655-11.679-10.411
					c-3.592-3.67-7.395-7.237-10.771-11.106c-2.221-2.545-4.073-5.378-5.045-8.637c-0.529-1.773-0.818-3.603-0.982-5.449
					c-0.603-0.182-1.208-0.36-1.815-0.529c-5.894-1.638-11.927-2.711-17.957-3.706c-3.437-0.567-6.829-1.006-10.315-1.103
					c-3.723-0.103-7.453-0.037-11.168-0.342c-3.111-0.256-6.224-0.722-9.111-1.953c-2.203-0.939-4.26-2.168-6.333-3.359
					c-2.293,0.777-6.781,0.778-7.706,3.422c-0.517,1.477-0.283,3.105-0.535,4.65c-0.407,2.502-2.044,4.607-3.665,6.555
					c-11.462,13.773-25.008,25.879-40.075,35.584c-2.696,1.736-5.44,3.399-8.23,4.979c-1.303,0.737-2.513,1.499-3.748,2.333
					c-0.844,0.57-3.28,2.874-4.236,2.868c0.4,0.003,0.793,0.066,1.162,0.257c3.64,1.881,0.781,14.57,0.614,17.975
					c-0.198,4.044-0.498,7.988,0.109,11.798h17.491C180.78,492.502,180.354,484.909,181.793,477.513z"/>
			</g>
			<g>
				<path style="fill:#75B3A3;" d="M168.235,414.36c1.834-5.298,3.471-10.676,4.598-16.172c1.102-5.37,0.851-11.109,2.678-16.264
					c0.227-0.64,0.717-1.404,1.375-1.233c0.571,0.148,0.718,0.876,0.757,1.464c0.466,7.079,0.377,14.177,0.619,21.264
					c0.096,2.813,1.412,7.617,0.568,10.248c-0.775,2.415-4.263,3.549-6.456,3.975c-1.051,0.204-2.179,0.402-3.161-0.026
					C168.233,417.187,167.885,415.372,168.235,414.36z"/>
				<path style="fill:#ADD9CD;" d="M374.046,419.41c-2.467-9.371-6.019-18.705-9.015-27.918
					c-5.243-16.124-11.554-31.873-19.84-46.778c-6.951-12.505-13.744-23.369-27.806-28.795c-4.892-1.888-9.855-3.584-14.828-5.243
					c-4.95-1.652-9.887-3.269-14.931-4.625c-1.94-0.522-3.888-1.006-5.822-1.558c-0.701-0.178-1.387-0.406-2.08-0.612
					c-0.68-0.202-1.503-0.516-2.219-0.485c0.053,0.634,1.058,1.46,1.507,1.865c0.698,0.63,1.468,1.179,2.257,1.689
					c1.558,1.007,3.211,1.85,4.83,2.751c0.173,0.096,0.345,0.193,0.516,0.292c3.526,2.033,7.19,3.815,10.862,5.566
					c7.513,3.583,15.185,7.006,21.933,11.948c9.534,6.982,16.804,16.739,22.032,27.337c3.108,6.299,5.531,12.907,8.164,19.418
					c3.619,8.947,7.642,17.724,11.854,26.406c2.156,4.444,4.363,8.863,6.591,13.272c0.82,1.623,5.257,10.987,6.899,10.837
					C374.976,422.956,374.51,421.17,374.046,419.41z"/>
				<path style="fill:#75B3A3;" d="M319,405.165c-2.764-7.448-5.316-14.884-7.464-22.53c-1.972,0.921-2.041,3.798-2.155,5.773
					c-0.443,7.657-0.524,15.335-0.242,23c4.077,0.339,8.57,1.564,12.086,3.698c-0.444-2.707-1.055-5.386-1.828-8.018"/>
				<path style="fill:#ADD9CD;" d="M210.363,405.996c1.033-0.404,2.063-0.813,3.091-1.229c0.856-3.253-2.507-4.392-5.013-4.209
					c-3.779,0.276-7.639,1.247-11.294,2.208c-7.678,2.017-15.086,4.997-22.161,8.581c-10.234,5.184-22.686,11.897-29.538,21.334
					c0.532-0.732,3.295-1.111,4.169-1.461c1.294-0.518,2.419-1.19,3.632-1.891c2.675-1.545,5.41-2.984,8.185-4.341
					c5.558-2.717,11.277-5.09,17.051-7.305C189.054,413.628,199.822,410.115,210.363,405.996z"/>
			</g>
			<path style="fill:#FFBBA8;" d="M219.036,414.568c0.274,0.304,0.557,0.612,0.916,0.806c1.21,0.654,2.65-0.194,3.789-0.965
				c3.92-2.655,8.214-4.757,12.716-6.223c1.201-0.391,2.508-0.801,3.236-1.833c0.478-0.677,0.629-1.526,0.762-2.344
				c0.786-4.84,1.311-9.995-0.661-14.485c-1.3-2.959-3.575-5.362-5.807-7.699c-0.405-0.424-0.833-0.864-1.388-1.054
				c-1.233-0.423-2.482,0.512-3.452,1.383c-2.316,2.08-4.632,4.16-6.948,6.241c-4.295,3.857-8.059,7.602-11.335,12.394
				c-0.336,0.492-0.677,1.016-0.729,1.61c-0.161,1.872,2.01,3.728,3.021,5.062C215.016,409.912,216.978,412.284,219.036,414.568z"/>
			<path style="fill:#FFC9BA;" d="M216.005,401.471c1.967,0.818,3.961,1.583,4.325,1.643c2.37,0.387,4.991-0.027,6.76-1.651
				c2.495-2.291,2.599-6.124,2.523-9.511c-0.046-2.066,0.165-5.768-1.272-7.468c-1.357-1.605-4.912,2.807-6.141,3.911
				c-3.886,3.49-7.333,6.896-10.381,11.06C211.707,399.608,213.839,400.571,216.005,401.471z"/>
			<g>
				<path style="fill:#606060;" d="M267.471,351.982h-31.548c-1.732,0-3.136,1.404-3.136,3.136v67.449
					c0,1.732,1.404,3.136,3.136,3.136h31.548c1.732,0,3.136-1.404,3.136-3.136v-67.449
					C270.607,353.386,269.203,351.982,267.471,351.982z"/>
			</g>
			<path style="fill:#FFB19C;" d="M289.093,421.685c1.756-2.973,4.028-5.989,5.405-9.151c1.072-2.461-0.594-3.45-2.19-5.127
				c-1.363-1.432-2.556-3.027-3.509-4.76c-1.722-3.128-2.195-6.393-3.291-9.718c-0.386-1.171-0.919-2.288-1.39-3.427
				c-1.611-3.898-2.508-8.086-4.425-11.842c-0.975-1.91-2.265-3.694-3.886-5.108c-1.162-1.014-2.42-1.769-3.844-2.346
				c-0.495-0.201-0.959-0.62-1.2-0.056c-0.416,0.973-0.018,2.63-0.01,3.665c0.018,2.534,0.006,5.056-0.057,7.589
				c-0.019,0.745-0.037,1.491-0.056,2.236c-0.029,1.157-0.299,1.519-1.282,2.009c-1.002,0.499-2.124,0.48-3.166,0.102
				c-1.388-0.504-2.486-1.57-3.513-2.63c-4.092-4.223-8.393-8.463-12.149-12.986c-0.869-1.047-1.878-2.173-3.231-2.318
				c-2.801-0.301-3.655,3.587-2.718,5.53c-1.011-0.706-2.487-0.203-3.323,0.703c-0.837,0.906-1.116,2.206-1.102,3.439
				c0.03,2.519,1.123,4.888,2.195,7.167c-0.487-0.37-1.531-0.349-1.988,0.057c-0.458,0.406-0.67,1.028-0.737,1.636
				c-0.168,1.523,0.462,3.027,1.268,4.33s1.8,2.493,2.489,3.862c-1.02,1.14-1.856,2.657-1.511,4.148
				c0.432,1.864,5.219,5.56,6.626,6.857c1.249,1.151,2.498,2.303,3.746,3.454c3.045,2.807,6.108,5.629,9.578,7.89
				c7.594,4.948,16.433,6.762,25.243,7.891C287.835,423.814,288.466,422.748,289.093,421.685z"/>
			<path style="fill:#FFC9BA;" d="M241.754,398.77c0.066,0.093,0.132,0.185,0.199,0.276c0.641,0.871,1.235,1.695,2.013,2.468
				c1.437,1.428,3.044,2.659,4.531,4.03c1.249,1.151,2.498,2.303,3.746,3.454c3.045,2.807,6.108,5.629,9.578,7.89
				c7.594,4.948,16.433,6.762,25.243,7.891c0.771-0.964,1.401-2.031,2.029-3.093c1.756-2.973,4.028-5.989,5.405-9.151
				c1.072-2.461-0.594-3.45-2.19-5.127c-1.363-1.432-2.556-3.027-3.509-4.76c-1.722-3.128-2.195-6.393-3.291-9.718
				c-0.386-1.171-0.919-2.288-1.39-3.427c-1.611-3.898-2.508-8.086-4.425-11.842c-0.975-1.91-2.265-3.694-3.886-5.108
				c-1.162-1.014-2.42-1.769-3.844-2.346c-0.495-0.201-0.959-0.62-1.2-0.056c-0.416,0.973-0.018,2.63-0.01,3.665
				c0.018,2.534,0.006,5.056-0.057,7.589c-0.019,0.745-0.037,1.491-0.056,2.236c-0.029,1.157-0.299,1.519-1.282,2.009
				c-1.002,0.499-2.124,0.48-3.166,0.102c-1.388-0.504-2.486-1.57-3.513-2.63c-4.092-4.223-8.393-8.463-12.149-12.986
				c-0.869-1.047-1.878-2.173-3.231-2.318c-0.554-0.06-1.785,0.105-2.04,0.742c-0.212,0.529,0.493,1.614,0.651,2.23
				c1.105,4.288,3.474,8.152,6.264,11.548c1.129,1.375,2.338,2.683,3.601,3.936c0.879,0.872,1.787,1.804,2.671,2.704
				c0.455,0.464,0.911,0.927,1.37,1.386c0.274,0.274,1.181,0.893,1.2,1.318c0.006,0.127-0.121,0.228-0.248,0.241
				c-0.127,0.013-0.25-0.039-0.366-0.091c-2.081-0.936-3.708-2.591-5.313-4.193c-4.112-4.104-7.409-8.929-10.493-13.827
				c-0.61-0.969-1.749-0.896-2.628-0.353c-1.116,0.689-1.266,1.979-1.003,3.212c0.214,1.005,0.694,2.02,1.088,2.96
				c0.424,1.011,0.917,1.998,1.428,2.968c0.703,1.334,1.473,2.632,2.306,3.889c0.685,1.034,1.36,1.951,2.238,2.823
				c0.969,0.962,1.946,1.915,2.932,2.859c1.63,1.561,3.283,3.098,4.959,4.611c0.275,0.248,0.824,0.504,0.947,0.876
				c0.266,0.811-0.916,0.21-1.187,0.007c-1.872-1.395-3.77-2.727-5.564-4.216c-1.333-1.106-2.476-2.418-3.605-3.725
				c-0.611-0.708-1.192-1.444-1.729-2.21c-0.664-0.947-1.262-2.012-2.2-2.722c-1.149-0.869-2.742-0.432-2.598,1.223
				c0.043,0.499,0.23,0.974,0.439,1.43c0.335,0.733,0.731,1.439,1.182,2.107c0.462,0.684,0.981,1.328,1.498,1.971
				c1.713,2.125,3.433,4.259,5.438,6.112c1.775,1.64,3.607,3.176,5.344,4.86c0.19,0.184,0.851,0.716,0.479,0.945
				c-0.334,0.206-1.169-0.413-1.429-0.58c-0.877-0.563-1.746-1.145-2.566-1.781c-1.331-1.033-2.663-2.069-3.904-3.211
				c-0.605-0.557-1.142-1.176-1.73-1.748c-0.588-0.572-0.988-1.308-1.608-1.845c-0.417-0.361-0.95-0.618-1.501-0.601
				c-0.551,0.017-1.109,0.355-1.282,0.879c-0.074,0.225-0.076,0.468-0.059,0.704C240.376,396.548,241.013,397.72,241.754,398.77z"/>
			<path style="fill:#FFB19C;" d="M268.716,387.198c2.451,1.431,5.3,0.252,5.642-2.639c0.254-2.149-0.189-4.641-0.716-6.725
				c-0.578-2.284-1.665-4.351-3.06-6.219c0.03,0.771,0.166,1.591,0.17,2.199c0.018,2.534,0.006,5.056-0.057,7.589
				c-0.019,0.745-0.037,1.491-0.056,2.236c-0.029,1.157-0.299,1.52-1.281,2.009c-0.7,0.348-1.457,0.431-2.205,0.329
				C267.63,386.445,268.146,386.865,268.716,387.198z"/>
			<path style="fill:#D3EDE5;" d="M210.815,398.777c1.119,1.611,2.02,3.23,2.961,4.757c0.925,1.534,1.852,2.987,2.845,4.337
				c0.984,1.338,2.055,2.59,3.229,3.732c1.173,1.155,2.447,2.162,3.906,3.157l0.103,0.07c0.809,0.552,1.017,1.655,0.465,2.464
				c-0.35,0.513-0.934,0.784-1.512,0.773c-2.246-0.061-4.426-0.896-6.308-2.073c-1.886-1.194-3.496-2.755-4.79-4.514
				c-1.287-1.75-2.255-3.668-2.946-5.624c-0.678-1.964-1.122-3.956-1.216-5.995c-0.046-0.986,0.716-1.821,1.702-1.867
				c0.632-0.029,1.203,0.274,1.543,0.755L210.815,398.777z"/>
			<path style="fill:#ADD9CD;" d="M299.421,411.338c-0.384,0.127-0.761,0.281-1.126,0.465c-0.523,0.263-0.964,0.713-0.806,1.338
				c2.306,0.418,4.619,0.07,6.868,1.052c2.349,1.025,4.711,2.02,7.029,3.115c1.212,0.573,2.409,1.184,3.622,1.764
				c0.959,0.458,2.777,1.786,3.827,1.786c4.327,1.953,8.661,3.892,13,5.818c6.711,2.979,13.829,5.877,20.303,9.464
				c0.2,0.111,2.85,1.263,2.854,1.271c-1.787-4.088-4.963-7.008-8.623-9.412c-4.139-2.719-8.439-5.185-12.806-7.518
				c-4.929-2.633-9.852-5.21-15.163-6.99c-3.483-1.167-7.084-1.999-10.738-2.394C305.003,410.808,302.021,410.476,299.421,411.338z"
				/>
			<path style="fill:#D3EDE5;" d="M283.859,425.863c1.179-1.567,2.434-2.931,3.59-4.302c1.167-1.359,2.256-2.694,3.228-4.061
				c0.962-1.354,1.816-2.763,2.532-4.236c0.729-1.475,1.287-3.001,1.775-4.698l0.034-0.12c0.271-0.941,1.253-1.484,2.194-1.214
				c0.597,0.172,1.037,0.641,1.208,1.194c0.646,2.152,0.536,4.484,0.008,6.64c-0.543,2.165-1.521,4.183-2.787,5.963
				c-1.259,1.77-2.777,3.291-4.417,4.56c-1.653,1.259-3.405,2.304-5.312,3.033c-0.922,0.352-1.954-0.11-2.306-1.032
				c-0.226-0.591-0.117-1.228,0.234-1.702L283.859,425.863z"/>
		</g>
		<g>
			<g>
				<path style="fill:#C8EDE3;" d="M282.321,319.306c-0.711,6.885-4.395,13.679-9.015,18.611
					c-8.717,9.304-21.946,12.709-34.349,11.106c-13.179-1.703-25.825-9.567-29.595-22.896c-0.618-2.187-0.936-4.455-0.936-6.728
					c0-16.63,16.728-30.111,37.362-30.111c1.878,0,3.756,0.111,5.62,0.338c11.576,1.409,23.387,7.537,28.892,18.216
					C282.173,311.479,282.724,315.407,282.321,319.306z"/>
				<path style="fill:#EBAFA0;" d="M232.53,289.762c-3.156,0.375-5.593,1.869-7.283,4.59c-1.956,3.151-4.068,6.329-6.07,9.528
					c-5.417,8.657-3.571,21.13,3.339,28.552c6.848,7.356,17.148,10.021,26.899,8.415c8.74-1.439,17.449-6.507,22.67-13.712
					c3.583-4.945,4.816-11.16,3.675-17.133c-1.295-6.779-5.281-11.013-9.458-16.157c-1.924-2.369-2.461-3.8-5.782-4.182
					C251.231,288.595,241.817,288.659,232.53,289.762z"/>
				<path style="fill:#D99B8C;" d="M247.575,337.705c-3.347-1.061-6.259-3.473-8.662-5.963c-1.714-1.777-3.025-3.591-3.833-5.933
					c-1.166-3.383-2.101-9.473,2.043-11.291c1.345-0.59,2.907-0.57,4.344-0.5c1.866,0.09,3.698,0.278,5.57,0.205
					c4.061-0.159,8.446-0.926,12.101-2.783c5.474-2.78,7.912-8.407,10.321-13.727c-1.011-1.268-2.077-2.537-3.157-3.867
					c-1.924-2.369-2.461-3.8-5.782-4.182c-9.29-1.069-18.705-1.005-27.991,0.098c-3.156,0.375-5.593,1.869-7.283,4.59
					c-1.956,3.151-4.068,6.329-6.07,9.528c-5.417,8.657-3.571,21.13,3.339,28.552c6.848,7.356,17.148,10.021,26.899,8.415
					c4.58-0.754,9.147-2.513,13.213-5.046C257.761,337.853,252.631,339.308,247.575,337.705z"/>
				<g>
					<g>
						<g>
							<circle style="fill:#FFF4E6;" cx="223.744" cy="300.903" r="3.228"/>
						</g>
						<g>
							<path style="fill:#F7E2C6;" d="M222.783,301.121c-0.473-0.815-0.774-2.029-0.574-3.042c-1.004,0.547-1.694,1.599-1.694,2.824
								c0,1.783,1.445,3.228,3.228,3.228c1.039,0,1.953-0.499,2.544-1.262C224.927,303.002,223.61,302.546,222.783,301.121z"/>
						</g>
						<g>
							<path style="fill:#FFF4E6;" d="M224.64,308.092c0,1.783-1.445,3.228-3.228,3.228c-1.783,0-3.228-1.445-3.228-3.228
								c0-1.783,1.445-3.228,3.228-3.228C223.195,304.865,224.64,306.31,224.64,308.092z"/>
						</g>
						<g>
							<path style="fill:#FFF4E6;" d="M226.319,315.893c0,2.12-1.719,3.839-3.839,3.839c-2.12,0-3.839-1.719-3.839-3.839
								c0-2.12,1.719-3.838,3.839-3.838C224.6,312.054,226.319,313.773,226.319,315.893z"/>
						</g>
						<g>
							<path style="fill:#FFF4E6;" d="M231.23,323.57c0,2.352-1.906,4.258-4.258,4.258c-2.352,0-4.258-1.906-4.258-4.258
								c0-2.352,1.907-4.258,4.258-4.258C229.323,319.311,231.23,321.218,231.23,323.57z"/>
						</g>
						<g>
							<path style="fill:#FFF4E6;" d="M240.499,328.982c0,2.721-2.206,4.926-4.926,4.926c-2.721,0-4.926-2.206-4.926-4.926
								s2.205-4.926,4.926-4.926C238.294,324.056,240.499,326.261,240.499,328.982z"/>
						</g>
						<g>
							<path style="fill:#F7E2C6;" d="M220.915,309.102c-0.975-0.7-1.743-1.837-1.992-3.042c-0.455,0.556-0.739,1.258-0.739,2.032
								c0,1.783,1.445,3.228,3.228,3.228c1.108,0,2.084-0.559,2.665-1.41C222.977,309.996,221.883,309.797,220.915,309.102z"/>
						</g>
						<g>
							<path style="fill:#F7E2C6;" d="M222.046,317.644c-1.329-1.084-2.205-2.894-2.095-4.618c-0.796,0.703-1.309,1.72-1.309,2.866
								c0,2.12,1.719,3.839,3.839,3.839c1.11,0,2.102-0.478,2.803-1.232C224.164,318.66,223.027,318.444,222.046,317.644z"/>
						</g>
						<g>
							<path style="fill:#F7E2C6;" d="M226.29,325.266c-1.412-1.071-2.37-3.043-2.161-4.846c-0.863,0.779-1.416,1.896-1.416,3.15
								c0,2.352,1.907,4.258,4.258,4.258c1.618,0,3.009-0.913,3.73-2.243C229.26,326.206,227.626,326.279,226.29,325.266z"/>
						</g>
						<g>
							<path style="fill:#F7E2C6;" d="M235.447,330.968c-2.112-1.115-3.118-3.26-3.297-5.519c-0.924,0.895-1.503,2.145-1.503,3.533
								c0,2.721,2.205,4.926,4.926,4.926c1.868,0,3.473-1.051,4.308-2.583C238.51,331.885,236.894,331.732,235.447,330.968z"/>
						</g>
					</g>
					<g>
						<g>
							<path style="fill:#FFF4E6;" d="M264.605,300.903c0,1.783,1.445,3.228,3.228,3.228c1.783,0,3.228-1.445,3.228-3.228
								c0-1.783-1.445-3.228-3.228-3.228C266.05,297.675,264.605,299.12,264.605,300.903z"/>
						</g>
						<g>
							<path style="fill:#FFF4E6;" d="M266.937,308.092c0,1.783,1.445,3.228,3.228,3.228c1.783,0,3.228-1.445,3.228-3.228
								c0-1.783-1.445-3.228-3.228-3.228C268.382,304.865,266.937,306.31,266.937,308.092z"/>
						</g>
						<g>
							<path style="fill:#FFF4E6;" d="M265.258,315.893c0,2.12,1.719,3.839,3.839,3.839c2.12,0,3.839-1.719,3.839-3.839
								c0-2.12-1.719-3.838-3.839-3.838C266.976,312.054,265.258,313.773,265.258,315.893z"/>
						</g>
						<g>
							<path style="fill:#FFF4E6;" d="M260.347,323.57c0,2.352,1.907,4.258,4.258,4.258c2.352,0,4.258-1.906,4.258-4.258
								c0-2.352-1.907-4.258-4.258-4.258C262.253,319.311,260.347,321.218,260.347,323.57z"/>
						</g>
						<g>
							<circle style="fill:#FFF4E6;" cx="256.004" cy="328.982" r="4.926"/>
						</g>
					</g>
					<g>
						<path style="fill:#FFF4E6;" d="M250.621,332.754c0,2.721-2.205,4.926-4.926,4.926c-2.721,0-4.926-2.206-4.926-4.926
							c0-2.721,2.205-4.926,4.926-4.926C248.415,327.828,250.621,330.034,250.621,332.754z"/>
					</g>
					<g>
						<g>
							<path style="fill:#F7E2C6;" d="M269.059,302.283c-2.007-0.346-3.183-2.026-3.22-3.901c-0.746,0.591-1.234,1.495-1.234,2.52
								c0,1.783,1.445,3.228,3.228,3.228c1.319,0,2.449-0.793,2.95-1.927C270.226,302.343,269.647,302.385,269.059,302.283z"/>
						</g>
						<g>
							<path style="fill:#F7E2C6;" d="M270.799,309.74c-1.443-0.457-2.869-1.986-3.214-3.569c-0.402,0.538-0.648,1.199-0.648,1.922
								c0,1.783,1.445,3.228,3.228,3.228c1.141,0,2.138-0.595,2.712-1.489C272.194,309.958,271.496,309.96,270.799,309.74z"/>
						</g>
						<g>
							<path style="fill:#F7E2C6;" d="M265.909,313.755c-0.411,0.611-0.651,1.346-0.651,2.138c0,2.12,1.719,3.839,3.839,3.839
								c1.589,0,2.952-0.966,3.536-2.342C269.778,318.137,266.394,316.537,265.909,313.755z"/>
						</g>
						<g>
							<path style="fill:#F7E2C6;" d="M263.653,325.359c-1.346-0.856-2.341-2.42-2.642-4.055c-0.415,0.657-0.665,1.431-0.665,2.266
								c0,2.352,1.906,4.258,4.258,4.258c1.606,0,2.988-0.9,3.713-2.213C266.807,326.225,265.143,326.307,263.653,325.359z"/>
						</g>
						<g>
							<path style="fill:#F7E2C6;" d="M255.277,329.975c-1.368-0.942-2.695-2.23-3.33-3.783c-0.547,0.793-0.87,1.753-0.87,2.789
								c0,2.721,2.206,4.926,4.926,4.926c1.823,0,3.397-1.002,4.249-2.474C258.498,331.44,256.762,330.997,255.277,329.975z"/>
						</g>
					</g>
					<g>
						<path style="fill:#F7E2C6;" d="M241.824,329.741c-0.651,0.835-1.055,1.872-1.055,3.013c0,2.72,2.205,4.926,4.926,4.926
							c1.941,0,3.604-1.133,4.406-2.764C246.502,335.286,242.592,333.259,241.824,329.741z"/>
					</g>
				</g>
			</g>
			<g>
				<path style="fill:#FFC9BA;" d="M286.922,254.857c1.726-13.429-0.569-26.729-10.4-36.634
					c-7.356-7.412-17.237-10.601-27.445-10.935c-11.058-0.361-21.811,0.694-31.071,7.49c-20.858,15.308-20.03,49.559-5.817,69
					c7.192,9.837,17.64,17.26,29.303,20.569c11.941,3.387,24.478-7.091,31.541-15.953
					C280.556,278.955,285.381,266.853,286.922,254.857z"/>
				<path style="fill:#F2B9AA;" d="M232.05,284.972c0.005-0.056,0.038-0.09,0.067-0.126c0.006-0.074,0.007-0.149,0.014-0.223
					c0.475-5.107,2.89-7.309,6.035-10.931c1.955-2.251,2.679-5.342,2.754-8.322c0.075-2.981-0.43-5.943-0.619-8.918
					c-0.066-1.033-0.085-2.112,0.345-3.054c1.099-2.404,4.837-1.984,6.965-2.205c3.041-0.316,6.069-0.765,9.067-1.372
					c10.793-2.186,21.059-6.535,29.64-13.431c-1.497-6.685-4.576-12.906-9.795-18.166c-7.356-7.412-17.237-10.601-27.445-10.935
					c-11.058-0.361-21.811,0.694-31.071,7.49c-20.858,15.307-20.03,49.559-5.817,69c7.192,9.837,17.64,17.26,29.303,20.569
					c0.073,0.021,0.146,0.031,0.219,0.051C235.252,300.597,231.325,292.732,232.05,284.972z"/>
				<path style="fill:#EBA896;" d="M217.099,286.957c-1.858-4.89-2.741-9.951-2.812-15.171c-0.082-6.057,0.664-12.086,1.757-18.034
					c0.598-3.256,0.915-6.865,2.795-9.695c0.756-1.137,1.79-2.022,3.185-2.178c2.237-0.25,4.488,0.631,6.691,0.87
					c3.13,0.339,6.287,0.46,9.432,0.573c1.707,0.061,3.318,0.362,5.011,0.517c1.357,0.124,2.432-0.178,3.679-0.654
					c1.696-0.648,2.832-0.707,4.289,0.361c1.036,0.76,2.776,0.475,3.994,0.355c1.512-0.149,3.008-0.446,4.482-0.809
					c2.627-0.647,5.192-1.524,7.738-2.432c2.365-0.843,4.715-1.472,6.482-3.364c1.275-1.365,1.947-2.873,3.989-1.952
					c1.146,0.516,2.746,0.476,3.644-0.56c0.552-0.637,0.712-1.544,0.766-2.358c0.208-3.126-0.922-6.107-1.533-9.137
					c-1.208-1.765-2.576-3.465-4.165-5.065c-7.356-7.412-17.237-10.601-27.445-10.935c-11.058-0.361-21.811,0.694-31.071,7.49
					c-20.858,15.307-20.03,49.559-5.817,69c2.085,2.852,4.451,5.494,7.034,7.899C218.408,290.143,217.704,288.551,217.099,286.957z"
					/>
				<circle style="fill:#DB9191;" cx="269.056" cy="276" r="8"/>
				<circle style="fill:#DB9191;" cx="220.056" cy="276" r="8"/>
				<g>
					<path style="fill:#FFFFFF;" d="M250.78,287.638c0.301-0.118,0.612-0.217,0.939-0.285c1.592-0.332,0.917,2.812,0.722,3.626
						c-0.372,1.552-1.182,3.015-2.436,4.025c-2.245,1.81-5.435,1.523-7.76,0.021c-1.413-0.913-2.525-2.245-3.002-3.872
						c-0.251-0.854-1.147-4.561,0.869-3.853c0.331,0.116,0.611,0.339,0.898,0.54c1.573,1.105,3.54,1.588,5.449,1.449
						C248.151,289.166,249.361,288.194,250.78,287.638z"/>
				</g>
				<path style="fill:#EBA591;" d="M244.861,281.315c-1.838,0-3.688-0.813-4.988-2.754c-1.322-1.975-1.288-4.704,0.084-6.637
					c0.16-0.226,0.471-0.278,0.697-0.118c0.225,0.159,0.278,0.472,0.118,0.696c-1.137,1.601-1.165,3.864-0.068,5.502
					c1.858,2.777,5.076,2.789,7.292,1.367c2.09-1.342,3.395-4.006,1.595-6.933c-0.145-0.235-0.071-0.543,0.164-0.688
					c0.235-0.148,0.542-0.07,0.688,0.164c2.143,3.485,0.514,6.744-1.906,8.297C247.449,280.91,246.158,281.315,244.861,281.315z"/>
				<path style="fill:#1C1716;" d="M261.248,259.096c-0.309-1.607-0.351-3.388,0.484-5.149c0.412-0.876,1.134-1.669,2.01-2.204
					c0.874-0.535,1.874-0.793,2.857-0.836c0.988-0.024,1.971,0.185,2.873,0.599c0.883,0.442,1.706,1.086,2.247,1.938
					c1.063,1.733,1.089,3.463,1.034,5.065c-0.01,0.282-0.246,0.503-0.528,0.493c-0.206-0.007-0.382-0.14-0.456-0.319
					c-0.611-1.474-1.122-2.975-1.919-3.841c-0.79-0.834-1.986-1.282-3.17-1.249c-0.593-0.004-1.163,0.158-1.661,0.4
					c-0.506,0.236-0.917,0.612-1.292,1.105c-0.73,1.014-1.12,2.487-1.48,4.01l-0.002,0.009c-0.065,0.274-0.34,0.444-0.614,0.379
					C261.43,259.448,261.285,259.287,261.248,259.096z"/>
				<path style="fill:#1C1716;" d="M214.999,259.096c-0.309-1.607-0.351-3.388,0.485-5.149c0.412-0.876,1.134-1.669,2.01-2.204
					c0.874-0.535,1.874-0.793,2.858-0.836c0.988-0.024,1.971,0.185,2.873,0.599c0.883,0.442,1.706,1.086,2.247,1.938
					c1.063,1.733,1.089,3.463,1.034,5.065c-0.01,0.282-0.246,0.503-0.528,0.493c-0.206-0.007-0.382-0.14-0.456-0.319
					c-0.611-1.474-1.122-2.975-1.919-3.841c-0.79-0.834-1.986-1.282-3.17-1.249c-0.593-0.004-1.163,0.158-1.661,0.4
					c-0.506,0.236-0.917,0.612-1.292,1.105c-0.73,1.014-1.12,2.487-1.48,4.01l-0.002,0.009c-0.065,0.274-0.34,0.444-0.614,0.379
					C215.181,259.448,215.036,259.287,214.999,259.096z"/>
				<path style="fill:#634D77;" d="M291.564,225.326c-1.157-3.288-2.552-6.502-4.277-9.534
					c-7.407-13.023-21.309-23.704-36.711-24.103c-4.034-0.105-8.078,0.155-12.065,0.781c-10.13,1.591-20.02,5.582-27.897,12.234
					c-8.066,6.811-12.387,15.279-13.847,25.757c-0.078,0.559-0.131,1.178,0.195,1.639c0.259,0.366,0.702,0.546,1.121,0.704
					c3.605,1.363,7.292,2.511,11.034,3.435c3.404,0.841,6.804,1.101,10.295,1.388c0.091,0.007,0.19,0.013,0.265-0.039
					c0.073-0.05,0.105-0.141,0.131-0.226c0.715-2.371,0.793-4.883,1.296-7.293c0.284-1.363,0.773-2.671,1.34-3.94
					c0.458-1.027,0.695-2.166,1.281-3.109c0.088-0.141,0.201-0.273,0.301-0.41c0.133,0.059,0.278,0.095,0.425,0.103
					c0.229,0.012,0.47,0.003,0.676,0.103c0.456,0.22,0.454,2.034,0.428,2.508c-0.079,1.483-0.305,2.961-0.396,4.445
					c-0.165,2.703-0.331,5.406-0.496,8.109c-0.016,0.258-0.013,0.559,0.19,0.718c0.126,0.099,0.297,0.114,0.456,0.124
					c3.538,0.237,7.076,0.46,10.614,0.691c1.853,0.121,3.706,0.245,5.558,0.373c0.722,0.05,3.265,0.465,3.786-0.135
					c0.162-0.186,0.194-0.449,0.218-0.694c0.405-4.04,0.761-8.084,1.104-12.129c0.148-1.735,0.609-3.585,0.514-5.326
					c-0.075-1.361-0.536-2.477,0.581-3.633c0.166-0.172,0.35-0.329,0.526-0.492c0.194,0.178,0.42,0.322,0.644,0.469
					c0.046,0.03,0.091,0.061,0.135,0.094c0.741,0.548,0.847,1.264,0.979,2.101c0.364,2.319,0.657,4.656,0.932,6.988
					c0.4,3.382,1.19,6.826,1.257,10.216c0.017,0.847,0.258,1.809,1.014,2.191c0.508,0.257,1.113,0.179,1.676,0.093
					c4.623-0.706,9.226-1.54,13.803-2.501c0.574-0.12,1.17-0.253,1.631-0.615c1.281-1.003,0.793-3.202,0.8-4.619
					c0.014-2.666-0.079-5.237,0.488-7.842c0.066-0.305,0.116-0.606,0.163-0.906c0.407,0.596,0.783,1.219,1.127,1.869
					c1.194,2.259,2.803,4.203,3.6,6.705c0.135,0.42,0.253,0.867,0.555,1.189c1.098,1.17,3.064-0.15,4.173-0.652
					c3.402-1.54,6.69-3.331,9.829-5.354c0.274-0.176,0.568-0.382,0.653-0.697C291.74,225.849,291.652,225.578,291.564,225.326z"/>
				<path style="fill:#634D77;" d="M215.823,173.857c-3.843,1.964-7.611,4.467-10.916,7.071c-5.501,4.334-9.846,9.98-13.492,15.959
					c-3.971,6.513-7.188,13.572-8.896,21.03c-1.643,7.179-1.502,14.368-1.987,21.641c-0.003,0.049-0.015,0.093-0.015,0.144
					c-0.029,11.25-0.052,22.557-1.672,33.714c-1.652,11.38-3.574,21.643-1.461,33.147c0.137,0.746,0.576,1.196,1.111,1.404
					c0.522,0.361,1.206,0.498,1.944,0.195c5.58-2.29,11.266-4.188,17.096-5.725c0.887-0.234,1.513-0.923,1.595-1.844
					c0.192-2.148-0.125-3.154,2.157-4.514c1.49-0.888,4.038-1.067,5.684-1.501c1.006-0.266,1.838-1.267,1.558-2.362
					c-1.442-5.636-2.977-11.383-3.197-17.228c-0.215-5.725,1.141-11.209,2.383-16.751c1.688-7.535,2.8-15.316-0.133-22.481
					c3.479,0.746,7.002,1.302,10.484,1.758c1.508,0.197,2.589-1.634,1.897-2.905c-0.337-0.62,1.007-4.652,1.33-5.842
					c0.237-0.907,0.499-1.807,0.786-2.699c0.277-1.664,1.397-2.644,3.359-2.941c0.033,0.111,0.079,0.208,0.125,0.305
					c0.194,3.767,0.285,7.557-0.419,11.278c-0.052,0.277-0.045,0.536-0.003,0.779c-0.247,0.391-0.327,0.873-0.263,1.342
					c0.039,0.922,0.622,1.813,1.809,1.887c3.689,0.229,7.377,0.458,11.066,0.687c1.174,0.241,2.354,0.444,3.55,0.528
					c1.889,0.132,3.327-0.016,4.203-1.765c1.337-2.67,0.941-7.088,1.053-10.01c0.076-1.982,0.083-3.977,0.251-5.954
					c0.04-1.116,0.174-2.22,0.4-3.313c0.574-0.499,1.086-0.817,1.548-0.984c1.004,2.359,1.753,4.783,2.351,7.254
					c0.114,0.723,0.248,1.439,0.393,2.148c0.4,3.448,0.646,6.919,0.948,10.372c0.096,1.1,1.395,1.727,2.361,1.558
					c3.037-0.531,5.957-1.436,8.982-2.055c0.273,0.078,0.578,0.1,0.917,0.041c2.498-0.441,5.964-0.315,6.213-3.539
					c0.259-3.363-0.31-6.389,0.234-9.532c0.398-0.169,0.804-0.315,1.228-0.421c0.488,0.739,0.929,1.462,1.289,2.031
					c1.241,1.959,2.318,4.02,3.401,6.069c0.519,0.981,1.477,1.2,2.303,0.95c-0.363,3.41-0.657,6.824-0.71,10.224
					c-0.101,6.464,1.54,12.505,3.157,18.709c1.754,6.734,3.063,13.493,0.446,20.207c-2.196,5.635-5.868,10.54-7.969,16.235
					c-0.484,1.311,0.865,3.045,2.304,2.578c3.913-1.271,7.862-2.277,11.883-3.059c-0.108,1.198-0.217,2.396-0.325,3.594
					c-0.111,1.233,1.169,2.403,2.399,2.075c4.237-1.131,8.06-1.813,12.452-1.849c3.148-0.026,5.916-0.178,8.889-1.347
					c1.08-0.425,1.228-1.763,0.874-2.69c-5.682-14.883-8.389-30.673-7.867-46.604c0.429-13.083,2.225-26.042-1.821-38.637
					c-3.662-11.4-8.207-22.227-17.052-30.663c-17.302-16.501-45.861-18.216-67.122-9.152
					C217.884,172.845,216.851,173.332,215.823,173.857z"/>
				<path style="fill:#6B5680;" d="M245.789,217.427c-0.512,0.321-0.847,0.817-1.142,1.334c-0.606,1.061-1.009,2.232-1.434,3.373
					c-0.846,2.273-2.067,4.234-3.602,6.119c-3.337,4.097-7.612,7.242-11.706,10.543c3.282,0.204,6.565,0.408,9.847,0.611
					c1.174,0.241,2.354,0.444,3.55,0.528c1.889,0.132,3.327-0.016,4.203-1.765c1.337-2.67,0.941-7.088,1.053-10.01
					c0.076-1.982,0.083-3.977,0.251-5.954c0.04-1.116,0.174-2.22,0.4-3.313c0.302-0.263,0.587-0.473,0.856-0.639
					C247.689,217.336,246.863,216.754,245.789,217.427z"/>
				<path style="fill:#6B5680;" d="M222.39,222.048c-2.157,0.808-4.078,2.363-5.945,3.676c-0.813,0.571-1.622,1.17-2.488,1.659
					c-1.049,0.593-2.272,0.848-3.435,1.124c-3.654,0.87-7.472,1.291-10.829,3.092c-0.104,0.056-0.193,0.021-0.264-0.037
					c-0.055,0.05-0.12,0.094-0.166,0.15c-0.55,0.674,0.161,1.209,0.689,1.574c1.119,0.773,2.411,1.251,3.707,1.634
					c1.298,0.383,2.62,0.663,3.95,0.908c-0.01-0.024-0.017-0.048-0.027-0.071c0.822,0.176,1.647,0.34,2.473,0.496
					c0.505,0.085,1.01,0.17,1.513,0.26c0.01,0.002,0.011,0.011,0.02,0.014c2.162,0.379,4.328,0.706,6.479,0.988
					c1.508,0.197,2.589-1.634,1.897-2.905c-0.337-0.62,1.007-4.652,1.33-5.842c0.237-0.907,0.499-1.807,0.786-2.699
					c0.219-1.318,0.976-2.2,2.253-2.66C224.447,222.233,224.061,221.422,222.39,222.048z"/>
				<path style="fill:#544066;" d="M208.116,237.209c-2.287-0.234-4.564-0.554-6.838-0.9c-0.397,4.266,1.911,8.269,1.427,12.553
					c-0.469,4.156-2.194,8.216-3.285,12.235c-1.195,4.399-1.588,8.798-1.479,13.348c0.176,7.336,1.729,14.475,3.493,21.561
					c1.505-0.82,3.941-1.007,5.537-1.428c1.006-0.266,1.838-1.267,1.558-2.362c-1.442-5.636-2.977-11.383-3.197-17.228
					c-0.215-5.725,1.141-11.209,2.383-16.751C209.289,251.209,210.36,243.966,208.116,237.209z"/>
				<path style="fill:#544066;" d="M188.495,300.198c-1.557-6.409-0.781-13.342,0.479-19.734c1.502-7.62,2.551-16.027,1.279-23.745
					c-0.739-4.485-0.734-8.394-0.385-12.915c0.182-2.358-1.01-0.981-1.396,0.416c-0.479,1.732-0.596,3.54-0.56,5.33
					c0.071,3.535,0.803,7.016,0.974,10.543c0.378,7.799-2.861,15.187-3.595,22.875c-0.316,3.311-0.389,6.689-0.39,10.013
					c-0.001,4.253,0.248,8.768,1.463,12.932c1.258-0.449,2.521-0.881,3.791-1.293C189.421,303.235,188.871,301.746,188.495,300.198z
					"/>
				<path style="fill:#6B5680;" d="M312.776,297.462c-5.682-14.883-8.389-30.673-7.867-46.604
					c0.429-13.083,2.225-26.042-1.821-38.637c-3.662-11.4-8.207-22.227-17.052-30.663c-17.302-16.501-45.861-18.216-67.122-9.152
					c-1.031,0.439-2.064,0.926-3.091,1.451c-3.843,1.964-7.611,4.467-10.916,7.071c-0.384,0.303-0.749,0.626-1.122,0.941
					c-1.062,2.153-1.571,4.492-0.808,6.804c1.758,5.326,7.783,6.295,12.628,6.481c5.911,0.228,11.836,0.514,17.681,1.485
					c4.995,0.83,10.174,2.088,14.399,5.005c3.036,2.096,5.498,4.913,7.383,8.07c4.199,7.031,5.751,15.433,6.339,23.5
					c0.108,1.485,0.172,2.973,0.215,4.462c0.72-0.173,1.442-0.34,2.17-0.489c0.273,0.078,0.578,0.1,0.917,0.041
					c2.498-0.441,5.964-0.315,6.213-3.539c0.259-3.363-0.31-6.389,0.234-9.532c0.398-0.169,0.804-0.315,1.228-0.421
					c0.488,0.739,0.929,1.462,1.289,2.031c1.241,1.959,2.318,4.02,3.401,6.069c0.519,0.981,1.477,1.2,2.303,0.95
					c-0.013,0.119-0.023,0.238-0.036,0.358c1.835-0.384,3.62-0.978,5.372-1.67c0.105-0.042,0.226,0.03,0.282,0.115
					c2.681,4.042,1.558,9.263,1.577,13.809c0.01,2.484,0.428,4.638,1.472,6.892c0.984,2.124,1.952,4.262,2.731,6.471
					c1.534,4.346,2.212,9.07,1.298,13.629c-1.062,5.292-3.028,10.299-3.783,15.666c-0.458,3.253-0.699,6.536-0.749,9.823
					c0.316-0.064,0.63-0.137,0.947-0.198c-0.108,1.198-0.217,2.396-0.325,3.594c-0.111,1.233,1.169,2.403,2.399,2.075
					c2.353-0.628,4.58-1.111,6.846-1.428c-0.872-2.937-1.12-5.976-0.87-9.115c0.341-4.27,1.262-8.469,1.378-12.761
					c0.194-7.212-0.564-14.399-1.025-21.587c-0.403-6.287-1.636-11.954-0.4-18.296c0.174-0.894,0.511-1.931,1.384-2.19
					c0.571,0.702,0.643,1.675,0.668,2.58c0.167,6.021-0.632,12.037-0.243,18.056c0.369,5.706,2.101,11.017,2.842,16.663
					c0.503,3.837-0.269,7.625-0.694,11.427c-0.432,3.856,0.001,7.408,1.385,11.034c0.485,1.271,1.025,2.517,1.563,3.763
					c2.99-0.036,5.656-0.22,8.508-1.342C312.982,299.728,313.13,298.39,312.776,297.462z"/>
				<path style="fill:#80649E;" d="M292.49,225.192l-0.539-1.433c-0.731-1.871-1.56-3.704-2.502-5.475
					c-0.942-1.77-1.951-3.504-3.069-5.164c-1.139-1.646-2.33-3.253-3.643-4.755c-0.124-0.142-0.338-0.172-0.496-0.063
					c-0.171,0.118-0.214,0.352-0.096,0.523c2.236,3.241,4.221,6.629,5.883,10.165c0.816,1.775,1.564,3.577,2.237,5.406l0.473,1.357
					c0.013,0.041,0.019,0.069,0.024,0.092c-0.03,0.027-0.076,0.067-0.149,0.112c-0.788,0.506-1.646,1.033-2.481,1.523
					c-1.69,0.982-3.398,1.932-5.15,2.801l-2.674,1.309c-0.849,0.464-1.736,0.877-2.283,0.835c-0.238-0.024-0.41-0.102-0.552-0.353
					c-0.15-0.252-0.3-0.824-0.509-1.301c-0.402-0.971-0.901-1.856-1.378-2.72l-1.482-2.575c-0.24-0.409-0.49-0.907-0.889-1.326
					c-0.198-0.208-0.433-0.405-0.742-0.539c-0.299-0.145-0.724-0.156-1.04-0.007c-0.015,0.007-0.02,0.025-0.034,0.034
					c-0.092,0.047-0.165,0.127-0.194,0.234c-0.593,2.21-0.688,4.51-0.738,6.732c-0.007,0.566-0.038,1.088-0.026,1.7
					c0.015,0.579,0.049,1.119,0.034,1.636c-0.02,0.507-0.077,1.003-0.25,1.357c-0.173,0.362-0.383,0.575-0.773,0.735
					c-0.381,0.156-0.931,0.252-1.484,0.345l-1.642,0.285l-3.283,0.57c-2.189,0.377-4.368,0.805-6.554,1.205l-1.638,0.305
					c-0.548,0.102-1.013,0.141-1.265,0.039c-0.238-0.083-0.438-0.323-0.559-0.74c-0.127-0.399-0.116-0.874-0.143-1.484
					c-0.109-2.291-0.54-4.509-0.908-6.699c-0.385-2.175-0.646-4.382-1.023-6.6c-0.19-1.112-0.317-2.196-0.572-3.32
					c-0.135-0.561-0.281-1.126-0.551-1.678c-0.13-0.275-0.295-0.553-0.543-0.805c-0.225-0.241-0.609-0.449-1.009-0.425
					c-0.004,0-0.007-0.002-0.01-0.002l-0.034,0l-0.008,0.001c-0.002,0-0.003,0.001-0.005,0.001c-0.442,0.008-0.868,0.335-1.052,0.67
					c-0.205,0.34-0.299,0.686-0.367,1.019c-0.129,0.66-0.13,1.332-0.17,1.913l-0.394,3.721l-0.773,7.46l-0.752,7.322
					c-0.028,0.01-0.07,0.024-0.129,0.035c-0.208,0.042-0.489,0.057-0.773,0.051c-0.573-0.008-1.174-0.073-1.794-0.144
					c-1.303-0.122-2.511-0.188-3.771-0.285c-2.496-0.191-4.992-0.337-7.488-0.482l-3.745-0.223l-1.628-0.1l0.047-0.906l0.336-7.473
					c0.114-1.235,0.208-2.511,0.199-3.79c-0.008-0.642-0.037-1.288-0.156-1.95c-0.067-0.332-0.148-0.668-0.342-1.017
					c-0.098-0.172-0.237-0.353-0.447-0.492c-0.225-0.137-0.501-0.165-0.727-0.124l-0.081,0.015c-0.023,0.004-0.047,0.011-0.07,0.02
					c-0.024,0.009-0.041,0.026-0.061,0.04c-0.193,0.091-0.298,0.216-0.401,0.319c-0.128,0.145-0.231,0.289-0.325,0.434
					c-0.186,0.29-0.345,0.583-0.491,0.877c-0.288,0.588-0.536,1.193-0.782,1.77c-0.533,1.126-1.072,2.359-1.42,3.631
					c-0.665,2.568-0.754,5.144-1.45,7.482l-0.013,0.041l-0.734-0.069l-1.897-0.175c-1.261-0.124-2.514-0.267-3.754-0.46
					c-2.474-0.356-4.888-1.052-7.333-1.741c-2.43-0.693-4.839-1.488-7.203-2.369c-0.278-0.103-0.497-0.209-0.609-0.309
					c-0.105-0.096-0.148-0.167-0.184-0.365c-0.067-0.372,0.075-1.057,0.158-1.669c0.203-1.236,0.408-2.475,0.703-3.696
					c1.144-4.89,3.096-9.598,5.727-13.918c0.101-0.167,0.058-0.387-0.104-0.502c-0.169-0.12-0.403-0.079-0.523,0.09
					c-2.973,4.205-5.154,8.981-6.466,13.991c-0.335,1.251-0.611,2.519-0.822,3.798c-0.077,0.647-0.275,1.223-0.18,2.128
					c0.046,0.433,0.295,0.975,0.68,1.294c0.372,0.322,0.751,0.469,1.065,0.596c2.406,0.925,4.837,1.753,7.304,2.484
					c2.454,0.715,4.973,1.374,7.556,1.73c1.282,0.185,2.566,0.317,3.844,0.429l1.914,0.156l0.954,0.068
					c0.064-0.003,0.186,0.034,0.455-0.017c0.13-0.026,0.308-0.103,0.438-0.223c0.13-0.117,0.2-0.242,0.242-0.334
					c0.084-0.198,0.083-0.25,0.109-0.332l0.065-0.242c0.666-2.592,0.668-5.181,1.214-7.574c0.269-1.206,0.689-2.348,1.182-3.554
					c0.222-0.609,0.427-1.197,0.67-1.769c0.117-0.286,0.245-0.565,0.384-0.822c0.113-0.248,0.365-0.513,0.365-0.513
					c0.242-0.095,0.454,0.46,0.516,1.035c0.071,0.574,0.069,1.184,0.042,1.792c-0.053,1.224-0.228,2.438-0.386,3.688l-0.592,7.504
					l-0.065,0.957c-0.001,0.201-0.017,0.45,0.135,0.794c0.134,0.364,0.624,0.65,0.885,0.667c0.283,0.047,0.391,0.038,0.556,0.055
					l0.468,0.033l0.936,0.066l3.743,0.264c2.495,0.181,4.991,0.352,7.486,0.501c1.234,0.083,2.525,0.145,3.713,0.246
					c0.622,0.065,1.267,0.132,1.945,0.136c0.341,0.001,0.689-0.01,1.094-0.093c0.203-0.047,0.432-0.104,0.71-0.293
					c0.323-0.225,0.46-0.544,0.528-0.786c0.115-0.5,0.091-0.723,0.132-1.057l0.081-0.935l0.16-1.871l0.29-3.744
					c0.187-2.496,0.404-4.991,0.554-7.488l0.23-3.757c0.012-0.666-0.006-1.252,0.072-1.827c0.076-0.571,0.276-1.07,0.636-1.088
					c0.285-0.016,0.579,0.364,0.76,0.836c0.188,0.465,0.311,0.989,0.407,1.516c0.188,1.061,0.271,2.199,0.403,3.291l0.381,3.306
					c0.122,1.109,0.261,2.236,0.421,3.338c0.319,2.21,0.629,4.397,0.731,6.562c0.022,0.499-0.012,1.156,0.184,1.832
					c0.163,0.645,0.64,1.446,1.473,1.753c0.812,0.287,1.5,0.132,2.038,0.058l1.651-0.291c2.2-0.394,4.405-0.76,6.601-1.178
					l3.294-0.622l1.647-0.311c0.54-0.105,1.1-0.189,1.754-0.455c0.647-0.247,1.304-0.868,1.539-1.547
					c0.272-0.675,0.288-1.318,0.291-1.918c-0.011-0.597-0.073-1.169-0.11-1.702c-0.035-0.501-0.03-1.093-0.047-1.641
					c-0.055-2.137-0.11-4.241,0.203-6.313c0.201,0.037,0.406,0.212,0.601,0.471c0.26,0.327,0.426,0.741,0.641,1.208l1.244,2.698
					c0.43,0.894,0.852,1.765,1.157,2.644c0.171,0.437,0.214,0.849,0.499,1.488c0.277,0.657,1.016,1.211,1.764,1.298
					c0.737,0.101,1.333-0.085,1.865-0.266c0.527-0.193,0.998-0.429,1.44-0.644c0.825-0.388,1.81-0.798,2.687-1.239
					c1.8-0.878,3.574-1.813,5.29-2.849c0.867-0.519,1.692-1.034,2.564-1.605c0.238-0.172,0.599-0.407,0.836-0.939
					C292.73,225.99,292.581,225.467,292.49,225.192z M225.234,237.981l-0.003,0C225.219,237.973,225.223,237.974,225.234,237.981z"
					/>
			</g>
		</g>
	</g>
</g>
</svg>
